<?xml version="1.0" encoding="UTF-8"?>
<svg width="32px" height="32px" viewBox="0 0 32 32" version="1.1" xmlns="http://www.w3.org/2000/svg" xmlns:xlink="http://www.w3.org/1999/xlink">
    <g id="Page-1" stroke="none" stroke-width="1" fill="none" fill-rule="evenodd">
        <g id="Artboard" transform="translate(-105.000000, -311.000000)" fill="#5368E0" fill-rule="nonzero">
            <g id="clock-(1)" transform="translate(105.000000, 311.000000)">
                <path d="M16,0 C7.17724613,0 0,7.17724613 0,16 C0,24.8227539 7.17724613,32 16,32 C24.8227539,32 32,24.8227539 32,16 C32,7.17724613 24.8227539,0 16,0 Z M23.609375,24.2758789 C23.3493652,24.5358887 23.0080566,24.6667481 22.6667481,24.6667481 C22.3254394,24.6667481 21.9838867,24.5358887 21.7241211,24.2758789 L15.0573731,17.609375 C14.8066406,17.3601074 14.6667481,17.0212403 14.6667481,16.6667481 L14.6667481,8 C14.6667481,7.26269531 15.263916,6.66674806 16,6.66674806 C16.736084,6.66674806 17.3332519,7.26269531 17.3332519,8 L17.3332519,16.1147461 L23.609375,22.390625 C24.1306152,22.9121094 24.1306152,23.7546387 23.609375,24.2758789 Z" id="Shape"></path>
            </g>
        </g>
    </g>
</svg>