<?xml version="1.0" encoding="UTF-8"?>
<svg width="32px" height="32px" viewBox="0 0 32 32" version="1.1" xmlns="http://www.w3.org/2000/svg" xmlns:xlink="http://www.w3.org/1999/xlink">
    <g id="Page-1" stroke="none" stroke-width="1" fill="none" fill-rule="evenodd">
        <g id="Artboard" transform="translate(-58.000000, -311.000000)" fill="#5368E0" fill-rule="nonzero">
            <g id="tag" transform="translate(58.000000, 311.000000)">
                <path d="M30.8571322,0 L18.2858565,0 C17.9827793,6.69624874e-05 17.6921573,0.120532477 17.4778738,0.3348794 L0.33519479,17.4772762 C-0.111385392,17.9233133 -0.111787173,18.6469099 0.334324264,19.0934828 C0.334592118,19.0937506 0.334926936,19.0940854 0.33519479,19.0943533 L12.9064704,31.6654219 C13.3527828,32.111526 14.0761904,32.111526 14.5224358,31.6654219 L31.6651148,14.5230252 C31.8797331,14.3084773 32.0002006,14.0173914 31.9999997,13.7139174 L31.9999997,1.14284877 C31.9999997,0.511660366 31.488331,0 30.8571322,0 Z M23.880597,10.5074627 C22.5617175,10.5074627 21.4925373,9.43828247 21.4925373,8.11940299 C21.4925373,6.8005235 22.5617175,5.73134328 23.880597,5.73134328 C25.1994765,5.73134328 26.2686567,6.8005235 26.2686567,8.11940299 C26.2686567,9.43828247 25.1994765,10.5074627 23.880597,10.5074627 Z" id="Shape"></path>
            </g>
        </g>
    </g>
</svg>