<?xml version="1.0" encoding="UTF-8"?>
<svg width="48px" height="48px" viewBox="0 0 48 48" version="1.1" xmlns="http://www.w3.org/2000/svg" xmlns:xlink="http://www.w3.org/1999/xlink">
    <!-- Generator: Sketch 52.5 (67469) - http://www.bohemiancoding.com/sketch -->
    <title>Medium</title>
    <desc>Created with Sketch.</desc>
    <g id="Page-1" stroke="none" stroke-width="1" fill="none" fill-rule="evenodd">
        <g id="Medium" fill-rule="nonzero">
            <g>
                <path d="M0,24 C0,10.7451654 10.7451654,0 24,0 C37.2548346,0 48,10.7451654 48,24 C48,37.2548346 37.2548346,48 24,48 C10.7451654,48 0,37.2548346 0,24 Z" id="back" fill="#FFFFFF"></path>
                <g id="Group" transform="translate(12.000000, 13.600000)">
                    <path d="M16.2215044,0.0236901426 C16.0996481,-0.0376772355 16,0.0243553716 16,0.161558859 L16,17.0347606 L23.3354867,20.7289437 C23.7009731,20.9130458 24,20.7268649 24,20.3152544 L24,4.0730224 C24,3.99211392 23.9545928,3.91810719 23.882767,3.88193537 L16.2215044,0.0236901426" id="Fill-6" fill="#32FC8D"></path>
                    <path d="M8,12.8275022 L15.9079434,0.126430002 C15.9796987,0.0112340414 16.1385561,-0.033532503 16.2609966,0.0269761229 L23.8997534,3.80196006 C23.9949019,3.84894034 24.0288302,3.96651402 23.973085,4.0560471 L16.0383474,16.8 L8,12.8275022" id="Fill-7" fill="#0BE370"></path>
                    <path d="M0.519290934,0.109470934 C0.0201232623,-0.136122441 -0.149000123,0.0456382948 0.143498772,0.513439162 L7.80588742,12.7677246 L16,16.8 L7.85882304,3.7798893 C7.82423731,3.72446226 7.77451504,3.6797711 7.71549098,3.65064277 L0.519290934,0.109470934" id="Fill-9" fill="#14C767"></path>
                    <path d="M8,20.3131988 C8,20.7265547 7.70089369,20.9135252 7.33541103,20.7286424 L0.44308683,17.2428408 C0.19937669,17.1195856 0,16.7933266 0,16.517756 L0,0.324557256 C0,0.0489866179 0.19937669,-0.0756882194 0.44308683,0.0475670116 L7.90134362,3.81962802 C7.96177582,3.8501913 8,3.91265398 8,3.9810456 L8,20.3131988" id="Fill-10" fill="#00AB6C"></path>
                </g>
            </g>
        </g>
    </g>
</svg>