<?xml version="1.0" encoding="UTF-8"?>
<svg width="48px" height="48px" viewBox="0 0 48 48" version="1.1" xmlns="http://www.w3.org/2000/svg" xmlns:xlink="http://www.w3.org/1999/xlink">
    <!-- Generator: Sketch 52.5 (67469) - http://www.bohemiancoding.com/sketch -->
    <title>Medium</title>
    <desc>Created with Sketch.</desc>
    <g id="Page-1" stroke="none" stroke-width="1" fill="none" fill-rule="evenodd">
        <g id="Medium_black" fill="#6F6F6F" fill-rule="nonzero">
            <g id="Medium">
                <path d="M0,24 C0,10.7451654 10.7451654,0 24,0 C37.2548346,0 48,10.7451654 48,24 C48,37.2548346 37.2548346,48 24,48 C10.7451654,48 0,37.2548346 0,24 Z M20.1404766,17.5369004 L12.4564602,13.7403809 C12.3907156,13.7078557 12.3280408,13.6925199 12.2714203,13.6925199 C12.1907531,13.6925199 12.1225357,13.7238655 12.0745276,13.7810795 C12.0275428,13.8370297 12,13.9179214 12,14.0191204 L12,30.3176285 C12,30.5950198 12.2054198,30.9233898 12.4564602,31.0474238 L19.5573878,34.5558506 C19.6560473,34.6046385 19.7500169,34.6277263 19.8349476,34.6277263 C20.0742204,34.6277263 20.2420354,34.444793 20.2420354,34.1377414 L20.2420354,17.699358 C20.2420354,17.6306 20.2027251,17.5676561 20.1404766,17.5369004 Z M29.1405788,31.1412919 L36.0406912,34.5504579 C36.4172517,34.7365089 36.7253388,34.5483514 36.7253388,34.1322644 L36.7253388,18.9620277 L29.1405788,31.1412919 Z M20.9705128,18.7568491 L20.9705128,27.1095965 L28.4841562,30.821938 L20.9705128,18.7568491 Z M36.544733,17.4974657 L28.7123436,13.627638 C28.6767852,13.6100272 28.6380718,13.6018538 28.5993584,13.6008426 C28.5968002,13.6007584 28.5943274,13.6 28.5917692,13.6 C28.4965206,13.6 28.4016982,13.6472711 28.3503646,13.7295954 L23.5227844,21.4816372 L28.9117944,30.1352007 L36.6198575,17.7579202 C36.6769897,17.6660744 36.6422841,17.5456637 36.544733,17.4974657 Z" id="Combined-Shape"></path>
            </g>
        </g>
    </g>
</svg>