<?xml version="1.0" encoding="UTF-8"?>
<svg width="876px" height="770px" viewBox="0 0 876 770" version="1.1" xmlns="http://www.w3.org/2000/svg" xmlns:xlink="http://www.w3.org/1999/xlink">
    <!-- Generator: Sketch 52.5 (67469) - http://www.bohemiancoding.com/sketch -->
    <title>code</title>
    <desc>Created with Sketch.</desc>
    <g id="Page-1" stroke="none" stroke-width="1" fill="none" fill-rule="evenodd">
        <g id="code" fill="#087BC2" fill-rule="nonzero">
            <path d="M178.5,437 L362.8,516.9 C364.5,517.6 365.8,516.7 365.8,514.9 L365.8,467.9 C365.8,466.1 364.4,464.1 362.7,463.4 L236.2,413.6 C234.5,412.9 234.5,411.9 236.2,411.2 L362.7,362.5 C364.4,361.8 365.8,359.9 365.8,358 L365.8,310.6 C365.8,308.8 364.5,307.9 362.8,308.6 L178.5,388.5 C176.8,389.2 175.5,391.3 175.5,393.1 L175.5,432.3 C175.5,434.2 176.8,436.2 178.5,437 Z M408,554.6 C413.2,554.6 417.1,553.4 419.8,551.1 C422.5,548.8 424.5,545.5 425.9,541.4 C427.2,537.3 428.8,531.6 430.5,524.4 L483.5,306.3 C486.1,296 487.5,288.8 487.5,284.9 C487.5,279.6 485.8,275.4 482.5,272.4 C479.1,269.4 474.3,267.9 468,267.9 C460.7,267.9 455.8,270 453.2,274.4 C450.7,278.7 448.1,286.6 445.3,298.2 L392.5,516.3 C390,527.9 388.7,535.1 388.7,538 C388.7,549.1 395.1,554.6 408,554.6 Z M513.2,517.2 L697.5,437 C699.2,436.3 700.5,434.2 700.5,432.4 L700.5,393.6 C700.5,391.8 699.2,389.7 697.5,389 L513.2,309.5 C511.5,308.8 510.2,309.7 510.2,311.5 L510.2,358 C510.2,359.8 511.6,361.8 513.3,362.5 L640.2,411.6 C641.9,412.3 641.9,413.3 640.2,414 L513.3,463.8 C511.6,464.5 510.2,466.5 510.2,468.3 L510.2,515.3 C510.2,517 511.5,517.9 513.2,517.2 Z M823,0 L53,0 C24,0 0.5,23.5 0.5,52.5 L0.5,717.5 C0.5,746.5 24,770 53,770 L823,770 C852,770 875.5,746.5 875.5,717.5 L875.5,52.5 C875.5,23.5 852,0 823,0 Z M823,717.5 L53,717.5 L53,140 L823,140 L823,717.5 Z" id="Shape"></path>
        </g>
    </g>
</svg>