<?xml version="1.0" encoding="UTF-8"?>
<svg width="876px" height="686px" viewBox="0 0 876 686" version="1.1" xmlns="http://www.w3.org/2000/svg" xmlns:xlink="http://www.w3.org/1999/xlink">
    <!-- Generator: Sketch 52.5 (67469) - http://www.bohemiancoding.com/sketch -->
    <title>interests</title>
    <desc>Created with Sketch.</desc>
    <g id="Page-1" stroke="none" stroke-width="1" fill="none" fill-rule="evenodd">
        <g id="interests" fill="#087BC2" fill-rule="nonzero">
            <path d="M757.3,125.7 L632.9,125.7 L632.9,58.4 C632.9,26.2 611.4,0.1 585,0.1 L291,0.1 C264.5,0.1 243.1,26.2 243.1,58.4 L243.1,125.7 L234.1,125.7 C194.6,125.7 155,125.6 115.5,125.7 C50.8,125.9 0.5,176.4 0.5,241 L0.5,569.6 C0.5,636 50,685.7 116.3,685.7 L757.9,685.7 C765,685.7 772.2,685.7 779.2,684.4 C838.1,673.6 875.5,628.5 875.5,568.4 L875.5,243.7 C875.5,175.2 825.9,125.7 757.3,125.7 Z M318.4,79.6 C318.4,58.1 335.8,40.7 357.3,40.7 L518.7,40.7 C540.2,40.7 557.6,58.1 557.6,79.6 L557.6,87.9 C557.6,109.4 540.2,126.8 518.7,126.8 L357.3,126.8 C335.8,126.8 318.4,109.4 318.4,87.9 L318.4,79.6 Z M435.6,607.4 C325.8,606.6 236,514.9 236.8,404.3 C237.6,293.7 328.3,204.1 438.8,205 C549.8,205.8 639.9,296.3 639.1,406.1 C638.4,518.3 547.5,608.2 435.6,607.4 Z M437.9,270.7 C363.6,270.7 302.4,331.1 302.4,404.5 C302.4,479.8 362.6,541 437.4,541.7 C511.3,542.4 573.9,479.7 573.4,405.6 C573,330.7 512.7,270.7 437.9,270.7 Z" id="Shape"></path>
        </g>
    </g>
</svg>