<?xml version="1.0" encoding="UTF-8"?>
<svg width="876px" height="711px" viewBox="0 0 876 711" version="1.1" xmlns="http://www.w3.org/2000/svg" xmlns:xlink="http://www.w3.org/1999/xlink">
    <!-- Generator: Sketch 52.5 (67469) - http://www.bohemiancoding.com/sketch -->
    <title>pencil</title>
    <desc>Created with Sketch.</desc>
    <g id="Page-1" stroke="none" stroke-width="1" fill="none" fill-rule="evenodd">
        <g id="pencil" fill="#177DC3" fill-rule="nonzero">
            <path d="M857.8,22.7 C856.2,18.6 852.4,15.6 848,15.1 C843.6,14.6 839.2,16.5 836.6,20.1 C821.2,41.6 801.1,48.8 777.8,57.1 C759,63.8 739.5,70.7 718.5,85.8 C688.7,107.2 675.1,136.3 681.9,163.9 L681.2,164.8 C668.8,146.8 655.3,130.1 641,115.2 C574.3,45.6 481,3.7 385.2,0.4 C381,0.3 376.7,0.2 372.4,0.2 C265.4,0.2 162.9,48 91.3,131.5 C20.1,214.5 -11.5,322.5 4.7,427.9 C6.1,436.7 7.7,445.6 9.7,454.4 C36,570.3 103.3,658.4 194.2,696.2 C216.6,705.5 239.2,710.3 261.4,710.3 C316.5,710.3 364.6,680.8 393.3,629.5 C404.2,610 411.3,589.8 414.3,569.4 C416,557.4 414.9,545.4 413.7,533.8 C412.5,521.8 411.4,510.6 413.2,499.2 C417.3,473.1 435.6,457.6 461.9,457.6 C469.4,457.6 477.1,458.8 484.7,461.3 C475.7,477.7 467.6,493.4 460.5,508 C445.4,538.8 435,564.3 429.6,583.8 C426.2,595.8 417.3,627.8 439.1,642.9 C446,647.7 454.7,649.4 463.8,647.7 C472,646.2 497,641.5 567.9,560.8 C586.9,539.1 607.4,514.1 628.9,486.3 C683.9,467.8 726.8,421.6 738.1,368.6 C740.9,355.4 742.1,341.2 741.6,326.4 C762.2,294.6 780.3,264.8 798.5,232.9 C798.8,232.3 799.2,231.6 799.5,230.9 C825.9,223.7 848.6,203.1 862,174.4 C881.3,132.5 879.9,78.6 857.8,22.7 Z M560.3,221.2 C550.7,236.4 534.3,245.4 516.4,245.4 C506.7,245.4 497.1,242.6 488.8,237.4 C477.1,230 468.9,218.5 465.9,205 C462.8,191.5 465.2,177.6 472.6,165.9 C482.2,150.7 498.6,141.7 516.5,141.7 C526.3,141.7 535.8,144.5 544.1,149.7 C555.8,157.1 564,168.6 567,182.1 C570.1,195.6 567.7,209.5 560.3,221.2 Z M627.6,315.1 C653.8,276.5 681.5,238.1 707.8,204 C712.1,207.8 716.8,211.6 722,215.2 C730.6,221.1 739.5,225.7 748.7,228.9 C726.5,266.9 702.6,304.5 673.7,347.1 C626.2,417.1 576.8,482.2 534.6,530.3 C511,557.2 490.4,577.9 474.5,590.7 C480.6,571.1 492.4,544.1 508.7,512.2 C537.8,455.2 580,385.2 627.6,315.1 Z M167.6,314.8 C157.9,314.8 148.3,312 140,306.8 C128.3,299.4 120.1,287.9 117.1,274.4 C114,260.9 116.4,247 123.8,235.3 C133.3,220.1 149.8,211.1 167.7,211.1 C177.5,211.1 187,213.9 195.3,219.1 C219.5,234.3 226.8,266.4 211.5,290.6 C202,305.7 185.6,314.8 167.6,314.8 Z M113.3,428.9 C122.8,413.7 139.3,404.7 157.2,404.7 C166.9,404.7 176.5,407.5 184.8,412.7 C196.5,420.1 204.7,431.6 207.7,445.1 C210.8,458.6 208.4,472.5 201,484.2 C191.5,499.4 175,508.4 157.1,508.4 C147.4,508.4 137.8,505.6 129.5,500.4 C117.8,493 109.6,481.5 106.6,468 C103.6,454.5 105.9,440.6 113.3,428.9 Z M279.3,121.1 C288.8,105.9 305.3,96.9 323.2,96.9 C332.9,96.9 342.5,99.7 350.8,104.9 C375,120.1 382.3,152.2 367,176.4 C357.4,191.6 341,200.6 323.1,200.6 C313.3,200.6 303.8,197.8 295.5,192.6 C283.8,185.2 275.6,173.7 272.6,160.2 C269.5,146.7 271.9,132.8 279.3,121.1 Z" id="Shape"></path>
        </g>
    </g>
</svg>