<?xml version="1.0" encoding="UTF-8"?>
<svg width="876px" height="786px" viewBox="0 0 876 786" version="1.1" xmlns="http://www.w3.org/2000/svg" xmlns:xlink="http://www.w3.org/1999/xlink">
    <!-- Generator: Sketch 52.5 (67469) - http://www.bohemiancoding.com/sketch -->
    <title>tools</title>
    <desc>Created with Sketch.</desc>
    <g id="Page-1" stroke="none" stroke-width="1" fill="none" fill-rule="evenodd">
        <g id="tools" fill="#177DC3" fill-rule="nonzero">
            <path d="M458.4,785 C396.3,786.5 334.5,783.3 272.8,777.3 C208.3,771 144.3,760.7 81.4,744.6 C74.4,742.8 70.7,738.6 67.6,732.9 C31,666.8 9.4,596.2 2.9,520.8 C-4.9,432 6.4,346.1 39.3,263.1 C47.7,241.9 58.7,222 69.3,201.9 C72.5,195.8 77.4,194 83.2,192.5 C122.8,182.4 162.8,174.5 203.3,169 C212.6,167.7 217.5,165.1 216,155 C215.5,151.7 216.4,148.2 215.8,144.9 C213.8,134.1 218.3,127.9 229,126.7 C238.9,125.6 242.3,119.4 243.6,110.7 C244.2,107 245.2,103.3 246.2,99.7 C259.8,52.1 264.4,47.4 312.6,37.8 C321.8,36 327.4,33 330.9,23.7 C336.6,8.7 345.9,0.3 365,0.9 C415.1,2.7 465.4,2.5 515.5,1 C533.3,0.4 543,7.8 548,22.3 C551.9,33.7 559.5,37.6 569.9,39.6 C575.2,40.6 580.4,43.2 585.8,43.7 C607,45.4 617.3,58.5 622.4,77.5 C624.6,85.6 627.7,93.5 629.8,101.6 C633.1,114.9 636.2,127.6 653.5,129.1 C659.7,129.6 660.2,135.2 660.3,140.7 C660.8,166.6 660.9,166.7 686,170.7 C721.8,176.5 757.2,183.6 792.4,192.2 C799.8,194 804.4,197.5 808.3,204.5 C860.2,296.8 880.2,396.3 874.7,501.1 C870.4,583 849.1,660.4 808.4,732.1 C804.4,739.2 799.5,743 791.3,745 C726.6,761.2 661.1,771.4 594.8,777.5 C549.3,781.9 503.9,784.2 458.4,785 Z M467.7,709.3 C559.3,707.5 650,698.4 739.8,679.7 C748.3,677.9 753.7,674.3 757.5,666 C781.1,613.6 794.7,559 798.4,501.6 C803.7,421.4 790.5,344.8 757.4,271.6 C753.9,263.9 749.2,260.3 740.8,258.4 C694.8,248 648.2,240.9 601.3,236.3 C522,228.5 442.4,226.2 362.7,230.1 C286,233.9 210.1,242.1 134.9,258.4 C126.4,260.3 122.1,264.1 118.5,271.6 C97.2,317 84.5,364.7 79.1,414.5 C69.6,501 81.6,584.1 117.2,663.7 C121.4,673.1 127.2,677.9 137.3,680 C246.4,702.9 356.7,710.3 467.7,709.3 Z M542.4,155.5 C546.5,152.6 558.3,162.5 557.1,148.8 C555.7,133.7 562.1,127.2 575.9,125 C579.7,124.4 583.6,122.7 582.1,117.5 C580,110.3 578.5,102.6 575.1,96 C570.2,86.4 547.6,85.4 541.1,94.4 C536.2,101.1 530.7,104 522.1,104 C466.9,103.6 411.8,103.7 356.6,104 C349,104 343.1,102 339.8,95.5 C334.7,85.3 327.4,86.6 317.8,87.9 C302.5,89.9 298.5,99.8 294.8,112.1 C292.3,120.5 293.2,124.8 302.4,126.2 C313.8,127.9 320.8,133.3 318.2,146.4 C316.6,154.1 320.3,156.9 328.1,156.2 C341.9,155 355.8,154.1 369.7,153.8 C426.9,152.2 484.2,151.7 542.4,155.5 Z M691.8,443.2 C678.3,443.2 664.8,443.5 651.3,443.1 C644.1,442.9 641.8,445.4 641.9,452.5 C642.3,469.3 642.4,486.2 641.9,503.1 C641.6,512.3 644.6,515.7 654.1,515.5 L732.5,515.1 C740.8,515 743.3,516.4 739.2,524.7 C721.4,561.1 694.4,584.2 652.2,585.9 C624.3,587 596.5,587.8 572,570.4 C558.7,560.9 547.4,549.8 539.9,535.3 C536.6,529 532.8,526.2 525.3,526.2 C466.7,526.4 408.1,526.4 349.5,526 C342.5,526 339.1,528.9 335.8,534.5 C315.6,568.9 286,585.9 245.4,586.4 C210.1,586.9 178.4,581 154,553 C146.1,544 140.5,533.7 135.4,523.1 C132.5,517 134.3,515.1 141,515.2 C168,515.5 195,515.1 221.9,515.5 C230.5,515.7 233.9,513.2 233.6,504.2 C233,487.4 233,470.5 233.6,453.6 C233.9,445 230.4,442.9 222.5,443 C195.9,443.4 169.4,442.9 142.9,443.3 C133.8,443.4 133.3,440.7 136.5,433.1 C152.1,395.8 189.8,370.6 230.2,371.9 C244.9,372.4 259.9,371 274.2,374.9 C301.1,382.2 321.6,398.4 335.1,422.7 C339.2,430 343.6,432.6 351.9,432.6 C409.6,432.2 467.4,432.2 525.1,432.4 C531.8,432.4 535.8,430.6 539.1,424.6 C560.8,385.1 595.4,371.3 639.1,371.7 C677.5,372.1 708.1,384.8 729.8,416.8 C735,424.4 743,433.3 739.4,441.4 C737.2,446.4 724.7,442.7 716.8,443 C708.7,443.6 700.3,443.3 691.8,443.2 Z" id="Shape"></path>
        </g>
    </g>
</svg>