<?xml version="1.0" encoding="UTF-8"?>
<svg width="1000px" height="996px" viewBox="0 0 1000 996" version="1.1" xmlns="http://www.w3.org/2000/svg" xmlns:xlink="http://www.w3.org/1999/xlink">
    <!-- Generator: Sketch 52.5 (67469) - http://www.bohemiancoding.com/sketch -->
    <title>work</title>
    <desc>Created with Sketch.</desc>
    <g id="Page-1" stroke="none" stroke-width="1" fill="none" fill-rule="evenodd">
        <g id="work" fill="#177DC3" fill-rule="nonzero">
            <path d="M994.8,278.5 C990.4,211.5 941.7,161.1 874.7,160.2 C835.6,159.7 796.6,159.7 757.6,160.2 C721.2,160.6 721.2,161.5 721.2,125.1 C721.2,49.7 671.7,0.6 596.3,0.2 C563.9,-0.2 531,0.2 498.6,0.2 C463.9,0.2 428.9,-0.2 393.8,0.2 C339.5,1.1 295.2,36.1 279.8,88.3 C274.6,106.7 276.3,124.7 276.8,142.7 C277.2,157.6 271.5,161.1 257.9,161.1 C215.4,160.2 172.9,160.6 130.4,161.1 C51.5,161.5 9,210.2 3.3,289.1 C-0.7,343.8 -1.1,393.8 2.4,451.7 C5,500.3 16.8,532.8 53.2,559.5 C55.9,561.3 58.5,563.4 61.1,565.6 C166.3,647.6 288.2,684 418.8,696.7 C435.4,698.5 439.8,694.5 440.3,677.9 C442.5,641 467,614.3 497.3,613 C526.6,612.1 550.3,635.3 557.3,672.6 C557.7,675.7 559.1,679.2 559.1,682.2 C557.7,695.8 563.4,698.5 576.6,697.6 C628.3,693.2 679.2,684.4 728.7,670 C822.5,642.8 908.8,601.6 978.1,530.1 C987.3,520.5 993.9,511.3 995.6,495.9 C1003.5,421.9 999.1,348.7 994.8,278.5 Z M345.2,165.4 C345.2,102.8 413.5,51.9 498.6,51.9 C583.2,51.9 652,102.8 652,165.4 L345.2,165.4 Z M499.7,637.3 C475.8,636.5 455.1,665.7 455.6,699.6 C456,732.1 476.4,760.4 499.3,760.1 C522.7,759.8 541.5,732.6 541.6,698.9 C541.6,665.4 523,638.1 499.7,637.3 Z M995.7,550.7 L995.4,551.1 L919.6,619.2 C859,660.2 757.2,708.7 594.5,732.6 C594.5,732.6 573.4,731.1 558.1,740.5 C542.8,749.8 542.1,778.6 500.9,783.4 L500.9,783.5 L498.6,783.5 L498.6,783.4 C457.4,778.6 456.7,749.8 441.4,740.5 C426,731.1 404.9,732.6 404.9,732.6 C242.2,708.7 140.4,660.2 79.9,619.2 L4,551.1 L3.8,550.7 L3.8,550.9 L3.7,550.7 L3.8,600.5 L3.8,849.4 C3.4,860.6 4,870.6 5,880.2 C5.2,882.7 5.6,885.7 6.1,888.8 C21.6,992.1 112.4,991.3 112.4,991.3 C112.4,991.3 119,991.4 130.5,991.5 C190.4,996 344.9,996.5 499,995.6 L499.5,995.6 L499.7,995.6 L500,995.6 L500.4,995.6 C654.6,996.5 809.1,996 868.9,991.5 C880.5,991.4 887,991.3 887,991.3 C887,991.3 977.8,992.1 993.3,888.8 C993.8,885.6 994.2,882.7 994.4,880.2 C995.4,870.6 996,860.6 995.7,849.4 L995.7,600.5 L995.8,550.7 L995.7,550.9 L995.7,550.7 Z M500,996 L500.4,995.6 L500,995.6 L500,996 Z M499.5,996 L499.5,995.6 L499,995.6 L499.5,996 Z" id="Shape"></path>
        </g>
    </g>
</svg>