<svg height="511pt" viewBox="-15 0 511 511.99955" width="511pt" xmlns="http://www.w3.org/2000/svg"><path d="m323.964844 373.371094s121.296875 138.628906-82.671875 138.628906-82.671875-138.628906-82.671875-138.628906zm0 0" fill="#ebebeb"/><path d="m133.839844 411.09375c32.628906 17.234375 69.324218 26.398438 107.453125 26.398438 38.125 0 74.820312-9.164063 107.453125-26.398438-10.523438-21.421875-24.78125-37.71875-24.78125-37.71875h-165.34375c0-.003906-14.261719 16.296875-24.78125 37.71875zm0 0" fill="#d5d4da"/><path d="m187.148438 398.332031.078124-.089843c-.101562.121093-10.484374 12.214843-18.4375 27.714843-7.707031 15.023438-9.230468 25.957031-7.320312 30.128907 1.335938 2.910156 6.308594 6.304687 13.304688 9.074218 10.292968 4.074219 30.1875 8.933594 66.519531 8.933594 36.386719 0 56.292969-4.871094 66.585937-8.960938 6.972656-2.769531 11.925782-6.15625 13.242188-9.0625 1.46875-3.226562 1.449218-13.4375-7.902344-31.222656-7.8125-14.851562-17.6875-26.402344-17.78125-26.515625zm0 0" fill="#5bd6fd"/><path d="m482.082031 216.695312c0 25.121094-20.363281 45.488282-45.484375 45.488282s-45.488281-20.367188-45.488281-45.488282c0-25.121093 20.367187-45.488281 45.488281-45.488281s45.484375 20.367188 45.484375 45.488281zm0 0" fill="#ffcabd"/><path d="m241.292969 437.492188c25.027343 0 49.433593-3.957032 72.484375-11.542969-.191406-.371094-.359375-.722657-.558594-1.101563-7.8125-14.851562-17.6875-26.402344-17.785156-26.515625h-108.28125c-.925782 1.089844-10.746094 12.785157-18.355469 27.613281 23.050781 7.589844 47.464844 11.546876 72.496094 11.546876zm0 0" fill="#34b5e1"/><path d="m187.148438 398.332031h.003906c.039062-.046875.070312-.082031.074218-.089843zm0 0" fill="#34b5e1"/><path d="m436.597656 216.695312c0-104.875-87.441406-189.890624-195.304687-189.890624s-195.304688 85.015624-195.304688 189.890624 87.441407 189.890626 195.304688 189.890626 195.304687-85.015626 195.304687-189.890626zm0 0" fill="#ffdcce"/><path d="m76.894531 216.695312c0-99.816406 79.210938-181.640624 179.851563-189.300781-5.097656-.386719-10.253906-.589843-15.453125-.589843-91.878907 0-168.925781 61.691406-189.75 144.789062-1.734375-.246094-3.574219-.386719-5.554688-.386719-25.125 0-45.488281 20.367188-45.488281 45.488281 0 25.121094 20.367188 45.488282 45.488281 45.488282 1.976563 0 3.820313-.140625 5.554688-.386719 20.824219 83.097656 97.871093 144.789063 189.75 144.789063 5.199219 0 10.355469-.203126 15.453125-.59375-100.640625-7.65625-179.851563-89.480469-179.851563-189.296876zm0 0" fill="#ffcabd"/><path d="m331.671875 231.847656c-4.269531 0-7.726563-3.460937-7.726563-7.726562v-17.574219c0-4.265625 3.457032-7.726563 7.726563-7.726563 4.265625 0 7.726563 3.460938 7.726563 7.726563v17.574219c0 4.265625-3.460938 7.726562-7.726563 7.726562zm0 0" fill="#4b5562"/><path d="m343.636719 257.675781h-23.933594c-4.265625 0-7.726563-3.460937-7.726563-7.726562 0-4.269531 3.460938-7.726563 7.726563-7.726563h23.933594c4.269531 0 7.726562 3.457032 7.726562 7.726563 0 4.265625-3.457031 7.726562-7.726562 7.726562zm0 0" fill="#fd88b2"/><path d="m150.914062 231.847656c-4.269531 0-7.726562-3.460937-7.726562-7.726562v-17.574219c0-4.265625 3.457031-7.726563 7.726562-7.726563 4.265626 0 7.726563 3.460938 7.726563 7.726563v17.574219c0 4.265625-3.460937 7.726562-7.726563 7.726562zm0 0" fill="#4b5562"/><path d="m162.882812 257.675781h-23.9375c-4.265624 0-7.726562-3.460937-7.726562-7.726562 0-4.269531 3.460938-7.726563 7.726562-7.726563h23.9375c4.265626 0 7.722657 3.457032 7.722657 7.726563 0 4.265625-3.457031 7.726562-7.722657 7.726562zm0 0" fill="#fd88b2"/><path d="m241.292969 256.683594c-8.53125 0-16.542969-3.570313-21.984375-9.792969-2.804688-3.214844-2.480469-8.09375.734375-10.902344 3.210937-2.808593 8.09375-2.480469 10.902343.730469 2.503907 2.867188 6.277344 4.511719 10.347657 4.511719 4.070312 0 7.839843-1.644531 10.347656-4.511719 2.808594-3.214844 7.6875-3.539062 10.902344-.730469 3.210937 2.808594 3.539062 7.6875.730469 10.902344-5.441407 6.222656-13.453126 9.792969-21.980469 9.792969zm0 0" fill="#4b5562"/><path d="m253.847656 12.796875c-23.734375 0-36.671875-5.503906-43.671875-11.007813-4.660156-3.660156-11.527343-1.449218-12.964843 4.296876-6.535157 26.175781-4.5 55.5 22.113281 69.09375 18.59375 9.5 47.734375 11.457031 62.195312-6.414063 17.339844-21.425781-.527343-55.96875-27.671875-55.96875zm0 0" fill="#f0bc63"/></svg>