<?xml version="1.0" encoding="iso-8859-1"?>
<!-- Generator: Adobe Illustrator 19.0.0, SVG Export Plug-In . SVG Version: 6.00 Build 0)  -->
<svg version="1.1" id="Capa_1" xmlns="http://www.w3.org/2000/svg" xmlns:xlink="http://www.w3.org/1999/xlink" x="0px" y="0px"
	 viewBox="0 0 511.999 511.999" style="enable-background:new 0 0 511.999 511.999;" xml:space="preserve">
<path style="fill:#626166;" d="M365.31,39.523h-95.448c-12.551,0-23.997,7.173-29.47,18.468l-35.288,72.824h224.964L394.78,57.991
	C389.307,46.697,377.861,39.523,365.31,39.523z"/>
<path style="fill:#47464C;" d="M330.049,39.524h-60.187c-12.551,0-23.997,7.173-29.47,18.468l-35.288,72.824h121.008
	C308.25,99.965,319.325,62.872,330.049,39.524z"/>
<path style="fill:#FFDE55;" d="M385.912,130.815l-18.8-43.846c-2.87-6.694-9.453-11.034-16.736-11.034h-65.578
	c-7.283,0-13.866,4.34-16.737,11.034l-18.8,43.846H385.912z"/>
<path style="fill:#E5B900;" d="M318.308,75.935h-33.512c-7.283,0-13.866,4.34-16.737,11.034l-18.8,43.846h76.852
	C315.979,113.315,315.162,93.807,318.308,75.935z"/>
<path style="fill:#626166;" d="M170.053,151.248H81.91V97.54c0-13.802,11.189-24.991,24.991-24.991h38.16
	c13.802,0,24.991,11.189,24.991,24.991v53.707H170.053z"/>
<path style="fill:#898890;" d="M455.303,472.476H56.697C25.385,472.476,0,447.091,0,415.777V165.95
	c0-31.313,25.385-56.697,56.697-56.697h398.605c31.313,0,56.697,25.385,56.697,56.697v249.827
	C512,447.091,486.615,472.476,455.303,472.476z"/>
<path style="fill:#75747A;" d="M194.063,223.498c0,0-68.082,101.292-30.419,248.977h210.492c0,0,68.272-59.906,82.02-157.263
	C456.3,314.342,194.063,223.498,194.063,223.498z"/>
<circle style="fill:#626166;" cx="317.584" cy="290.861" r="140.671"/>
<circle style="fill:#D7F3FF;" cx="317.584" cy="290.861" r="92.139"/>
<path style="fill:#92D8FF;" d="M281.996,290.864c0-41.023,26.811-75.778,63.866-87.714c-8.91-2.87-18.41-4.427-28.275-4.427
	c-50.888,0-92.14,41.253-92.14,92.14s41.253,92.14,92.14,92.14c9.865,0,19.376-1.552,28.286-4.423
	C308.817,366.646,281.996,331.887,281.996,290.864z"/>
<path style="fill:#ACABB1;" d="M123.172,109.252H56.697C25.385,109.252,0,134.637,0,165.95v249.828
	c0,31.313,25.385,56.697,56.697,56.697h66.474V109.252z"/>
<path style="fill:#FF737D;" d="M123.172,109.252H56.697c-27.756,0-50.838,19.95-55.728,46.29
	c11.243,22.354,34.374,37.699,61.102,37.699c26.727,0,49.856-15.345,61.1-37.696V109.252z"/>
<circle style="fill:#FFEB99;" cx="457.308" cy="157.772" r="20.461"/>
<g>
	<path style="fill:#FFFFFF;" d="M345.51,203.036l-29.834,29.834c-6.035,6.035-6.035,15.818,0,21.853
		c6.035,6.035,15.818,6.035,21.853,0l36.606-36.606C365.655,211.514,355.988,206.364,345.51,203.036z"/>
	<path style="fill:#FFFFFF;" d="M299.424,292.828l-12.049,12.049c-6.035,6.035-15.818,6.035-21.853,0
		c-6.035-6.035-6.035-15.818,0-21.853l12.049-12.049c6.035-6.035,15.818-6.035,21.853,0
		C305.459,277.01,305.459,286.794,299.424,292.828z"/>
</g>
<path style="fill:#D7F3FF;" d="M285.167,266.81c-2.784,0.612-5.431,2.003-7.596,4.168l-12.048,12.049
	c-6.035,6.035-6.035,15.818,0,21.853c4.875,4.875,12.191,5.811,18.007,2.81c-1.006-5.454-1.534-11.079-1.534-16.823
	C281.995,282.549,283.101,274.475,285.167,266.81z"/>
<path style="fill:#FFFFFF;" d="M319.846,329.315l-43.807,43.807c10.397,5.262,21.925,8.61,34.124,9.583l31.537-31.537
	c6.035-6.035,6.035-15.818,0-21.853C335.665,323.282,325.881,323.282,319.846,329.315z"/>
<path style="fill:#D7F3FF;" d="M301.548,347.613l-25.509,25.509c10.397,5.262,21.925,8.61,34.124,9.583l14.26-14.26
	C315.675,362.829,307.938,355.775,301.548,347.613z"/>
<g>
</g>
<g>
</g>
<g>
</g>
<g>
</g>
<g>
</g>
<g>
</g>
<g>
</g>
<g>
</g>
<g>
</g>
<g>
</g>
<g>
</g>
<g>
</g>
<g>
</g>
<g>
</g>
<g>
</g>
</svg>
