<svg height="511pt" viewBox="1 -14 511.99998 511" width="511pt" xmlns="http://www.w3.org/2000/svg"><path d="m481.625 241.382812c0 119.851563-97.160156 217.011719-217.011719 217.011719-119.851562 0-217.011719-97.160156-217.011719-217.011719 0-119.851562 97.160157-217.011718 217.011719-217.011718 119.851563 0 217.011719 97.160156 217.011719 217.011718zm0 0" fill="#42c3e2"/><path d="m481.476562 249.109375c.085938-2.566406.148438-5.136719.148438-7.726563 0-2.585937-.0625-5.160156-.148438-7.726562h-98.347656c-.996094-37.921875-9.3125-75.039062-24.300781-108.632812 22.285156-7.71875 43.378906-18.242188 62.8125-31.441407.378906-.261719.726563-.554687 1.046875-.867187-3.574219-3.796875-7.28125-7.460938-11.113281-10.996094-18.410157 12.328125-38.386719 22.136719-59.5 29.289062-.113281-.222656-.226563-.449218-.34375-.671874-18.058594-34.613282-43.089844-63.925782-72.800781-85.484376-4.734376-.304687-9.503907-.480468-14.316407-.480468-4.808593 0-9.578125.171875-14.308593.480468-29.710938 21.558594-54.742188 50.871094-72.800782 85.484376-.117187.222656-.230468.449218-.347656.671874-21.113281-7.148437-41.09375-16.957031-59.503906-29.289062-3.832032 3.535156-7.539063 7.203125-11.113282 10.996094.320313.3125.664063.605468 1.046876.863281 19.429687 13.203125 40.527343 23.726563 62.820312 31.449219-14.992188 33.589844-23.308594 70.707031-24.304688 108.628906h-98.347656c-.089844 2.566406-.152344 5.140625-.152344 7.726562 0 2.589844.0625 5.160157.152344 7.726563h98.347656c.996094 37.921875 9.316407 75.039063 24.304688 108.628906-22.292969 7.722657-43.390625 18.246094-62.820312 31.449219-.382813.257812-.726563.550781-1.046876.863281 3.574219 3.796875 7.28125 7.464844 11.113282 10.996094 18.410156-12.328125 38.390625-22.140625 59.503906-29.289063.117188.222657.230469.449219.347656.675782 18.058594 34.613281 43.09375 63.921875 72.804688 85.480468 4.730468.308594 9.496094.480469 14.304687.480469 4.808594 0 9.578125-.171875 14.3125-.480469 29.710938-21.558593 54.742188-50.867187 72.804688-85.480468.117187-.226563.226562-.453125.34375-.675782 21.113281 7.152344 41.089843 16.960938 59.5 29.289063 3.832031-3.53125 7.539062-7.199219 11.113281-10.996094-.320312-.3125-.667969-.605469-1.050781-.867187-19.429688-13.199219-40.523438-23.722656-62.8125-31.441406 14.992187-33.59375 23.308593-70.710938 24.304687-108.632813zm-224.589843 194.507813c-26.5625-19.867188-48.5-46.140626-64.617188-76.464844 20.722657-5.644532 42.390625-8.824219 64.617188-9.421875zm0-101.34375c-24.648438.628906-48.660157 4.261718-71.566407 10.769531-14.410156-31.699219-22.734374-67.144531-23.761718-103.933594h95.328125zm0-108.617188h-95.328125c1.027344-36.789062 9.351562-72.230469 23.761718-103.933594 22.90625 6.507813 46.917969 10.144532 71.566407 10.773438zm0-108.617188c-22.226563-.601562-43.894531-3.777343-64.617188-9.425781 16.117188-30.320312 38.054688-56.59375 64.617188-76.460937zm15.453125-85.890624c26.5625 19.867187 48.503906 46.140624 64.621094 76.464843-20.722657 5.648438-42.390626 8.824219-64.621094 9.425781zm0 404.472656v-85.890625c22.230468.597656 43.898437 3.777343 64.621094 9.425781-16.117188 30.324219-38.054688 56.59375-64.621094 76.464844zm71.570312-90.574219c-22.90625-6.507813-46.921875-10.144531-71.570312-10.773437v-93.164063h95.332031c-1.023437 36.789063-9.351563 72.234375-23.761719 103.9375zm-71.570312-119.390625v-93.160156c24.648437-.632813 48.664062-4.265625 71.570312-10.773438 14.410156 31.699219 22.738282 67.144532 23.761719 103.933594zm0 0" fill="#efedee"/><path d="m496.179688 67.398438-59.0625-32.296876-69.367188-10.730468-63.085938 59.492187-8.253906 26.5625c0 60.714844 48.261719 109.929688 107.800782 109.929688 59.527343 0 107.789062-49.214844 107.789062-109.929688zm0 0" fill="#fbc4ac"/><path d="m512 110.425781c-35.75-88.050781-107.789062-34.683593-107.789062-34.683593s-72.042969-53.367188-107.800782 34.683593c0-60.714843 48.261719-109.925781 107.800782-109.925781 59.527343 0 107.789062 49.210938 107.789062 109.925781zm0 0" fill="#3a484a"/><path d="m404.777344 220.347656c.691406-.003906 1.378906-.011718 2.070312-.027344.769532-.019531 1.539063-.050781 2.304688-.085937.085937-.003906.171875-.007813.257812-.011719 1.710938-.082031 3.414063-.207031 5.101563-.371094-54.703125-5.289062-97.496094-52.253906-97.496094-109.425781 0-14.023437 2.582031-27.433593 7.277344-39.765625-10.285157 7.746094-19.972657 20.292969-27.878907 39.765625 0 26.5625 9.238282 50.925781 24.613282 69.925781 2.746094 3.394532 5.6875 6.617188 8.808594 9.648438 19.34375 18.808594 45.535156 30.351562 74.375 30.351562.1875.003907.375-.003906.566406-.003906zm0 0" fill="#e3b098"/><path d="m324.292969 70.660156c14.441406-37.9375 48.9375-65.667968 90.21875-69.65625h-.003907c-1.683593-.164062-3.375-.289062-5.078124-.371094-.183594-.011718-.363282-.015624-.546876-.023437-.671874-.027344-1.34375-.058594-2.019531-.074219-.878906-.023437-1.765625-.035156-2.652343-.035156-40.933594 0-76.535157 23.261719-94.789063 57.527344-1.246094 2.335937-2.410156 4.722656-3.488281 7.160156-6.117188 13.796875-9.523438 29.113281-9.523438 45.242188 7.910156-19.476563 17.59375-32.023438 27.882813-39.769532zm0 0" fill="#323e40"/><g fill="#3a484a"><path d="m461.667969 134.550781c-4.265625 0-7.726563-3.460937-7.726563-7.726562v-11.171875c0-4.269532 3.460938-7.726563 7.726563-7.726563s7.726562 3.457031 7.726562 7.726563v11.171875c0 4.265625-3.460937 7.726562-7.726562 7.726562zm0 0"/><path d="m346.746094 134.550781c-4.265625 0-7.726563-3.460937-7.726563-7.726562v-11.171875c0-4.269532 3.460938-7.726563 7.726563-7.726563s7.726562 3.457031 7.726562 7.726563v11.171875c0 4.265625-3.460937 7.726562-7.726562 7.726562zm0 0"/><path d="m404.207031 150.339844c-6.234375 0-12.101562-2.617188-16.09375-7.1875-2.8125-3.214844-2.484375-8.09375.730469-10.902344 3.210938-2.808594 8.09375-2.480469 10.902344.730469 1.058594 1.214843 2.683594 1.90625 4.460937 1.90625 1.773438 0 3.402344-.691407 4.457031-1.902344 2.808594-3.214844 7.691407-3.542969 10.902344-.734375 3.214844 2.808594 3.542969 7.691406.734375 10.902344-3.992187 4.570312-9.859375 7.1875-16.09375 7.1875zm0 0"/></g><path d="m.078125 368.773438v70.863281c0 17.65625 13.273437 32.488281 30.820313 34.441406l50.9375 5.664063zm0 0" fill="#c86d5c"/><path d="m215.507812 368.773438v70.863281c0 17.65625-13.273437 32.488281-30.820312 34.441406l-50.9375 5.664063zm0 0" fill="#c86d5c"/><path d="m215.507812 368.773438c-.007812.011718-.007812.011718-.007812.011718l.007812-.011718-19.453124-30.539063-44.976563-42.550781h-61.289063l-70.242187 50.53125-19.46875 22.558594c-.0507812 1.417968-.078125 2.832031-.078125 4.253906 0 60.714844 48.257812 109.933594 107.792969 109.933594 59.539062 0 107.796875-49.21875 107.796875-109.933594 0-1.421875-.027344-2.835938-.082032-4.253906zm-215.429687 0s.015625.007812.0195312.007812c-.0039062 0-.0078124 0-.0117187.003906zm0 0" fill="#fbc4ac"/><path d="m20.636719 364.476562c-6.683594 2.03125-13.554688 3.535157-20.5507815 4.308594l-.0078125-.011718c-.0507812 1.417968-.078125 2.832031-.078125 4.253906 0 60.714844 48.257812 109.933594 107.792969 109.933594 3.570312 0 7.101562-.183594 10.582031-.527344-53.949219-5.609375-96.375-56.03125-97.738281-117.957032zm0 0" fill="#e3b098"/><path d="m50.332031 397.152344c-4.265625 0-7.726562-3.460938-7.726562-7.726563v-11.171875c0-4.269531 3.460937-7.726562 7.726562-7.726562 4.269531 0 7.726563 3.457031 7.726563 7.726562v11.171875c0 4.265625-3.457032 7.726563-7.726563 7.726563zm0 0" fill="#3a484a"/><path d="m165.257812 397.152344c-4.269531 0-7.726562-3.460938-7.726562-7.726563v-11.171875c0-4.269531 3.457031-7.726562 7.726562-7.726562 4.265626 0 7.726563 3.457031 7.726563 7.726562v11.171875c0 4.265625-3.460937 7.726563-7.726563 7.726563zm0 0" fill="#3a484a"/><path d="m107.792969 412.941406c-6.234375 0-12.101563-2.617187-16.09375-7.1875-2.808594-3.210937-2.480469-8.09375.734375-10.902344 3.210937-2.808593 8.09375-2.480468 10.902344.734376 1.054687 1.210937 2.683593 1.90625 4.457031 1.90625 1.777343 0 3.402343-.695313 4.460937-1.90625 2.808594-3.214844 7.691406-3.539063 10.902344-.734376 3.214844 2.808594 3.542969 7.691407.730469 10.902344-3.992188 4.570313-9.855469 7.1875-16.09375 7.1875zm0 0" fill="#3a484a"/><path d="m.078125 368.773438.0078125.011718c57.8515625-6.402344 107.7070315-62.28125 107.7070315-62.28125s49.855469 55.878906 107.707031 62.28125c0 0 0 0 .007812-.011718-2.191406-58.742188-49.574218-105.671876-107.714843-105.671876s-105.523438 46.929688-107.714844 105.671876zm0 0" fill="#c86d5c"/><path d="m118.097656 263.601562c-3.394531-.324218-6.828125-.5-10.304687-.5-58.140625 0-105.523438 46.929688-107.714844 105.671876l.0078125.011718c7.0976565-.785156 14.0742185-2.320312 20.8515625-4.402344 4.058594-53.195312 45.238281-95.757812 97.160156-100.78125zm0 0" fill="#ad4f3d"/></svg>