<svg height="512pt" viewBox="0 -21 512.00073 512" width="512pt" xmlns="http://www.w3.org/2000/svg"><path d="m85.410156 295.132812c-20.679687 0-45.585937-9.269531-76.980468-28.480468-8.304688-5.082032-10.917969-15.933594-5.835938-24.238282 5.082031-8.304687 15.929688-10.917968 24.238281-5.835937 36.804688 22.523437 55.429688 24.757813 64.570313 22.671875 8.738281-1.996094 13.867187-9.027344 21.515625-20.335938 2.882812-4.261718 5.863281-8.667968 9.320312-12.792968 6.25-7.460938 17.371094-8.441406 24.832031-2.191406 7.460938 6.253906 8.441407 17.371093 2.1875 24.835937-2.289062 2.730469-4.644531 6.210937-7.136718 9.898437-8.492188 12.558594-20.128906 29.761719-42.871094 34.957032-4.398438 1.003906-9.007812 1.511718-13.839844 1.511718zm0 0" fill="#819fe3"/><path d="m45.867188 247.3125-18 30.375c22.5 11.71875 41.328124 17.445312 57.539062 17.445312 4.835938 0 9.445312-.503906 13.84375-1.511718 22.746094-5.195313 34.378906-22.394532 42.871094-34.957032 2.492187-3.683593 4.847656-7.164062 7.136718-9.898437 6.253907-7.460937 5.273438-18.578125-2.1875-24.832031-7.460937-6.253906-18.582031-5.273438-24.832031 2.1875-3.457031 4.125-6.4375 8.53125-9.320312 12.792968-7.648438 11.308594-12.777344 18.339844-21.515625 20.339844-7.410156 1.6875-21.046875.539063-45.535156-11.941406zm0 0" fill="#4a5461"/><path d="m121.460938 326.96875c-16.824219-28.25-24.058594-94.316406-16.59375-128.234375.675781-3.074219 2.984374-5.53125 5.988281-6.476563l29.480469-9.261718c4.515624-1.417969 9.359374.953125 10.992187 5.398437 16.457031 44.707031 12.148437 96.875 17.226563 117.808594.980468 4.035156-.4375 8.257813-3.5625 10.996094-6.839844 6-18.972657 12.007812-31.652344 14.890625-4.628906 1.050781-9.449219-1.042969-11.878906-5.121094zm0 0" fill="#4a5461"/><path d="m372.707031 255.074219c-8.335937 0-15.742187-5.933594-17.3125-14.421875-1.773437-9.570313 4.546875-18.769532 14.121094-20.542969 31.519531-5.835937 53.453125-10.59375 70.457031-23.046875 11.796875-8.640625 28.46875-25.789062 37.035156-74.777344 1.675782-9.589844 10.804688-16.003906 20.398438-14.328125 9.589844 1.675781 16.003906 10.808594 14.328125 20.398438-8.1875 46.828125-24.371094 77.699219-50.929687 97.148437-24.773438 18.144532-55.324219 23.800782-84.871094 29.273438-1.082032.199218-2.164063.296875-3.226563.296875zm0 0" fill="#819fe3"/><path d="m472.234375 143.75c-9.09375 32.863281-22.386719 46.078125-32.261719 53.3125-17.003906 12.453125-38.9375 17.210938-70.457031 23.046875-9.574219 1.773437-15.898437 10.972656-14.125 20.542969 1.574219 8.488281 8.980469 14.421875 17.3125 14.421875 1.066406 0 2.144531-.097657 3.230469-.296875 29.546875-5.472656 60.097656-11.128906 84.871094-29.269532 21.617187-15.835937 36.359374-39.238281 45.511718-72.648437zm0 0" fill="#4a5461"/><path d="m157.21875 437.933594c-6.042969 0-11.925781-3.109375-15.210938-8.695313-12.660156-21.53125-16.058593-44.441406-9.828124-66.246093 8.46875-29.636719 34.789062-57.300782 74.105468-77.898438 8.625-4.515625 19.277344-1.183594 23.792969 7.4375 4.515625 8.625 1.1875 19.277344-7.4375 23.792969-30.238281 15.839843-50.855469 36.378906-56.5625 56.355469-3.617187 12.652343-1.550781 25.304687 6.320313 38.6875 4.933593 8.390624 2.128906 19.195312-6.261719 24.128906-2.804688 1.652344-5.882813 2.4375-8.917969 2.4375zm0 0" fill="#819fe3"/><path d="m328.941406 469.226562c-4.136718 0-8.289062-1.449218-11.636718-4.398437-51.664063-45.476563-43.527344-106.371094-36.351563-160.097656l.84375-6.328125c1.273437-9.652344 10.136719-16.441406 19.78125-15.167969 9.652344 1.273437 16.445313 10.132813 15.167969 19.785156l-.847656 6.378907c-6.878907 51.480468-12.820313 95.941406 24.699218 128.96875 7.308594 6.433593 8.015625 17.570312 1.582032 24.878906-3.484376 3.957031-8.347657 5.980468-13.238282 5.980468zm0 0" fill="#819fe3"/><path d="m392.253906 223.539062c0-81.558593-60.617187-191.226562-135.386718-191.226562-74.769532 0-135.382813 109.667969-135.382813 191.226562 0 81.558594 60.613281 136.441407 135.382813 136.441407 74.769531 0 135.386718-54.878907 135.386718-136.441407zm0 0" fill="#819fe3"/><path d="m182.042969 70.386719c-36.496094 39.242187-60.558594 101.769531-60.558594 153.152343 0 81.558594 60.613281 136.441407 135.382813 136.441407 4.597656 0 9.140624-.210938 13.621093-.617188-122.515625-53.917969-117.914062-208.378906-88.445312-288.976562zm0 0" fill="#6485d1"/><path d="m131.917969 159.925781 12.148437 3.65625c4.574219 1.378907 9.429688-1 11.171875-5.449219 11.664063-29.796874 30.070313-50.828124 37.492188-61.394531l-27.425781-5.558593c-14.304688 20.425781-25.777344 44.347656-33.386719 68.746093zm0 0" fill="#4a5461"/><path d="m155.238281 158.132812c3.515625-8.980468 7.644531-17.148437 11.902344-24.488281 1.800781-14.296875 4.488281-27.945312 7.804687-40.507812l-9.640624-1.953125c-14.304688 20.421875-25.777344 44.34375-33.386719 68.742187l12.148437 3.65625c4.574219 1.375 9.429688-1 11.171875-5.449219zm0 0" fill="#38404f"/><path d="m256.867188 32.3125c56.085937 0 104.203124 61.703125 124.753906 126.964844l-14.300782 4.304687c-4.570312 1.375-9.425781-.996093-11.167968-5.441406-6.296875-16.082031-14.558594-29.609375-21.996094-40.316406-32.078125 4.160156-64.839844 5.730469-77.289062 5.730469-56.761719 0-108.027344-15.207032-140.242188-37.34375-11.125-8.859376-18.261719-22.511719-18.261719-37.839844 0-26.714844 21.65625-48.371094 48.371094-48.371094 9.042969 0 19.140625 3.546875 25.109375 7.675781 24.261719 16.785157 36.160156 24.636719 85.023438 24.636719zm0 0" fill="#4a5461"/><path d="m136.644531 1.0625c-21.871093 4.640625-38.28125 24.054688-38.28125 47.308594 0 15.328125 7.140625 28.980468 18.261719 37.839844 32.214844 22.136718 83.480469 37.34375 140.242188 37.34375 6.574218 0 18.820312-.4375 33.632812-1.464844-104.878906-8.042969-174.929688-62.621094-153.855469-121.027344zm0 0" fill="#38404f"/><path d="m194.941406 216.320312c0-12.902343-13.132812-23.363281-29.335937-23.363281s-29.339844 10.460938-29.339844 23.363281c0 12.902344 13.136719 23.363282 29.339844 23.363282s29.335937-10.460938 29.335937-23.363282zm0 0" fill="#ff9eca"/><path d="m353.964844 216.320312c0-12.902343-13.136719-23.363281-29.335938-23.363281-16.203125 0-29.339844 10.460938-29.339844 23.363281 0 12.902344 13.136719 23.363282 29.339844 23.363282 16.199219 0 29.335938-10.460938 29.335938-23.363282zm0 0" fill="#ff9eca"/><g fill="#4a5461"><path d="m170.507812 196.234375c-4.140624 0-7.5-3.359375-7.5-7.5v-12.59375c0-4.140625 3.359376-7.5 7.5-7.5 4.144532 0 7.5 3.359375 7.5 7.5v12.59375c0 4.140625-3.355468 7.5-7.5 7.5zm0 0"/><path d="m245.117188 219.625c-11.738282 0-21.257813-9.519531-21.257813-21.257812v-15.453126c0-3.203124 2.597656-5.800781 5.800781-5.800781h30.910156c3.203126 0 5.800782 2.597657 5.800782 5.800781v15.453126c0 11.738281-9.515625 21.257812-21.253906 21.257812zm0 0"/><path d="m319.722656 196.234375c-4.144531 0-7.5-3.359375-7.5-7.5v-12.59375c0-4.140625 3.355469-7.5 7.5-7.5 4.140625 0 7.5 3.359375 7.5 7.5v12.59375c0 4.140625-3.359375 7.5-7.5 7.5zm0 0"/><path d="m341.339844 325.710938c-10.601563-31.125-3.988282-97.253907 10.339844-128.890626 1.300781-2.867187 4.066406-4.792968 7.203124-5.09375l30.757813-2.953124c4.710937-.449219 8.957031 2.875 9.636719 7.558593 6.835937 47.148438-8.191406 97.289063-7.5625 118.820313.121094 4.152344-2.136719 7.992187-5.761719 10.023437-7.933594 4.449219-21.050781 7.816407-34.050781 8.007813-4.75.070312-9.03125-2.980469-10.5625-7.472656zm0 0"/></g><path d="m371.75 275.089844h-13.023438c-4.144531 0-7.5-3.359375-7.5-7.5s3.355469-7.5 7.5-7.5h13.023438c4.144531 0 7.5 3.359375 7.5 7.5s-3.355469 7.5-7.5 7.5zm0 0" fill="#38404f"/></svg>