<svg id="Capa_1" enable-background="new 0 0 512 512" height="512" viewBox="0 0 512 512" width="512" xmlns="http://www.w3.org/2000/svg"><g><ellipse cx="256" cy="235.864" fill="#f6ee86" rx="241.096" ry="235.864"/><path d="m417.862 410.673c-334.733 20.436-363.822-238.643-227.563-401.81-101.225 27.982-175.395 119.016-175.395 227.001 0 130.264 107.942 235.864 241.096 235.864 62.295 0 119.075-23.116 161.862-61.055z" fill="#eed076"/><g><g><ellipse cx="104.94" cy="305.287" fill="#e7889d" rx="55.738" ry="44.387"/><ellipse cx="407.06" cy="305.287" fill="#e7889d" rx="55.738" ry="44.387"/><g><path d="m283.615 507.434c13.93-4.737 28.844-5.811 43.309-3.119l11.497 2.14c13.087 2.435 23.28-11.127 17.351-23.046-19.71-39.627-39.585-158.891-39.585-206.79 0-28.17-26.947-51.006-60.187-51.006s-60.187 22.836-60.187 51.006c0 47.899-19.875 167.162-39.585 206.79-5.929 11.919 4.264 25.481 17.351 23.046l11.497-2.14c14.465-2.692 29.379-1.618 43.309 3.119 17.906 6.088 37.323 6.088 55.23 0z" fill="#8eafe2"/><path d="m195.813 276.618c0 47.899-19.875 167.162-39.585 206.79-5.929 11.919 4.264 25.481 17.351 23.046l11.497-2.139c6.686-1.244 13.466-1.647 20.203-1.292 25.994-53.523 29.998-214.284 30.497-274.45-23.29 7.041-39.963 25.89-39.963 48.045z" fill="#e16e7e"/><path d="m316.187 276.618c0 47.899 19.875 167.162 39.585 206.79 5.928 11.919-4.264 25.481-17.351 23.046l-11.497-2.139c-6.686-1.244-13.466-1.647-20.203-1.292-25.993-53.523-29.998-214.284-30.497-274.45 23.29 7.041 39.963 25.89 39.963 48.045z" fill="#8ee2cf"/></g></g><g fill="#4e5660"><path d="m143.843 244.884 13.072-13.072c2.929-2.929 2.929-7.678 0-10.606-2.929-2.929-7.678-2.929-10.606 0l-13.073 13.072-13.072-13.072c-2.929-2.929-7.678-2.929-10.606 0-2.929 2.929-2.929 7.678 0 10.606l13.072 13.072-13.072 13.072c-2.929 2.929-2.929 7.678 0 10.606 1.464 1.465 3.384 2.197 5.303 2.197s3.839-.733 5.303-2.197l13.072-13.072 13.073 13.072c1.464 1.464 3.384 2.197 5.303 2.197s3.839-.733 5.303-2.197c2.929-2.929 2.929-7.678 0-10.606z"/><path d="m389.37 244.884 13.073-13.072c2.929-2.929 2.929-7.678 0-10.606-2.929-2.929-7.678-2.929-10.607 0l-13.072 13.072-13.073-13.072c-2.929-2.929-7.678-2.929-10.606 0-2.929 2.929-2.929 7.678 0 10.606l13.072 13.072-13.072 13.072c-2.929 2.929-2.929 7.678 0 10.606 1.464 1.465 3.384 2.197 5.303 2.197s3.839-.733 5.303-2.197l13.073-13.072 13.072 13.072c1.464 1.464 3.384 2.197 5.303 2.197s3.839-.733 5.303-2.197c2.929-2.929 2.929-7.678 0-10.606z"/></g></g><g fill="#eed076"><path d="m103.395 191.002c-3.063 0-5.939-1.891-7.048-4.937-1.416-3.892.59-8.196 4.483-9.613l46.724-17.006c3.892-1.418 8.195.59 9.613 4.483 1.416 3.892-.59 8.196-4.483 9.613l-46.724 17.006c-.848.308-1.714.454-2.565.454z"/><path d="m408.606 191.002c-.852 0-1.718-.146-2.565-.454l-46.724-17.006c-3.893-1.417-5.899-5.721-4.483-9.613 1.417-3.893 5.722-5.899 9.613-4.483l46.724 17.006c3.893 1.417 5.899 5.721 4.483 9.613-1.109 3.045-3.985 4.937-7.048 4.937z"/></g></g></svg>