<svg id="Capa_1" enable-background="new 0 0 497 497" height="512" viewBox="0 0 497 497" width="512" xmlns="http://www.w3.org/2000/svg"><path d="m396.841 0h-296.682c-24.356 0-44.101 19.745-44.101 44.101v408.798c0 24.356 19.745 44.101 44.101 44.101h296.682c24.356 0 44.101-19.745 44.101-44.101v-408.798c0-24.356-19.745-44.101-44.101-44.101z" fill="#5c576e"/><path d="m86.058 452.899v-408.798c0-24.356 19.745-44.101 44.101-44.101h-30c-24.356 0-44.101 19.745-44.101 44.101v408.798c0 24.356 19.745 44.101 44.101 44.101h30c-24.356 0-44.101-19.745-44.101-44.101z" fill="#42394b"/><path d="m106.327 50.269h284.346v356.246h-284.346z" fill="#bd9cde"/><circle cx="248.5" cy="228.392" fill="#f4e74d" r="96.411"/><path d="m268.5 304.804c-53.246 0-96.411-43.165-96.411-96.411 0-21.522 7.054-41.395 18.974-57.438-23.649 17.57-38.974 45.713-38.974 77.438 0 53.246 43.165 96.411 96.411 96.411 31.725 0 59.868-15.325 77.438-38.974-16.043 11.919-35.916 18.974-57.438 18.974z" fill="#f8ad3e"/><g fill="#42394b"><path d="m193.943 238.014c-4.142 0-7.5-3.358-7.5-7.5v-10.484c0-4.142 3.358-7.5 7.5-7.5s7.5 3.358 7.5 7.5v10.484c0 4.142-3.358 7.5-7.5 7.5z"/><path d="m303.057 238.014c-4.142 0-7.5-3.358-7.5-7.5v-10.484c0-4.142 3.358-7.5 7.5-7.5s7.5 3.358 7.5 7.5v10.484c0 4.142-3.358 7.5-7.5 7.5z"/><path d="m248.5 244.255c-7.68 0-14.983-3.326-20.038-9.125-2.722-3.123-2.396-7.86.726-10.582 3.122-2.721 7.86-2.397 10.582.726 2.205 2.53 5.387 3.98 8.73 3.98s6.525-1.451 8.73-3.98c2.722-3.123 7.458-3.448 10.582-.726 3.123 2.721 3.448 7.459.726 10.582-5.055 5.799-12.358 9.125-20.038 9.125z"/><circle cx="248.5" cy="451.758" r="21.152"/><circle cx="248.5" cy="25.135" r="6.149"/></g></svg>