<?xml version="1.0" encoding="iso-8859-1"?>
<!-- Generator: Adobe Illustrator 19.0.0, SVG Export Plug-In . SVG Version: 6.00 Build 0)  -->
<svg version="1.1" id="Capa_1" xmlns="http://www.w3.org/2000/svg" xmlns:xlink="http://www.w3.org/1999/xlink" x="0px" y="0px"
	 viewBox="0 0 512.001 512.001" style="enable-background:new 0 0 512.001 512.001;" xml:space="preserve">
<g>
	<path style="fill:#485878;" d="M141.493,54.204L12.871,114.158C5.019,117.819,0,125.696,0,134.358v301.126
		c0,16.301,16.928,27.087,31.703,20.2l109.792-51.176l43.73-168.024L141.493,54.204z"/>
	<path style="fill:#485878;" d="M370.507,54.204l128.623,59.954c7.851,3.659,12.871,11.537,12.871,20.2v301.126
		c0,16.301-16.928,27.087-31.703,20.2l-109.792-51.176l-43.73-168.024L370.507,54.204z"/>
</g>
<rect x="141.495" y="54.204" style="fill:#333F61;" width="229.009" height="350.303"/>
<path style="fill:#9EE5FF;" d="M321.925,84.537H190.075c-10.078,0-18.248,8.17-18.248,18.248v253.143
	c0,10.078,8.17,18.248,18.248,18.248h131.851c10.078,0,18.248-8.17,18.248-18.248V102.784
	C340.173,92.707,332.004,84.537,321.925,84.537z"/>
<path style="fill:#6FCCE2;" d="M192.431,355.927V102.784c0-10.078,8.17-18.248,18.248-18.248h-20.604
	c-10.078,0-18.248,8.169-18.248,18.248v253.143c0,10.078,8.17,18.248,18.248,18.248h20.604
	C200.6,374.175,192.431,366.006,192.431,355.927z"/>
<g>
	<path style="fill:#3B484A;" d="M204.643,239.249c-4.267,0-7.726-3.459-7.726-7.726v-9.294c0-4.267,3.459-7.726,7.726-7.726
		s7.726,3.459,7.726,7.726v9.294C212.37,235.79,208.91,239.249,204.643,239.249z"/>
	<path style="fill:#3B484A;" d="M307.357,239.249c-4.267,0-7.726-3.459-7.726-7.726v-9.294c0-4.267,3.459-7.726,7.726-7.726
		s7.726,3.459,7.726,7.726v9.294C315.083,235.79,311.624,239.249,307.357,239.249z"/>
	<path style="fill:#3B484A;" d="M256,244.21c-7.169,0-13.91-3.007-18.493-8.25c-2.809-3.213-2.481-8.093,0.731-10.902
		c3.213-2.809,8.094-2.481,10.902,0.731c1.648,1.885,4.149,2.967,6.859,2.967s5.211-1.081,6.858-2.966
		c2.808-3.213,7.688-3.541,10.902-0.732c3.213,2.808,3.542,7.689,0.732,10.902C269.911,241.203,263.17,244.21,256,244.21z"/>
</g>
<g>
	<polygon style="fill:#6FCCE2;" points="30.333,139.485 111.161,101.81 111.161,385.18 30.333,422.856 	"/>
	<polygon style="fill:#6FCCE2;" points="481.667,139.485 400.839,101.81 400.839,385.18 481.667,422.856 	"/>
</g>
<g>
</g>
<g>
</g>
<g>
</g>
<g>
</g>
<g>
</g>
<g>
</g>
<g>
</g>
<g>
</g>
<g>
</g>
<g>
</g>
<g>
</g>
<g>
</g>
<g>
</g>
<g>
</g>
<g>
</g>
</svg>
