<?xml version="1.0" encoding="UTF-8"?>
<svg width="191px" height="87px" viewBox="0 0 191 87" version="1.1" xmlns="http://www.w3.org/2000/svg" xmlns:xlink="http://www.w3.org/1999/xlink">
    <!-- Generator: Sketch 52.5 (67469) - http://www.bohemiancoding.com/sketch -->
    <title>Logo</title>
    <desc>Created with Sketch.</desc>
    <g id="Page-1" stroke="none" stroke-width="1" fill="none" fill-rule="evenodd">
        <g id="Logo">
            <polygon id="Combined-Shape" fill="#E70159" points="170.166667 21.1165049 141.833333 21.1165049 141.833333 87 121 87 121 21.1165049 121 0 191 0 191 21.1165049 191 65.8834951 191 87 153.5 87 153.5 65.8834951 170.166667 65.8834951"></polygon>
            <polygon id="Combined-Shape" fill="#FFBD3B" points="99.808075 65.8834951 142 65.8834951 142 87 80 87 80 65.8834951 80 0 99.808075 0"></polygon>
            <polygon id="Combined-Shape" fill="#3B52A4" points="34.1057635 0 100 0 100 20.8737864 54.0701129 20.8737864 54.0701129 65.1262136 54.0701129 86 0 86 0 65.1262136 33.2739157 65.1262136 33.2739157 0"></polygon>
        </g>
    </g>
</svg>