<?xml version="1.0" encoding="UTF-8"?>
<svg width="189px" height="86px" viewBox="0 0 189 86" version="1.1" xmlns="http://www.w3.org/2000/svg" xmlns:xlink="http://www.w3.org/1999/xlink">
    <!-- Generator: Sketch 52.5 (67469) - http://www.bohemiancoding.com/sketch -->
    <title>Group</title>
    <desc>Created with Sketch.</desc>
    <g id="Page-1" stroke="none" stroke-width="1" fill="none" fill-rule="evenodd">
        <g id="Desktop-HD" transform="translate(-628.000000, -218.000000)" fill-rule="nonzero">
            <g id="Group" transform="translate(627.500000, 217.500000)">
                <path d="M168.964286,21.131068 L141.035714,21.131068 L141.035714,85.5 L120.5,85.5 L120.5,21.131068 L120.5,0.5 L189.5,0.5 L189.5,21.131068 L189.5,64.868932 L189.5,85.5 L152.535714,85.5 L152.535714,64.868932 L168.964286,64.868932 L168.964286,21.131068 Z" id="Combined-Shape" fill="#EC2A56"></path>
                <path d="M99.5,65.368932 L141.035714,65.368932 L141.035714,86 L80,86 L80,65.368932 L80,1 L99.5,1 L99.5,65.368932 Z" id="Combined-Shape" fill="#F9B806"></path>
                <path d="M34.2647059,0.5 L99.5,0.5 L99.5,21.131068 L54.0294118,21.131068 L54.0294118,64.868932 L54.0294118,85.5 L0.5,85.5 L0.5,64.868932 L33.4411765,64.868932 L33.4411765,0.5 L34.2647059,0.5 Z" id="Combined-Shape" fill="#236DAB"></path>
            </g>
        </g>
    </g>
</svg>