<?xml version="1.0" encoding="UTF-8"?>
<svg width="448px" height="200px" viewBox="0 0 448 200" version="1.1" xmlns="http://www.w3.org/2000/svg" xmlns:xlink="http://www.w3.org/1999/xlink">
    <!-- Generator: Sketch 52.5 (67469) - http://www.bohemiancoding.com/sketch -->
    <title>Group 7</title>
    <desc>Created with Sketch.</desc>
    <g id="Page-1" stroke="none" stroke-width="1" fill="none" fill-rule="evenodd">
        <g id="Group-8" transform="translate(-48.000000, -172.000000)" fill="#FFFFFF" fill-rule="nonzero">
            <g id="Group" transform="translate(48.000000, 172.000000)">
                <g id="Group-7">
                    <path d="M399.515152,48.5436893 L333.575758,48.5436893 L333.575758,200 L285.090909,200 L285.090909,48.5436893 L285.090909,0 L448,0 L448,48.5436893 L448,151.456311 L448,200 L360.727273,200 L360.727273,151.456311 L399.515152,151.456311 L399.515152,48.5436893 Z" id="Combined-Shape"></path>
                    <path d="M230.787879,151.456311 L333.575758,151.456311 L333.575758,200 L182.30303,200 L182.30303,151.456311 L182.30303,-2.57343735e-11 L230.787879,-2.57373423e-11 L230.787879,151.456311 Z" id="Combined-Shape"></path>
                    <path d="M79.5151515,0 L230.787879,0 L230.787879,48.5436893 L126.060606,48.5436893 L126.060606,151.456311 L126.060606,200 L0,200 L0,151.456311 L77.5757576,151.456311 L77.5757576,-3.22003124e-11 L79.5151515,-3.22004311e-11 Z" id="Combined-Shape"></path>
                </g>
            </g>
        </g>
    </g>
</svg>