<?xml version="1.0" encoding="UTF-8"?>
<svg width="489px" height="489px" viewBox="0 0 489 489" version="1.1" xmlns="http://www.w3.org/2000/svg" xmlns:xlink="http://www.w3.org/1999/xlink">
    <!-- Generator: Sketch 52.5 (67469) - http://www.bohemiancoding.com/sketch -->
    <title>Combined Shape</title>
    <desc>Created with Sketch.</desc>
    <g id="Page-1" stroke="none" stroke-width="1" fill="none" fill-rule="evenodd">
        <path d="M0,0 L489,0 L489,489 L0,489 L0,0 Z M25,124 L60.5,124 C67.0833663,124 73.4166363,123.129952 79.5,121.389831 C85.5833638,119.649709 90.95831,116.977419 95.625,113.372881 C100.29169,109.768344 104.020819,105.148804 106.8125,99.5141243 C109.604181,93.8794445 111,87.2090781 111,79.5028249 C111,71.0508052 109.541681,64.048992 106.625,58.4971751 C103.708319,52.9453583 99.8125244,48.4915422 94.9375,45.1355932 C90.0624756,41.7796442 84.4375319,39.4180859 78.0625,38.0508475 C71.6874681,36.683609 65.000035,36 58,36 L25,36 L25,124 Z M54,60 L60.5642202,60 C66.7569117,60 71.7109906,61.6147741 75.4266055,64.8443709 C79.1422204,68.0739676 81,72.5827525 81,78.3708609 C81,85.3333681 79.1422204,90.3454593 75.4266055,93.4072848 C71.7109906,96.4691102 66.3853558,98 59.4495413,98 L54,98 L54,60 Z M165,82 L145,82 C145.251574,80.1666575 146.257853,78.3750087 148.018868,76.625 C149.779883,74.8749912 152.253653,74 155.440252,74 C158.375277,74 160.702297,74.7499925 162.421384,76.25 C164.14047,77.7500075 165,79.666655 165,82 Z M190,91.1272085 C190,85.9422591 189.169599,81.1337089 187.508772,76.7014134 C185.847945,72.269118 183.502062,68.4431845 180.471053,65.2234982 C177.440043,62.0038119 173.807039,59.4950031 169.57193,57.6969965 C165.336821,55.8989898 160.645055,55 155.496491,55 C150.430969,55 145.676923,55.8362696 141.234211,57.5088339 C136.791498,59.1813982 132.930133,61.5438599 129.65,64.5962898 C126.369867,67.6487196 123.774863,71.3701194 121.864912,75.7606007 C119.954961,80.151082 119,85.064166 119,90.5 C119,96.3539751 120.038001,101.497033 122.114035,105.929329 C124.190069,110.361624 126.951152,114.062117 130.397368,117.030919 C133.843584,119.99972 137.80875,122.236742 142.292982,123.742049 C146.777215,125.247357 151.385941,126 156.119298,126 C163.426937,126 169.841785,124.620155 175.364035,121.860424 C180.886285,119.100693 185.10057,115.33748 188.007018,110.570671 L167.578947,100.159011 C166.665493,101.329806 165.316091,102.396049 163.530702,103.357774 C161.745313,104.319498 159.52399,104.800353 156.866667,104.800353 C155.538005,104.800353 154.230123,104.633099 152.942982,104.298587 C151.655842,103.964074 150.49328,103.462312 149.455263,102.793286 C148.417246,102.12426 147.545325,101.329804 146.839474,100.409894 C146.133622,99.4899836 145.739182,98.4446466 145.65614,97.2738516 L189.750877,97.2738516 C189.833919,96.5211977 189.896199,95.5803943 189.937719,94.4514134 C189.97924,93.3224325 190,92.2143753 190,91.1272085 Z M254.242915,102.542403 C254.242915,99.3645306 253.657226,96.6048409 252.48583,94.2632509 C251.314434,91.9216608 249.745624,89.9355205 247.779352,88.3047703 C245.813081,86.6740201 243.595829,85.3359887 241.12753,84.290636 C238.659232,83.2452833 236.128218,82.471734 233.534413,81.9699647 C229.769212,81.2173107 227.363703,80.6110153 226.317814,80.1510601 C225.271925,79.6911049 224.748988,79.0429959 224.748988,78.2067138 C224.748988,77.119547 225.209172,76.3878111 226.129555,76.0114841 C227.049937,75.6351571 228.221315,75.4469965 229.643725,75.4469965 C231.735503,75.4469965 233.869085,75.8233178 236.044534,76.5759717 C238.219984,77.3286257 240.353566,78.3739627 242.445344,79.7120141 L256,63.5300353 C251.983786,60.8539324 247.465612,58.7632584 242.445344,57.2579505 C237.425076,55.7526427 232.363048,55 227.259109,55 C224.246949,55 221.046576,55.4390415 217.657895,56.3171378 C214.269214,57.1952341 211.131593,58.5750789 208.244939,60.4567138 C205.358285,62.3383486 202.973694,64.7844372 201.091093,67.795053 C199.208493,70.8056688 198.267206,74.4434416 198.267206,78.7084806 C198.267206,81.8863528 198.852896,84.6251357 200.024291,86.9249117 C201.195687,89.2246876 202.680828,91.1690144 204.479757,92.7579505 C206.278686,94.3468866 208.265846,95.6221978 210.441296,96.5839223 C212.616745,97.5456467 214.750327,98.2773827 216.842105,98.7791519 C220.690977,99.6990623 223.389331,100.472612 224.937247,101.099823 C226.485163,101.727035 227.259109,102.584211 227.259109,103.671378 C227.259109,104.674917 226.819842,105.364839 225.941296,105.741166 C225.062749,106.117493 224.121463,106.305654 223.117409,106.305654 C220.607275,106.305654 217.992591,105.741172 215.273279,104.612191 C212.553968,103.48321 210.190293,101.998831 208.182186,100.159011 L194,116.591873 C198.016214,119.602489 202.76448,121.923137 208.244939,123.553887 C213.725399,125.184637 219.310363,126 225,126 C228.095832,126 231.358957,125.602772 234.789474,124.808304 C238.21999,124.013836 241.378528,122.717618 244.265182,120.919611 C247.151836,119.121605 249.536428,116.71733 251.419028,113.706714 C253.301629,110.696098 254.242915,106.974698 254.242915,102.542403 Z M264,58 L264,124 L293,124 L293,58 L264,58 Z M264,39.5617021 C264,41.61845 264.397486,43.5311968 265.192469,45.3 C265.987452,47.0688032 267.075307,48.5907738 268.456067,49.8659574 C269.836827,51.1411411 271.44769,52.1489325 273.288703,52.8893617 C275.129716,53.6297909 277.096224,54 279.188285,54 C281.196663,54 283.079489,53.6297909 284.83682,52.8893617 C286.594151,52.1489325 288.163173,51.1411411 289.543933,49.8659574 C290.924693,48.5907738 292.012548,47.0688032 292.807531,45.3 C293.602514,43.5311968 294,41.61845 294,39.5617021 C294,37.5872242 293.602514,35.7156117 292.807531,33.9468085 C292.012548,32.1780053 290.924693,30.6354676 289.543933,29.3191489 C288.163173,28.0028303 286.594151,26.9539046 284.83682,26.1723404 C283.079489,25.3907762 281.196663,25 279.188285,25 C277.096224,25 275.129716,25.3907762 273.288703,26.1723404 C271.44769,26.9539046 269.836827,28.0028303 268.456067,29.3191489 C267.075307,30.6354676 265.987452,32.1780053 265.192469,33.9468085 C264.397486,35.7156117 264,37.5872242 264,39.5617021 Z M304,91.1987179 C304,95.592757 304.603169,99.7794673 305.809524,103.758974 C307.015879,107.738481 308.866983,111.241224 311.36289,114.267308 C313.858797,117.293391 316.978635,119.697641 320.722496,121.480128 C324.466357,123.262616 328.875727,124.153846 333.950739,124.153846 C337.944191,124.153846 341.500805,123.449152 344.62069,122.039744 C347.740574,120.630335 350.090851,119.013684 351.671593,117.189744 L352.045977,117.189744 L352.045977,120.05 C352.045977,122.039754 351.629999,123.801488 350.79803,125.335256 C349.96606,126.869025 348.842919,128.154055 347.428571,129.190385 C346.014224,130.226715 344.37111,131.014314 342.499179,131.553205 C340.627248,132.092097 338.651351,132.361538 336.571429,132.361538 C333.409946,132.361538 330.082119,131.801929 326.587849,130.682692 C323.093579,129.563456 319.765752,127.801721 316.604269,125.397436 L304,144.424359 C308.659027,147.574802 314.108343,149.958325 320.348112,151.575 C326.58788,153.191675 332.827555,154 339.067323,154 C344.142335,154 349.134075,153.44039 354.042693,152.321154 C358.951311,151.201917 363.339882,149.253646 367.208539,146.476282 C371.077195,143.698918 374.176234,139.94746 376.505747,135.221795 C378.835261,130.49613 380,124.568412 380,117.438462 L380,58.7410256 L352.91954,58.7410256 L352.91954,65.3320513 L352.545156,65.3320513 C350.382036,62.4303274 347.61578,60.3162459 344.246305,58.9897436 C340.87683,57.6632412 337.445009,57 333.950739,57 C329.042121,57 324.715946,57.9948618 320.972085,59.9846154 C317.228224,61.9743689 314.108387,64.5858813 311.612479,67.8192308 C309.116572,71.0525803 307.223871,74.700407 305.934319,78.7628205 C304.644766,82.825234 304,86.9704917 304,91.1987179 Z M331,90.875 C331,87.9583187 331.916657,85.4166775 333.75,83.25 C335.583343,81.0833225 338.249982,80 341.75,80 C345.166684,80 347.895823,81.0833225 349.9375,83.25 C351.979177,85.4166775 353,87.9583187 353,90.875 C353,93.9583487 351.979177,96.5833225 349.9375,98.75 C347.895823,100.916677 345.166684,102 341.75,102 C338.249982,102 335.583343,100.937511 333.75,98.8125 C331.916657,96.6874894 331,94.0416825 331,90.875 Z M393,58.737037 L393,124 L422.028319,124 L422.028319,89.2592593 C422.028319,86.3641831 422.635687,84.1515509 423.850442,82.6212963 C425.065198,81.0910417 426.635979,80.3259259 428.562832,80.3259259 C430.657238,80.3259259 432.228018,80.9876477 433.275221,82.3111111 C434.322424,83.6345745 434.846018,85.9506007 434.846018,89.2592593 L434.846018,124 L464,124 L464,84.2962963 C464,81.0703542 463.643956,77.8444606 462.931858,74.6185185 C462.21976,71.3925765 460.963136,68.4768649 459.161947,65.8712963 C457.360758,63.2657277 454.931284,61.1358107 451.873451,59.4814815 C448.815619,57.8271522 444.982914,57 440.375221,57 C436.102634,57 432.311816,57.8891886 429.002655,59.6675926 C425.693494,61.4459965 423.201188,63.5345559 421.525664,65.9333333 L421.274336,65.9333333 L421.274336,58.737037 L393,58.737037 Z M25,147 L25,235 L53.7944359,235 L53.7944359,203.553672 L54.6707883,203.553672 L71.6970634,235 L106,235 L83.4652241,199.327684 C88.4729771,197.090384 92.3121968,193.920924 94.9829985,189.819209 C97.6538001,185.717494 98.9891808,180.973662 98.9891808,175.587571 C98.9891808,170.035754 97.9459146,165.416214 95.8593509,161.728814 C93.7727871,158.041413 91.0394296,155.099823 87.6591963,152.903955 C84.278963,150.708087 80.4397433,149.175146 76.1414219,148.305085 C71.8431006,147.435024 67.5239784,147 63.1839258,147 L25,147 Z M53,184 L53,170 L60.0153846,170 C60.9179532,170 61.9025588,170.061403 62.9692308,170.184211 C64.0359028,170.307018 65.0205083,170.593565 65.9230769,171.04386 C66.8256455,171.494154 67.5640997,172.169586 68.1384615,173.070175 C68.7128234,173.970765 69,175.198823 69,176.754386 C69,178.309949 68.6512855,179.558475 67.9538462,180.5 C67.2564068,181.441525 66.3948769,182.17836 65.3692308,182.710526 C64.3435846,183.242693 63.2359034,183.590642 62.0461538,183.754386 C60.8564043,183.918129 59.7692357,184 58.7846154,184 L53,184 Z M147.349206,208 L149,208 L149,210.322581 C149,213.161305 148.153448,215.483862 146.460317,217.290323 C144.767187,219.096783 142.523823,220 139.730159,220 C139.052907,220 138.312173,219.892474 137.507937,219.677419 C136.7037,219.462365 135.962966,219.139787 135.285714,218.709677 C134.608462,218.279568 134.058203,217.741939 133.634921,217.096774 C133.211638,216.45161 133,215.655919 133,214.709677 C133,212.129019 134.312156,210.365596 136.936508,209.419355 C139.56086,208.473114 143.031724,208 147.349206,208 Z M147.030593,193.5 L147.030593,193.75 C142.722094,193.75 138.310093,194.041664 133.794455,194.625 C129.278817,195.208336 125.198234,196.312492 121.552581,197.9375 C117.906929,199.562508 114.903453,201.812486 112.542065,204.6875 C110.180677,207.562514 109,211.291644 109,215.875 C109,219.791686 109.704263,223.08332 111.112811,225.75 C112.521358,228.41668 114.323443,230.583325 116.51912,232.25 C118.714797,233.916675 121.159005,235.124996 123.851816,235.875 C126.544628,236.625004 129.175258,237 131.743786,237 C134.643737,237 137.626498,236.458339 140.692161,235.375 C143.757823,234.291661 146.119176,232.500013 147.776291,230 L148.024857,230 L148.024857,235.25 L174,235.25 L174,200.625 C174,196.041644 173.523587,191.708354 172.570746,187.625 C171.617905,183.541646 169.960815,179.958349 167.599426,176.875 C165.238038,173.791651 162.027426,171.375009 157.967495,169.625 C153.907564,167.874991 148.770586,167 142.556405,167 C136.756504,167 131.122398,168.041656 125.65392,170.125 C120.185441,172.208344 115.462735,175.166648 111.48566,179 L125.778203,193.25 C127.601029,191.749992 129.693105,190.437506 132.054493,189.3125 C134.415882,188.187494 136.92223,187.625 139.573614,187.625 C141.810719,187.625 143.612804,188.104162 144.979924,189.0625 C146.347043,190.020838 147.030593,191.49999 147.030593,193.5 Z M186,169.737037 L186,235 L215.028319,235 L215.028319,200.259259 C215.028319,197.364183 215.635687,195.151551 216.850442,193.621296 C218.065198,192.091042 219.635979,191.325926 221.562832,191.325926 C223.657238,191.325926 225.228018,191.987648 226.275221,193.311111 C227.322424,194.634575 227.846018,196.950601 227.846018,200.259259 L227.846018,235 L257,235 L257,195.296296 C257,192.070354 256.643956,188.844461 255.931858,185.618519 C255.21976,182.392576 253.963136,179.476865 252.161947,176.871296 C250.360758,174.265728 247.931284,172.135811 244.873451,170.481481 C241.815619,168.827152 237.982914,168 233.375221,168 C229.102634,168 225.311816,168.889189 222.002655,170.667593 C218.693494,172.445997 216.201188,174.534556 214.525664,176.933333 L214.274336,176.933333 L214.274336,169.737037 L186,169.737037 Z M297.992701,237 C300.970818,237 303.804123,236.792302 306.492701,236.3769 C309.181279,235.961497 311.270066,235.421483 312.759124,234.756839 L312.759124,215.066869 C312.180046,215.23303 311.394166,215.399189 310.40146,215.56535 C309.408754,215.73151 308.457425,215.81459 307.547445,215.81459 C305.148406,215.81459 303.26643,215.253805 301.90146,214.132219 C300.53649,213.010633 299.854015,210.871343 299.854015,207.714286 L299.854015,190.267477 L314,190.267477 L314,169.705167 L299.854015,169.705167 L299.854015,155 L272.058394,155 L272.058394,169.705167 L263,169.705167 L263,190.267477 L272.182482,190.267477 L272.182482,213.696049 C272.182482,221.671772 274.29195,227.549626 278.510949,231.329787 C282.729948,235.109948 289.2238,237 297.992701,237 Z M321,221.061776 C321,223.285725 321.437496,225.386091 322.3125,227.362934 C323.187504,229.339778 324.395826,231.028307 325.9375,232.428571 C327.479174,233.828836 329.270823,234.940794 331.3125,235.764479 C333.354177,236.588164 335.499989,237 337.75,237 C339.916677,237 341.979157,236.588164 343.9375,235.764479 C345.895843,234.940794 347.624993,233.828836 349.125,232.428571 C350.625008,231.028307 351.812496,229.339778 352.6875,227.362934 C353.562504,225.386091 354,223.285725 354,221.061776 C354,218.837827 353.562504,216.758053 352.6875,214.822394 C351.812496,212.886734 350.625008,211.198205 349.125,209.756757 C347.624993,208.315308 345.895843,207.162166 343.9375,206.297297 C341.979157,205.432428 339.916677,205 337.75,205 C335.499989,205 333.354177,205.432428 331.3125,206.297297 C329.270823,207.162166 327.479174,208.315308 325.9375,209.756757 C324.395826,211.198205 323.187504,212.886734 322.3125,214.822394 C321.437496,216.758053 321,218.837827 321,221.061776 Z" id="Combined-Shape" fill="#000000" fill-rule="nonzero"></path>
    </g>
</svg>