<?xml version="1.0" encoding="UTF-8"?>
<svg width="512px" height="460px" viewBox="0 0 512 460" version="1.1" xmlns="http://www.w3.org/2000/svg" xmlns:xlink="http://www.w3.org/1999/xlink">
    <!-- Generator: Sketch 52.5 (67469) - http://www.bohemiancoding.com/sketch -->
    <title>broadcast</title>
    <desc>Created with Sketch.</desc>
    <g id="Page-1" stroke="none" stroke-width="1" fill="none" fill-rule="evenodd">
        <g id="broadcast" fill="#9FA5AD">
            <path d="M115.352,380.869 C61.109,337.647 30,273.107 30,203.799 C30,134.493 61.107,69.954 115.348,26.732 C121.827,21.569 122.893,12.131 117.73,5.653 C112.568,-0.826 103.13,-1.893 96.651,3.27 C35.228,52.217 0,125.307 0,203.799 C0,282.294 35.229,355.385 96.656,404.332 C103.131,409.493 112.57,408.43 117.735,401.949 C122.897,395.469 121.831,386.032 115.352,380.869 Z" id="Path"></path>
            <path d="M415.351,3.27 C408.871,-1.892 399.435,-0.826 394.272,5.653 C389.109,12.132 390.175,21.569 396.654,26.732 C450.893,69.955 482,134.493 482,203.799 C482,273.105 450.893,337.643 396.653,380.865 C390.174,386.028 389.108,395.466 394.271,401.944 C399.436,408.427 408.875,409.486 415.35,404.327 C476.772,355.38 512,282.29 512,203.799 C512,125.308 476.772,52.218 415.351,3.27 Z" id="Path"></path>
            <path d="M165.335,318.257 C130.169,290.286 110,248.567 110,203.799 C110,159.03 130.169,117.311 165.336,89.339 C171.819,84.182 172.895,74.746 167.737,68.262 C162.579,61.778 153.143,60.703 146.66,65.86 C104.297,99.557 80,149.833 80,203.799 C80,257.764 104.297,308.04 146.659,341.736 C153.147,346.895 162.581,345.815 167.736,339.334 C172.893,332.851 171.818,323.414 165.335,318.257 Z" id="Path"></path>
            <path d="M365.341,65.862 C358.857,60.706 349.422,61.78 344.264,68.264 C339.107,74.747 340.182,84.184 346.665,89.341 C381.831,117.312 402,159.03 402,203.799 C402,248.568 381.831,290.287 346.664,318.258 C340.181,323.415 339.105,332.851 344.263,339.335 C349.423,345.822 358.861,346.891 365.34,341.737 C407.703,308.04 432,257.764 432,203.799 C432,149.834 407.703,99.558 365.341,65.862 Z" id="Path"></path>
            <path d="M256,129 C214.645,129 181,162.645 181,204 C181,240.219 206.808,270.522 241,277.491 L241,445 C241,453.284 247.716,460 256,460 C264.284,460 271,453.284 271,445 L271,277.491 C305.192,270.523 331,240.22 331,204 C331,162.645 297.355,129 256,129 Z" id="Path"></path>
        </g>
    </g>
</svg>