<?xml version="1.0" encoding="UTF-8"?>
<svg width="252px" height="252px" viewBox="0 0 252 252" version="1.1" xmlns="http://www.w3.org/2000/svg" xmlns:xlink="http://www.w3.org/1999/xlink">
    <!-- Generator: Sketch 52.5 (67469) - http://www.bohemiancoding.com/sketch -->
    <title>close</title>
    <desc>Created with Sketch.</desc>
    <g id="Page-1" stroke="none" stroke-width="1" fill="none" fill-rule="evenodd">
        <g id="close" fill="#E64B67">
            <path d="M126,0 C56.523,0 0,56.523 0,126 C0,195.477 56.523,252 126,252 C195.477,252 252,195.477 252,126 C252,56.523 195.477,0 126,0 Z M126,234 C66.449,234 18,185.551 18,126 C18,66.449 66.449,18 126,18 C185.551,18 234,66.449 234,126 C234,185.551 185.551,234 126,234 Z" id="Shape" fill-rule="nonzero"></path>
            <path d="M164.612,87.388 C161.097,83.873 155.399,83.873 151.884,87.388 L126,113.272 L100.115,87.387 C96.6,83.872 90.902,83.872 87.387,87.387 C83.872,90.902 83.872,96.6 87.387,100.115 L113.272,126 L87.387,151.885 C83.872,155.4 83.872,161.098 87.387,164.613 C89.144,166.37 91.448,167.249 93.751,167.249 C96.054,167.249 98.357,166.37 100.115,164.613 L126,138.728 L151.885,164.613 C153.642,166.37 155.946,167.249 158.249,167.249 C160.552,167.249 162.855,166.37 164.613,164.613 C168.128,161.098 168.128,155.4 164.613,151.885 L138.728,126 L164.613,100.115 C168.127,96.601 168.127,90.902 164.612,87.388 Z" id="Path"></path>
        </g>
    </g>
</svg>