<?xml version="1.0" encoding="UTF-8"?>
<svg width="512px" height="512px" viewBox="0 0 512 512" version="1.1" xmlns="http://www.w3.org/2000/svg" xmlns:xlink="http://www.w3.org/1999/xlink">
    <!-- Generator: Sketch 52.5 (67469) - http://www.bohemiancoding.com/sketch -->
    <title>question</title>
    <desc>Created with Sketch.</desc>
    <g id="Page-1" stroke="none" stroke-width="1" fill="none" fill-rule="evenodd">
        <g id="question" fill="#E70159">
            <circle id="Oval" cx="256" cy="378.5" r="25"></circle>
            <path d="M256,0 C114.516,0 0,114.497 0,256 C0,397.484 114.497,512 256,512 C397.484,512 512,397.503 512,256 C512,114.516 397.503,0 256,0 Z M256,472 C136.623,472 40,375.393 40,256 C40,136.623 136.607,40 256,40 C375.377,40 472,136.607 472,256 C472,375.377 375.393,472 256,472 Z" id="Shape" fill-rule="nonzero"></path>
            <path d="M256,128.5 C211.888,128.5 176,164.388 176,208.5 C176,219.546 184.954,228.5 196,228.5 C207.046,228.5 216,219.546 216,208.5 C216,186.444 233.944,168.5 256,168.5 C278.056,168.5 296,186.444 296,208.5 C296,230.556 278.056,248.5 256,248.5 C244.954,248.5 236,257.454 236,268.5 L236,318.5 C236,329.546 244.954,338.5 256,338.5 C267.046,338.5 276,329.546 276,318.5 L276,285.969 C310.466,277.066 336,245.709 336,208.5 C336,164.388 300.112,128.5 256,128.5 Z" id="Path"></path>
        </g>
    </g>
</svg>