<?xml version="1.0"?>
<svg xmlns="http://www.w3.org/2000/svg" id="Capa_1" enable-background="new 0 0 497 497" height="512px" viewBox="0 0 497 497" width="512px" class=""><g transform="matrix(1.30821 0 0 1.30821 -76.5898 17.7459)"><g><g><g><path d="m305.001 9.967c-18.39-6.448-38.158-9.967-58.75-9.967-98.031 0-177.5 79.469-177.5 177.5 0 98.03 79.469 177.5 177.5 177.5 20.593 0 40.36-3.519 58.75-9.967 69.155-24.251 118.75-90.095 118.75-167.533s-49.595-143.282-118.75-167.533zm-58.75 227.533c-33.084 0-60-26.916-60-60s26.916-60 60-60 60 26.916 60 60-26.916 60-60 60z" fill="#8288cb" data-original="#8288CB" class=""/><path d="m186.251 177.5c0-77.438 49.595-143.282 118.75-167.533-18.39-6.448-38.158-9.967-58.75-9.967-98.031 0-177.5 79.469-177.5 177.5 0 98.03 79.469 177.5 177.5 177.5l-4.431-48.521c-34.218-32.352-55.569-78.17-55.569-128.979z" fill="#676fb2" data-original="#676FB2"/></g><g><circle cx="246.251" cy="177.5" fill="#ff8e9e" r="60" data-original="#FF8E9E" class="active-path" style="fill:#FF8E9E"/><circle cx="246.251" cy="177.5" fill="#efedff" r="15" data-original="#EFEDFF"/></g><g fill="#313d40"><path d="m193.802 55.356c-4.143 0-7.5 3.357-7.5 7.5v12c0 4.143 3.357 7.5 7.5 7.5s7.5-3.357 7.5-7.5v-12c0-4.142-3.358-7.5-7.5-7.5z" data-original="#313D40"/><path d="m298.699 55.356c-4.143 0-7.5 3.357-7.5 7.5v12c0 4.143 3.357 7.5 7.5 7.5s7.5-3.357 7.5-7.5v-12c0-4.142-3.357-7.5-7.5-7.5z" data-original="#313D40"/><path d="m267.642 68.845c-3.122-2.721-7.86-2.396-10.581.728-5.725 6.569-15.899 6.564-21.619 0-2.721-3.124-7.46-3.448-10.581-.728-3.123 2.721-3.449 7.459-.728 10.581 11.702 13.431 32.545 13.419 44.236 0 2.722-3.122 2.396-7.861-.727-10.581z" data-original="#313D40"/></g><g fill="#4c5699"><path d="m145.488 76.737c2.929-2.93 2.929-7.678 0-10.607-2.929-2.927-7.677-2.929-10.607 0-61.408 61.41-61.408 161.33 0 222.74 2.931 2.929 7.678 2.928 10.607 0 2.929-2.93 2.929-7.678 0-10.607-55.56-55.561-55.56-145.965 0-201.526z" data-original="#4C5699" class=""/><path d="m133.808 177.5c0-30.086 11.682-58.338 32.895-79.549 2.929-2.93 2.929-7.678 0-10.607-2.93-2.928-7.678-2.928-10.607 0-24.045 24.045-37.287 56.063-37.287 90.156s13.242 66.111 37.287 90.156c2.93 2.928 7.677 2.928 10.607 0 2.929-2.93 2.929-7.678 0-10.607-21.214-21.211-32.895-49.463-32.895-79.549z" data-original="#4C5699" class=""/><path d="m336.407 87.344c-2.932-2.929-7.68-2.928-10.607 0-2.929 2.93-2.929 7.678 0 10.607 21.213 21.211 32.895 49.463 32.895 79.549s-11.682 58.338-32.895 79.549c-2.929 2.93-2.929 7.678 0 10.607 2.931 2.929 7.678 2.928 10.607 0 24.045-24.045 37.287-56.063 37.287-90.156s-13.242-66.111-37.287-90.156z" data-original="#4C5699" class=""/><path d="m187.915 108.557c-2.93-2.928-7.678-2.928-10.607 0-18.388 18.389-28.515 42.873-28.515 68.943s10.127 50.555 28.515 68.943c2.931 2.929 7.678 2.928 10.607 0 2.929-2.93 2.929-7.678 0-10.607-32.167-32.166-32.167-84.506 0-116.672 2.929-2.93 2.929-7.678 0-10.607z" data-original="#4C5699" class=""/><path d="m315.194 108.557c-2.93-2.928-7.678-2.928-10.607 0-2.929 2.93-2.929 7.678 0 10.607 32.167 32.166 32.167 84.506 0 116.672-2.929 2.93-2.929 7.678 0 10.607 2.931 2.929 7.678 2.928 10.607 0 18.388-18.389 28.515-42.873 28.515-68.943s-10.127-50.555-28.515-68.943z" data-original="#4C5699" class=""/><path d="m357.621 66.13c-2.929-2.927-7.677-2.929-10.607 0-2.929 2.93-2.929 7.678 0 10.607 44.618 44.619 53.396 111.704 26.351 165.173-1.866 3.689-.41 8.19 3.272 10.07 3.708 1.893 8.244.401 10.123-3.315 29.875-59.094 20.168-133.227-29.139-182.535z" data-original="#4C5699" class=""/></g></g><g><g><g><g><path d="m126.303 340.764c18.153-18.201-.467.433 78.58-78.614 11.371-11.369 28.41-13.601 42.017-6.71 3.276 1.659 6.357 3.839 9.107 6.557 14.272 14.101 13.838 37.746-.348 51.933l-8.759 8.759h34.561c31.684 0 61.96-13.567 82.674-37.542.123-.142.245-.284.368-.427 13.059-15.18 35.952-16.902 51.133-3.841 15.181 13.059 16.901 35.951 3.843 51.133-45.482 52.87-106.029 89.249-172.579 104.988l-69.325 30-69.325-30v-52.763c-.001-16.472 6.6-31.989 18.053-43.473z" fill="#ffd4bd" data-original="#FFD4BD" class="" style="fill:#FFD4BD00" data-old_color="#ffd4bd"/><path d="m256.012 262.001c-2.752-2.72-5.834-4.902-9.112-6.562-13.606-6.89-30.646-4.659-42.017 6.71-79.047 79.047-60.427 60.413-78.58 78.614-11.453 11.484-18.054 27.001-18.054 43.473v52.764h65.317c0-27.176 10.804-51.783 28.704-69.683l44.63-44.629 8.759-8.759c14.184-14.185 14.62-37.827.353-51.928z" fill="#ffbf9d" data-original="#FFBF9D" class="" style="fill:#FFBF9D00" data-old_color="#ffbf9d"/></g><g><path d="m246.33 437c-1.367 0-138.018 0-138.651 0-16.569 16.568-16.569 43.432 0 60h139.275c17.654-18.157 15.489-44.653-.624-60z" fill="#ffb5c0" data-original="#FFB5C0" class="" style="fill:#FFB5C000" data-old_color="#ffb5c0"/><path d="m143.566 467c0-16.568 13.431-30 30-30-27.774 0-43.848 0-65.887 0-16.569 16.569-16.569 43.431 0 60h65.885c-16.568-.001-29.998-13.433-29.998-30z" fill="#ff8e9e" data-original="#FF8E9E" class="active-path" style="fill:#FF8E9E"/></g></g></g></g></g></g> </svg>
