<?xml version="1.0" encoding="iso-8859-1"?>
<!-- Generator: Adobe Illustrator 19.0.0, SVG Export Plug-In . SVG Version: 6.00 Build 0)  -->
<svg version="1.1" id="Capa_1" xmlns="http://www.w3.org/2000/svg" xmlns:xlink="http://www.w3.org/1999/xlink" x="0px" y="0px"
	 viewBox="0 0 512.001 512.001" style="enable-background:new 0 0 512.001 512.001;" xml:space="preserve">
<path style="fill:#F7D9A4;" d="M374.01,79.635c-8.426-35.021-39.934-61.052-77.541-61.052s-69.115,26.031-77.541,61.052
	c-44.94,11.173-78.25,51.776-78.25,100.172v10.469h311.581v-10.469C452.259,131.411,418.95,90.809,374.01,79.635z"/>
<path style="opacity:0.1;enable-background:new    ;" d="M374.01,79.635c-7.742-32.18-34.979-56.751-68.522-60.529
	c21.192,9.688,38.813,29.178,45.792,59.778c1.576,6.91,6.729,12.446,13.569,14.307c21.961,5.974,37.104,18.359,45.443,37.373
	H153.178c-7.963,14.636-12.5,31.407-12.5,49.243v10.469h311.581v-10.469C452.259,131.411,418.95,90.809,374.01,79.635z"/>
<path style="fill:#E85668;" d="M156.228,368.427H86.842c-41.777,0-76.964-29.929-83.669-71.165l-2.413-14.85
	c-2.75-16.92,2.042-34.112,13.148-47.17c11.106-13.057,27.308-20.546,44.45-20.546h97.871v39.657H58.357
	c-7.519,0-12.151,4.125-14.242,6.583c-2.091,2.459-5.418,7.691-4.212,15.112l2.415,14.851c3.566,21.944,22.292,37.871,44.525,37.871
	h69.385V368.427z"/>
<path style="opacity:0.1;enable-background:new    ;" d="M112.202,368.427h44.026v-39.656H99.046
	C102.811,342.166,107.2,355.398,112.202,368.427z M82.273,214.696c0.238,13.268,1.068,26.498,2.467,39.657h71.488v-39.657H82.273z"
	/>
<path style="fill:#E85668;" d="M423.356,429.801H169.581l-22.556-56.967c-20.951-52.913-31.71-109.311-31.71-166.221v-28.43
	c0-12.42,10.068-22.488,22.488-22.488h317.33c12.42,0,22.488,10.068,22.488,22.488v28.43c0,56.91-10.759,113.307-31.71,166.221
	L423.356,429.801z"/>
<g>
	<path style="fill:#3E4B58;" d="M202.843,292.052c-4.143,0-7.5-3.358-7.5-7.5v-15.541c0-4.142,3.357-7.5,7.5-7.5s7.5,3.358,7.5,7.5
		v15.542C210.343,288.694,206.985,292.052,202.843,292.052z"/>
	<path style="fill:#3E4B58;" d="M390.095,292.052c-4.143,0-7.5-3.358-7.5-7.5v-15.541c0-4.142,3.357-7.5,7.5-7.5s7.5,3.358,7.5,7.5
		v15.542C397.595,288.694,394.237,292.052,390.095,292.052z"/>
	<path style="fill:#3E4B58;" d="M296.469,303.986c-11.628,0-22.686-5.036-30.339-13.817c-2.722-3.123-2.396-7.86,0.727-10.582
		c3.122-2.722,7.859-2.397,10.582,0.726c4.804,5.512,11.739,8.673,19.03,8.673c7.29,0,14.226-3.161,19.029-8.673
		c2.722-3.122,7.459-3.448,10.582-0.726c3.123,2.721,3.448,7.459,0.727,10.582C319.153,298.95,308.096,303.986,296.469,303.986z"/>
</g>
<path style="opacity:0.1;enable-background:new    ;" d="M455.134,155.696h-49.793c12.42,0,22.488,10.068,22.488,22.488v28.43
	c0,56.91-10.759,113.308-31.71,166.221l-22.556,56.966h49.793l22.556-56.967c20.951-52.913,31.71-109.311,31.71-166.221v-28.43
	C477.622,165.764,467.553,155.696,455.134,155.696z"/>
<path style="fill:#9BD8EB;" d="M457.794,493.418h-322.65c-11.689,0-22.756-5.262-30.135-14.327l-20.773-25.52
	c-7.749-9.52-0.975-23.77,11.301-23.77h401.865c12.276,0,19.05,14.249,11.301,23.77l-20.773,25.52
	C480.55,488.156,469.482,493.418,457.794,493.418z"/>
<path style="opacity:0.1;enable-background:new    ;" d="M497.401,429.801h-49.569c12.275,0,19.05,14.25,11.301,23.77l-20.773,25.52
	c-7.379,9.065-18.446,14.327-30.135,14.327h49.57c11.689,0,22.756-5.262,30.135-14.327l20.773-25.52
	C516.451,444.051,509.677,429.801,497.401,429.801z"/>
<g style="opacity:0.4;">
	<ellipse style="fill:#F98F9D;" cx="385.78" cy="324.151" rx="39.814" ry="23.859"/>
	<ellipse style="fill:#F98F9D;" cx="207.16" cy="324.151" rx="39.814" ry="23.859"/>
</g>
<g>
</g>
<g>
</g>
<g>
</g>
<g>
</g>
<g>
</g>
<g>
</g>
<g>
</g>
<g>
</g>
<g>
</g>
<g>
</g>
<g>
</g>
<g>
</g>
<g>
</g>
<g>
</g>
<g>
</g>
</svg>
