<svg id="Layer_1" enable-background="new 0 0 497 497" height="512" viewBox="0 0 497 497" width="512" xmlns="http://www.w3.org/2000/svg"><path d="m248.5 0c-66.377 0-128.781 25.849-175.716 72.784-46.935 46.936-72.784 109.34-72.784 175.716s25.849 128.78 72.784 175.716c46.935 46.935 109.339 72.784 175.716 72.784 17.487 0 34.693-1.812 51.418-5.313v-486.374c-16.725-3.501-33.931-5.313-51.418-5.313z" fill="#d4d4d5"/><path d="m497 248.5c0-66.376-25.849-128.78-72.784-175.716-34.57-34.57-77.538-57.683-124.298-67.471-46.761 9.788-89.728 32.901-124.298 67.471-46.935 46.936-72.784 109.34-72.784 175.716s25.849 128.78 72.784 175.716c34.57 34.57 77.538 57.683 124.298 67.471 46.761-9.788 89.728-32.901 124.298-67.471 46.935-46.936 72.784-109.34 72.784-175.716z" fill="#efedee"/><ellipse cx="169.331" cy="220.763" fill="#ff8e9e" rx="29.212" ry="23.263" transform="matrix(1 .003 -.003 1 .693 -.529)"/><ellipse cx="327.669" cy="221.259" fill="#ff8e9e" rx="29.212" ry="23.263" transform="matrix(-1 -.003 .003 -1 654.644 443.544)"/><path d="m184 178.5c-4.142 0-7.5 3.358-7.5 7.5v10c0 4.142 3.358 7.5 7.5 7.5s7.5-3.358 7.5-7.5v-10c0-4.142-3.358-7.5-7.5-7.5z" fill="#313d40"/><path d="m312 178.5c-4.142 0-7.5 3.358-7.5 7.5v10c0 4.142 3.358 7.5 7.5 7.5s7.5-3.358 7.5-7.5v-10c0-4.142-3.358-7.5-7.5-7.5z" fill="#313d40"/><path d="m267.735 207.234c-3.737-1.789-8.215-.206-10.001 3.531-1.666 3.484-5.291 5.735-9.234 5.735s-7.568-2.251-9.234-5.735c-1.787-3.737-6.266-5.317-10.001-3.531-3.737 1.787-5.318 6.265-3.531 10.001 4.144 8.666 13.08 14.265 22.766 14.265s18.623-5.599 22.766-14.265c1.787-3.736.206-8.215-3.531-10.001z" fill="#313d40"/><g fill="#d4d4d5"><circle cx="396.336" cy="296.5" r="45"/><circle cx="176.335" cy="116.5" r="30"/><circle cx="304.5" cy="413.5" r="15"/></g><circle cx="60" cy="248.5" fill="#b9bbbc" r="15"/><circle cx="366.336" cy="101.5" fill="#d4d4d5" r="15"/><path d="m175.962 424.553-61.848-101.686c-14.638 10.941-24.114 28.408-24.114 48.089 0 33.137 26.863 60 60 60 9.437 0 18.019-2.521 25.962-6.403-.227-.226.227.227 0 0z" fill="#b9bbbc"/><path d="m210.001 370.956c0-33.137-26.863-60-60-60-13.456 0-25.878 4.43-35.886 11.911 11.814 37.841 33.016 72.854 61.848 101.686.227.227-.228-.226 0 0 19.95-9.748 34.038-29.896 34.038-53.597z" fill="#d4d4d5"/><path d="m40.416 40.416c4.627-1.191 8.983-3.058 12.956-5.49 4.837-2.96 4.837-9.892 0-12.852-3.973-2.431-8.329-4.298-12.956-5.489-1.191-4.627-3.058-8.983-5.49-12.956-2.96-4.837-9.892-4.837-12.852 0-2.432 3.973-4.298 8.329-5.49 12.957-4.627 1.191-8.983 3.058-12.956 5.489-4.837 2.96-4.837 9.892 0 12.852 3.973 2.432 8.329 4.299 12.956 5.49 1.191 4.627 3.058 8.983 5.49 12.956 2.96 4.837 9.892 4.837 12.852 0 2.432-3.974 4.299-8.33 5.49-12.957z" fill="#ffce71"/><path d="m440.465 440.615c6.494-1.672 12.608-4.292 18.184-7.705 6.789-4.155 6.789-13.883 0-18.038-5.576-3.413-11.69-6.033-18.184-7.704-1.672-6.494-4.292-12.608-7.705-18.185-4.155-6.789-13.883-6.789-18.038 0-3.413 5.576-6.033 11.69-7.705 18.185-6.494 1.672-12.608 4.292-18.184 7.704-6.789 4.155-6.789 13.883 0 18.038 5.576 3.413 11.69 6.033 18.184 7.705 1.672 6.494 4.292 12.607 7.705 18.184 4.155 6.789 13.883 6.789 18.038 0 3.413-5.577 6.033-11.691 7.705-18.184z" fill="#ffce71"/></svg>