<?xml version="1.0" encoding="iso-8859-1"?>
<!-- Generator: Adobe Illustrator 19.0.0, SVG Export Plug-In . SVG Version: 6.00 Build 0)  -->
<svg version="1.1" id="Capa_1" xmlns="http://www.w3.org/2000/svg" xmlns:xlink="http://www.w3.org/1999/xlink" x="0px" y="0px"
	 viewBox="0 0 512 512" style="enable-background:new 0 0 512 512;" xml:space="preserve">
<polygon style="fill:#455058;" points="158.983,141.718 158.983,77.323 306.117,77.323 306.117,141.718 232.55,160.664 "/>
<polygon style="fill:#3C464D;" points="474.248,157.993 416.187,197.555 389.433,240.66 416.187,283.766 474.248,323.328 
	492.006,244.53 "/>
<polygon style="fill:#323A40;" points="474.248,292.423 416.187,252.861 399.024,225.207 389.433,240.66 416.187,283.766 
	474.248,323.328 492.006,244.53 488.686,228.355 "/>
<rect x="18.876" y="187.451" style="fill:#3C464D;" width="79.736" height="47.145"/>
<rect x="18.876" y="213.989" style="fill:#323A40;" width="79.736" height="20.604"/>
<g>
	<polygon style="fill:#3C464D;" points="157.155,499.072 213.274,375.528 171.638,356.615 106.928,499.072 	"/>
	<polygon style="fill:#3C464D;" points="307.946,499.072 251.826,375.528 293.462,356.615 358.172,499.072 	"/>
</g>
<path style="fill:#D85C67;" d="M385.38,166.749l-22.701,73.911l22.701,73.911c17.013,0,30.807-13.792,30.807-30.807v-86.211
	C416.187,180.542,402.394,166.749,385.38,166.749z"/>
<path style="fill:#BD364B;" d="M385.38,283.667l-17.955-58.459l-4.746,15.453l22.701,73.911c17.013,0,30.807-13.792,30.807-30.807
	v-30.905C416.187,269.874,402.394,283.667,385.38,283.667z"/>
<g>
	<polygon style="fill:#323A40;" points="142.697,420.33 192.923,420.33 213.274,375.528 171.638,356.615 	"/>
	<polygon style="fill:#323A40;" points="293.462,356.615 251.826,375.528 272.177,420.33 322.404,420.33 	"/>
</g>
<path style="fill:#50C4DF;" d="M360.35,141.718h-255.6c-13.824,0-25.03,11.206-25.03,25.03v197.645
	c0,13.824,11.206,25.03,25.03,25.03h255.6c13.824,0,25.03-11.206,25.03-25.03V166.749
	C385.38,152.925,374.174,141.718,360.35,141.718z"/>
<path style="fill:#1AA5C4;" d="M102.384,364.394V166.749c0-13.824,11.206-25.03,25.03-25.03H104.75
	c-13.824,0-25.03,11.206-25.03,25.03v197.645c0,13.824,11.206,25.03,25.03,25.03h22.664
	C113.59,389.424,102.384,378.218,102.384,364.394z"/>
<path style="fill:#3C464D;" d="M322.084,177.286H143.017c-9.701,0-17.566,7.864-17.566,17.566v121.112
	c0,9.701,7.864,17.566,17.566,17.566h179.067c9.701,0,17.566-7.864,17.566-17.566V194.853
	C339.65,185.152,331.785,177.286,322.084,177.286z"/>
<path style="fill:#50C4DF;" d="M502.192,148.185h-18.136c-5.417,0-9.808,4.392-9.808,9.808v165.335c0,5.417,4.391,9.808,9.808,9.808
	h18.136c5.417,0,9.808-4.392,9.808-9.808V157.993C512,152.577,507.609,148.185,502.192,148.185z"/>
<path style="fill:#1AA5C4;" d="M502.192,302.23h-18.136c-5.417,0-9.808-4.391-9.808-9.808v30.905c0,5.417,4.391,9.808,9.808,9.808
	h18.136c5.417,0,9.808-4.391,9.808-9.808v-30.905C512,297.839,507.609,302.23,502.192,302.23z"/>
<circle style="fill:#D45464;" cx="299.669" cy="361.48" r="10.926"/>
<circle style="fill:#3C464D;" cx="328.72" cy="361.48" r="10.926"/>
<g>
	<path style="fill:#EFEDEE;" d="M181.294,265.298c-4.267,0-7.726-3.459-7.726-7.726v-9.277c0-4.267,3.459-7.726,7.726-7.726
		c4.267,0,7.726,3.459,7.726,7.726v9.277C189.021,261.839,185.561,265.298,181.294,265.298z"/>
	<path style="fill:#EFEDEE;" d="M283.806,265.298c-4.267,0-7.726-3.459-7.726-7.726v-9.277c0-4.267,3.459-7.726,7.726-7.726
		s7.726,3.459,7.726,7.726v9.277C291.532,261.839,288.074,265.298,283.806,265.298z"/>
	<path style="fill:#EFEDEE;" d="M232.55,270.25c-7.16,0-13.89-3.003-18.467-8.238c-2.808-3.212-2.481-8.093,0.731-10.902
		c3.212-2.808,8.093-2.481,10.902,0.731c1.642,1.878,4.133,2.956,6.833,2.956c2.7,0,5.192-1.078,6.834-2.956
		c2.808-3.213,7.688-3.541,10.902-0.731c3.213,2.808,3.541,7.689,0.731,10.902C246.441,267.247,239.71,270.25,232.55,270.25z"/>
</g>
<path style="fill:#50C4DF;" d="M30.514,178.625H7.239c-3.998,0-7.239,3.241-7.239,7.239v50.317c0,3.998,3.241,7.239,7.239,7.239
	h23.275c3.998,0,7.239-3.241,7.239-7.239v-50.317C37.753,181.866,34.511,178.625,30.514,178.625z"/>
<path style="fill:#1AA5C4;" d="M30.514,221.786H7.239c-3.998,0-7.239-3.241-7.239-7.239v21.634c0,3.998,3.241,7.239,7.239,7.239
	h23.275c3.998,0,7.239-3.241,7.239-7.239v-21.634C37.752,218.545,34.511,221.786,30.514,221.786z"/>
<circle style="fill:#3C464D;" cx="158.978" cy="77.325" r="64.397"/>
<circle style="fill:#D85C67;" cx="158.978" cy="77.325" r="33.474"/>
<path style="fill:#BD364B;" d="M169.285,100.495c-18.487,0-33.474-14.987-33.474-33.474c0-6.606,1.921-12.76,5.224-17.948
	c-9.33,5.941-15.526,16.369-15.526,28.25c0,18.487,14.987,33.474,33.474,33.474c11.881,0,22.309-6.196,28.25-15.526
	C182.044,98.573,175.891,100.495,169.285,100.495z"/>
<circle style="fill:#3C464D;" cx="306.118" cy="77.325" r="64.397"/>
<circle style="fill:#D85C67;" cx="306.118" cy="77.325" r="33.474"/>
<path style="fill:#BD364B;" d="M316.419,100.495c-18.487,0-33.474-14.987-33.474-33.474c0-6.606,1.921-12.76,5.224-17.948
	c-9.33,5.941-15.526,16.369-15.526,28.25c0,18.487,14.987,33.474,33.474,33.474c11.881,0,22.309-6.196,28.25-15.526
	C329.179,98.573,323.026,100.495,316.419,100.495z"/>
<g>
</g>
<g>
</g>
<g>
</g>
<g>
</g>
<g>
</g>
<g>
</g>
<g>
</g>
<g>
</g>
<g>
</g>
<g>
</g>
<g>
</g>
<g>
</g>
<g>
</g>
<g>
</g>
<g>
</g>
</svg>
