<svg id="Capa_1" enable-background="new 0 0 497 497" height="512" viewBox="0 0 497 497" width="512" xmlns="http://www.w3.org/2000/svg"><g><path d="m129.44 72.563 29.765 37.47-29.765 37.47h-59.53v-32.34c0-23.53 19.07-42.6 42.59-42.6z" fill="#b2b0bc"/><path d="m248.5 115.163v32.34h-59.53l-29.765-37.47 29.765-37.47h16.93c23.53 0 42.6 19.07 42.6 42.6z" fill="#b2b0bc"/><path d="m69.906 419.098v41.048c0 17.436 14.134 31.57 31.57 31.57h43.227c17.436 0 31.57-14.134 31.57-31.57v-41.048z" fill="#5c586f"/><path d="m427.094 419.098v41.048c0 17.436-14.134 31.57-31.57 31.57h-43.227c-17.436 0-31.57-14.134-31.57-31.57v-41.048z" fill="#5c586f"/><path d="m400.979 82.92-197.468-76.616c-7.723-2.997-16.414.835-19.41 8.559-2.997 7.723.835 16.414 8.558 19.41l197.467 76.616c7.759 3.01 16.428-.874 19.41-8.559 2.997-7.723-.834-16.414-8.557-19.41z" fill="#b2b0bc"/><path d="m129.44 72.563h59.53v74.94h-59.53z" fill="#a19dae"/><path d="m356.085 66.765h38.935c19.528 0 35.358 15.83 35.358 35.358v45.459h-109.651v-45.459c0-19.528 15.831-35.358 35.358-35.358z" fill="#5c586f"/><path d="m91.054 419.098h-21.148v41.048c0 17.436 14.134 31.57 31.57 31.57h43.227c2.16 0 4.269-.218 6.307-.632-23.545-20.714-43.815-44.992-59.956-71.986z" fill="#4f4c5f"/><path d="m119.643 72.563h-7.143c-23.52 0-42.59 19.07-42.59 42.6v32.34h3.241c11.783-27.291 27.519-52.502 46.492-74.94z" fill="#a19dae"/><path d="m427.094 127.503h-357.188c-38.608 0-69.906 31.297-69.906 69.905v171.785c0 38.608 31.298 69.906 69.906 69.906h357.189c38.608 0 69.906-31.298 69.906-69.906v-171.785c-.001-38.608-31.299-69.905-69.907-69.905z" fill="#ed9b83"/><path d="m375.61 219.801h-211.509v168.999h211.509c28.102 0 50.883-22.781 50.883-50.883v-67.232c0-28.103-22.781-50.884-50.883-50.884z" fill="#fbe29f"/><g><path d="m375.61 261.101h-211.509c-4.142 0-7.5-3.358-7.5-7.5s3.358-7.5 7.5-7.5h211.509c4.142 0 7.5 3.358 7.5 7.5s-3.358 7.5-7.5 7.5z" fill="#fccb88"/></g><g><path d="m375.61 294.901h-211.509c-4.142 0-7.5-3.358-7.5-7.5s3.358-7.5 7.5-7.5h211.509c4.142 0 7.5 3.358 7.5 7.5s-3.358 7.5-7.5 7.5z" fill="#fccb88"/></g><g><path d="m375.61 328.7h-211.509c-4.142 0-7.5-3.358-7.5-7.5s3.358-7.5 7.5-7.5h211.509c4.142 0 7.5 3.358 7.5 7.5s-3.358 7.5-7.5 7.5z" fill="#fccb88"/></g><g><path d="m375.61 362.5h-211.509c-4.142 0-7.5-3.358-7.5-7.5s3.358-7.5 7.5-7.5h211.509c4.142 0 7.5 3.358 7.5 7.5s-3.358 7.5-7.5 7.5z" fill="#fccb88"/></g><circle cx="164.101" cy="304.301" fill="#5c586f" r="93.594"/><circle cx="164.101" cy="304.301" fill="#fbe29f" r="39.472"/><g><g><path d="m162.779 187.496c-4.142 0-7.5-3.358-7.5-7.5v-16.472c0-4.142 3.358-7.5 7.5-7.5s7.5 3.358 7.5 7.5v16.472c0 4.142-3.357 7.5-7.5 7.5z" fill="#423e4f"/></g><g><path d="m334.22 187.496c-4.142 0-7.5-3.358-7.5-7.5v-16.472c0-4.142 3.358-7.5 7.5-7.5s7.5 3.358 7.5 7.5v16.472c0 4.142-3.358 7.5-7.5 7.5z" fill="#423e4f"/></g><g><path d="m248.5 197.301c-10.83 0-21.127-4.69-28.254-12.868-2.721-3.123-2.396-7.86.727-10.582 3.122-2.721 7.86-2.396 10.582.727 4.277 4.908 10.453 7.723 16.945 7.723s12.668-2.815 16.945-7.723c2.722-3.123 7.459-3.448 10.582-.727s3.448 7.459.727 10.582c-7.127 8.178-17.425 12.868-28.254 12.868z" fill="#423e4f"/></g></g><path d="m48.775 265.833c0-49.873 12.248-96.907 33.908-138.331h-12.777c-38.608.001-69.906 31.299-69.906 69.906v171.785c0 38.607 31.298 69.905 69.906 69.905h34.201c-34.853-49.003-55.332-108.762-55.332-173.265z" fill="#e7886e"/></g></svg>