<svg id="Capa_1" enable-background="new 0 0 497 497" height="512" viewBox="0 0 497 497" width="512" xmlns="http://www.w3.org/2000/svg"><g><path d="m330.642 52.132h-259.34c-33.459 0-60.584 27.124-60.584 60.584v303.78c0 33.46 27.124 60.584 60.584 60.584h259.34c33.46 0 60.584-27.124 60.584-60.584v-303.78c0-33.459-27.124-60.584-60.584-60.584z" fill="#59c2e7"/><path d="m72.972 250.079c0-77.4 15.023-147.426 55.902-197.947h-57.572c-33.459 0-60.584 27.124-60.584 60.584v303.78c0 33.459 27.124 60.584 60.584 60.584h112.242c-66.937-50.572-110.572-133.398-110.572-227.001z" fill="#34b5e1"/><path d="m75.038 426.935c-8.169 0-14.815-6.646-14.815-14.816v-295.026c0-8.169 6.646-14.815 14.815-14.815h251.868c8.169 0 14.815 6.646 14.815 14.815v295.027c0 8.169-6.645 14.816-14.815 14.816h-251.868z" fill="#fff"/><path d="m280.872 31.644h-46.307c-1.042-17.651-15.681-31.644-33.593-31.644s-32.55 13.993-33.593 31.644h-46.307c-13.589 0-24.606 11.016-24.606 24.606v33.065c0 13.589 11.016 24.606 24.606 24.606h159.8c13.589 0 24.606-11.016 24.606-24.606v-33.065c0-13.59-11.017-24.606-24.606-24.606z" fill="#c7c5cb"/><circle cx="200.972" cy="30.219" fill="#a19dae" r="8.347"/><g><path d="m250.952 80.875h-99.96c-4.143 0-7.5-3.358-7.5-7.5s3.357-7.5 7.5-7.5h99.96c4.143 0 7.5 3.358 7.5 7.5s-3.357 7.5-7.5 7.5z" fill="#a19dae"/></g><g><g><g><ellipse cx="115.57" cy="190.471" fill="#ff9db0" rx="31.512" ry="25.094"/></g><g><ellipse cx="286.374" cy="190.471" fill="#ff9db0" rx="31.512" ry="25.094"/></g></g></g><g><path d="m133.935 173.814c-4.143 0-7.5-3.358-7.5-7.5v-12.882c0-4.142 3.357-7.5 7.5-7.5s7.5 3.358 7.5 7.5v12.882c0 4.142-3.358 7.5-7.5 7.5z" fill="#423e4f"/></g><g><path d="m268.009 173.814c-4.143 0-7.5-3.358-7.5-7.5v-12.882c0-4.142 3.357-7.5 7.5-7.5s7.5 3.358 7.5 7.5v12.882c0 4.142-3.357 7.5-7.5 7.5z" fill="#423e4f"/></g><g><path d="m200.972 181.482c-8.94 0-17.443-3.872-23.328-10.624-2.721-3.123-2.396-7.86.727-10.582 3.122-2.722 7.859-2.397 10.582.726 3.035 3.482 7.416 5.479 12.02 5.479s8.985-1.997 12.02-5.479c2.721-3.123 7.458-3.449 10.581-.727 3.123 2.721 3.449 7.458.728 10.582-5.886 6.753-14.389 10.625-23.33 10.625z" fill="#423e4f"/></g><g><path d="m286.374 261.081h-170.804c-4.143 0-7.5-3.358-7.5-7.5s3.357-7.5 7.5-7.5h170.805c4.143 0 7.5 3.358 7.5 7.5s-3.358 7.5-7.501 7.5z" fill="#423e4f"/></g><g><path d="m286.374 303.121h-170.804c-4.143 0-7.5-3.358-7.5-7.5s3.357-7.5 7.5-7.5h170.805c4.143 0 7.5 3.358 7.5 7.5s-3.358 7.5-7.501 7.5z" fill="#423e4f"/></g><circle cx="366.408" cy="377.126" fill="#ff889e" r="119.874"/><path d="m396.408 467c-66.205 0-119.874-53.669-119.874-119.874 0-25.44 7.931-49.024 21.446-68.428-31.093 21.657-51.446 57.663-51.446 98.428 0 66.205 53.669 119.874 119.874 119.874 40.765 0 76.771-20.353 98.428-51.447-19.405 13.516-42.989 21.447-68.428 21.447z" fill="#ff748f"/><path d="m420.344 352.444h-29.254v-29.254c0-9.095-7.373-16.468-16.468-16.468h-16.428c-9.095 0-16.468 7.373-16.468 16.468v29.254h-29.254c-9.095 0-16.468 7.373-16.468 16.468v16.428c0 9.095 7.373 16.468 16.468 16.468h29.254v29.254c0 9.095 7.373 16.468 16.468 16.468h16.428c9.095 0 16.468-7.373 16.468-16.468v-29.254h29.254c9.095 0 16.468-7.373 16.468-16.468v-16.428c-.001-9.095-7.373-16.468-16.468-16.468z" fill="#fff"/><g><path d="m196.733 375.043h-81.163c-4.143 0-7.5-3.358-7.5-7.5s3.357-7.5 7.5-7.5h81.163c4.143 0 7.5 3.358 7.5 7.5s-3.358 7.5-7.5 7.5z" fill="#423e4f"/></g><path d="m72.972 250.079c0-54.293 7.403-104.95 25.923-147.802h-23.857c-8.169 0-14.815 6.646-14.815 14.815v295.027c0 8.169 6.646 14.816 14.815 14.816h57.78c-37.394-48.125-59.846-109.717-59.846-176.856z" fill="#e5e5e5"/></g></svg>