<?xml version="1.0" encoding="UTF-8"?>
<svg width="245px" height="263px" viewBox="0 0 245 263" version="1.1" xmlns="http://www.w3.org/2000/svg" xmlns:xlink="http://www.w3.org/1999/xlink">
    <!-- Generator: Sketch 52.5 (67469) - http://www.bohemiancoding.com/sketch -->
    <title>Combined Shape</title>
    <desc>Created with Sketch.</desc>
    <g id="Page-1" stroke="none" stroke-width="1" fill="none" fill-rule="evenodd">
        <g id="Desktop-HD" transform="translate(-290.000000, -856.000000)" fill="#F9B806" fill-rule="nonzero">
            <path d="M485.612126,991.07631 C514.021465,998.330338 535,1023.75239 535,1054 C535,1089.89851 505.450793,1119 469,1119 C432.990239,1119 403.716065,1090.59847 403.012937,1055.30003 C399.073652,1055.76225 395.064869,1056 391,1056 C335.21924,1056 290,1011.22847 290,956 C290,900.771525 335.21924,856 391,856 C446.78076,856 492,900.771525 492,956 C492,968.341966 489.741782,980.16172 485.612126,991.07631 Z M485.612126,991.07631 C480.304656,989.721103 474.737835,989 469,989 C432.549207,989 403,1018.10149 403,1054 C403,1054.43435 403.004326,1054.86771 403.012937,1055.30003 C441.050811,1050.83674 472.608831,1025.44373 485.612126,991.07631 Z" id="Combined-Shape"></path>
        </g>
    </g>
</svg>