<?xml version="1.0" encoding="iso-8859-1"?>
<!-- Generator: Adobe Illustrator 19.0.0, SVG Export Plug-In . SVG Version: 6.00 Build 0)  -->
<svg version="1.1" id="Capa_1" xmlns="http://www.w3.org/2000/svg" xmlns:xlink="http://www.w3.org/1999/xlink" x="0px" y="0px"
	 viewBox="0 0 512 512" style="enable-background:new 0 0 512 512;" xml:space="preserve">
<rect x="133" y="78.26" style="fill:#FFDB62;" width="339.6" height="368.08"/>
<path style="fill:#9BD8EB;" d="M481.659,512H123.942c-10.082,0-18.255-8.173-18.255-18.254v-29.603
	c0-10.082,8.173-18.255,18.255-18.255h357.717c10.082,0,18.254,8.173,18.254,18.255v29.603C499.913,503.827,491.74,512,481.659,512z
	"/>
<g style="opacity:0.1;">
	<path d="M481.659,445.888H444.49c10.082,0,18.254,8.173,18.254,18.255v29.603c0,10.082-8.173,18.254-18.254,18.254h37.169
		c10.082,0,18.254-8.173,18.254-18.254v-29.603C499.913,454.061,491.74,445.888,481.659,445.888z"/>
</g>
<path style="fill:#9BD8EB;" d="M132.998,390.291H95.655c-46.079,0-83.568-37.488-83.568-83.568v-53.078
	c0-46.079,37.488-83.568,83.568-83.568h37.344v39.824H95.655c-24.12,0-43.744,19.623-43.744,43.744v53.078
	c0,24.12,19.623,43.744,43.744,43.744h37.344L132.998,390.291L132.998,390.291z"/>
<g style="opacity:0.05;">
	<path d="M132.998,78.26v58.769c6.659,4.106,14.499,6.479,22.896,6.479c5.665,0,11.074-1.085,16.04-3.05
		c2.272-0.899,4.876-0.339,6.524,1.464c11.415,12.489,27.828,20.33,46.081,20.33c7.607,0,14.891-1.369,21.631-3.861
		c2.03-0.751,4.297-0.369,5.946,1.034c13.655,11.624,31.345,18.65,50.683,18.65s37.028-7.025,50.683-18.65
		c1.648-1.403,3.915-1.785,5.946-1.034c6.74,2.493,14.024,3.861,21.631,3.861c15.903,0,30.396-5.964,41.414-15.759
		c1.467-1.304,3.78-0.273,3.78,1.69v298.153h46.348V78.26H132.998z"/>
</g>
<path style="fill:#F7D9A4;" d="M449.706,34.566c-7.147,0-13.887,1.727-19.843,4.77c-11.441-14.326-29.044-23.514-48.802-23.514
	c-8.863,0-17.289,1.858-24.926,5.188C342.156,7.983,323.415,0,302.8,0c-20.615,0-39.355,7.983-53.333,21.011
	c-7.637-3.33-16.063-5.188-24.926-5.188c-19.759,0-37.362,9.188-48.802,23.514c-5.956-3.043-12.696-4.77-19.843-4.77
	c-24.131,0-43.693,19.562-43.693,43.693s19.562,43.693,43.693,43.693c7.147,0,13.887-1.727,19.843-4.77
	c11.441,14.326,29.044,23.514,48.802,23.514c8.863,0,17.289-1.858,24.926-5.188c13.978,13.027,32.719,21.01,53.333,21.01
	c20.615,0,39.355-7.983,53.333-21.01c7.637,3.33,16.063,5.188,24.926,5.188c19.759,0,37.362-9.188,48.802-23.514
	c5.956,3.043,12.696,4.77,19.843,4.77c24.131,0,43.693-19.562,43.693-43.693S473.837,34.566,449.706,34.566z"/>
<g style="opacity:0.4;">
	<path style="fill:#FFFFFF;" d="M452.744,34.67c-7.291-0.496-14.224,0.81-20.416,3.502c-1.466,0.637-3.17,0.267-4.221-0.938
		c-11.445-13.116-28.272-21.411-47.047-21.411c-8.082,0-15.8,1.545-22.888,4.342c-1.28,0.505-2.724,0.198-3.758-0.711
		C340.636,7.35,322.58,0,302.8,0s-37.836,7.35-51.613,19.454c-1.034,0.908-2.478,1.216-3.758,0.711
		c-7.088-2.797-14.806-4.342-22.888-4.342c-18.774,0-35.602,8.296-47.047,21.411c-1.051,1.205-2.755,1.575-4.221,0.938
		c-6.193-2.692-13.125-3.998-20.416-3.502c-22.146,1.508-39.834,19.807-40.626,41.99c-0.887,24.86,19.003,45.293,43.665,45.293
		c6.175,0,12.046-1.289,17.369-3.602c1.47-0.638,3.177-0.272,4.23,0.936c11.445,13.115,28.272,21.41,47.046,21.41
		c8.082,0,15.8-1.545,22.888-4.342c1.28-0.505,2.724-0.198,3.758,0.711c13.777,12.104,31.833,19.454,51.613,19.454
		s37.835-7.35,51.613-19.454c1.034-0.908,2.478-1.216,3.758-0.711c7.088,2.797,14.806,4.342,22.888,4.342
		c18.774,0,35.601-8.295,47.046-21.41c1.054-1.207,2.761-1.574,4.23-0.936c5.324,2.313,11.195,3.602,17.369,3.602
		c24.662,0,44.552-20.432,43.665-45.293C492.578,54.477,474.89,36.178,452.744,34.67z"/>
</g>
<g style="opacity:0.1;">
	<path d="M201.365,262.298L201.365,262.298c-14.966,0-27.098,12.132-27.098,27.098v99.5c0,14.966,12.132,27.098,27.098,27.098l0,0
		c14.965,0,27.097-12.132,27.097-27.098v-99.5C228.462,274.43,216.331,262.298,201.365,262.298z"/>
	<path d="M302.8,262.298L302.8,262.298c-14.966,0-27.098,12.132-27.098,27.098v99.5c0,14.966,12.132,27.098,27.098,27.098l0,0
		c14.965,0,27.098-12.132,27.098-27.098v-99.5C329.898,274.43,317.766,262.298,302.8,262.298z"/>
	<path d="M404.235,262.298L404.235,262.298c-14.966,0-27.098,12.132-27.098,27.098v99.5c0,14.966,12.132,27.098,27.098,27.098l0,0
		c14.966,0,27.098-12.132,27.098-27.098v-99.5C431.333,274.43,419.201,262.298,404.235,262.298z"/>
</g>
<g style="opacity:0.1;">
	<path d="M98,390.291h34.998v-39.824H98V390.291z M98,170.078v39.824h34.998v-39.824H98z"/>
</g>
<g style="opacity:0.4;">
	<ellipse style="fill:#F98F9D;" cx="365.07" cy="229.04" rx="27.76" ry="16.636"/>
	<ellipse style="fill:#F98F9D;" cx="240.53" cy="229.04" rx="27.76" ry="16.636"/>
</g>
<g>
	<path style="fill:#3E4B58;" d="M234.625,204.869c-4.142,0-7.5-3.358-7.5-7.5v-11.507c0-4.142,3.358-7.5,7.5-7.5s7.5,3.358,7.5,7.5
		v11.507C242.125,201.511,238.767,204.869,234.625,204.869z"/>
	<path style="fill:#3E4B58;" d="M369.559,204.869c-4.142,0-7.5-3.358-7.5-7.5v-11.507c0-4.142,3.358-7.5,7.5-7.5s7.5,3.358,7.5,7.5
		v11.507C377.059,201.511,373.701,204.869,369.559,204.869z"/>
	<path style="fill:#3E4B58;" d="M322.223,206.173c0,10.962-9.081,19.803-20.131,19.411c-10.525-0.374-18.715-9.344-18.715-19.876
		v-13.662c0-2.925,2.371-5.296,5.296-5.296h28.254c2.925,0,5.296,2.371,5.296,5.296L322.223,206.173L322.223,206.173z"/>
</g>
<g style="opacity:0.5;">
	<circle style="fill:#FFFFFF;" cx="441.67" cy="215.75" r="7.579"/>
	<circle style="fill:#FFFFFF;" cx="163.96" cy="245.68" r="7.579"/>
	<circle style="fill:#FFFFFF;" cx="174.27" cy="159.09" r="7.579"/>
</g>
<g style="opacity:0.1;">
	<circle cx="392.83" cy="68.7" r="7.579"/>
	<circle cx="208.11" cy="93.17" r="7.579"/>
	<circle cx="310.38" cy="112.7" r="7.579"/>
	<circle cx="243.86" cy="50.26" r="7.579"/>
</g>
<g>
</g>
<g>
</g>
<g>
</g>
<g>
</g>
<g>
</g>
<g>
</g>
<g>
</g>
<g>
</g>
<g>
</g>
<g>
</g>
<g>
</g>
<g>
</g>
<g>
</g>
<g>
</g>
<g>
</g>
</svg>
