<?xml version="1.0" encoding="iso-8859-1"?>
<!-- Generator: Adobe Illustrator 19.0.0, SVG Export Plug-In . SVG Version: 6.00 Build 0)  -->
<svg version="1.1" id="Capa_1" xmlns="http://www.w3.org/2000/svg" xmlns:xlink="http://www.w3.org/1999/xlink" x="0px" y="0px"
	 viewBox="0 0 512 512" style="enable-background:new 0 0 512 512;" xml:space="preserve">
<path style="fill:#80CBDE;" d="M500.853,176.728H11.145V463.56c0,26.752,21.687,48.44,48.439,48.44h392.83
	c26.752,0,48.44-21.687,48.44-48.44L500.853,176.728L500.853,176.728z"/>
<path style="fill:#FFFFFF;" d="M59.584,482c-10.168,0-18.439-8.272-18.439-18.44V176.728h429.709V463.56
	c0,10.168-8.271,18.44-18.439,18.44H59.584z"/>
<path style="fill:#E8618C;" d="M450.922,64.022H61.076c-27.576,0-49.931,22.355-49.931,49.931v62.775h489.709v-62.775
	C500.853,86.377,478.498,64.022,450.922,64.022z"/>
<path style="opacity:0.1;enable-background:new    ;" d="M117.675,122.505c0,12.081,9.794,21.874,21.875,21.874h19.373
	c12.081,0,21.874-9.794,21.874-21.874V64.022h-63.122V122.505z M355.441,64.022v58.483c0,12.081,9.794,21.874,21.875,21.874h19.373
	c12.081,0,21.875-9.794,21.875-21.874V64.022H355.441z"/>
<g>
	<path style="fill:#4A5058;" d="M146.803,128.044h-19.374c-12.081,0-21.874-9.794-21.874-21.874V21.875
		C105.555,9.793,115.348,0,127.429,0h19.374c12.081,0,21.874,9.793,21.874,21.875v84.295
		C168.677,118.25,158.884,128.044,146.803,128.044z"/>
	<path style="fill:#4A5058;" d="M365.195,128.044h19.374c12.081,0,21.874-9.794,21.874-21.874V21.875
		C406.443,9.793,396.65,0,384.569,0h-19.374c-12.081,0-21.875,9.793-21.875,21.875v84.295
		C343.321,118.25,353.114,128.044,365.195,128.044z"/>
</g>
<path style="fill:#BD9D7D;" d="M359.537,448.567H152.462c-9.712,0-17.586-7.873-17.586-17.585V318.993h242.248v111.988
	C377.123,440.693,369.25,448.567,359.537,448.567z"/>
<rect x="134.88" y="399.9" style="fill:#F98CAE;" width="242.25" height="15"/>
<path style="opacity:0.1;enable-background:new    ;" d="M376.865,323.089H135.133c-0.087,0-0.172,0.011-0.258,0.013v51.169
	c7.011,2.039,15.155-0.532,19.305-7.719l0,0c6.465-11.197,22.626-11.197,29.091,0l0,0c6.465,11.197,22.627,11.197,29.091,0l0,0
	c6.465-11.197,22.627-11.197,29.091,0l0,0c6.465,11.197,22.626,11.197,29.091,0l0,0c6.465-11.197,22.626-11.197,29.091,0l0,0
	c6.465,11.197,22.626,11.197,29.091,0l0,0c6.31-10.929,21.854-11.185,28.606-0.779v65.208c0,9.712-7.873,17.585-17.585,17.585h19.79
	c9.712,0,17.586-7.873,17.586-17.585V323.102C377.036,323.1,376.952,323.089,376.865,323.089z"/>
<path style="fill:#F98CAE;" d="M386.91,349.103c0,4.012-1.959,7.814-5.313,10.015c-7.645,5.017-18.701,3.129-23.778-5.664l0,0
	c-6.465-11.197-22.626-11.197-29.091,0l0,0c-6.465,11.197-22.626,11.197-29.091,0l0,0c-6.465-11.197-22.627-11.197-29.091,0l0,0
	c-6.465,11.197-22.626,11.197-29.091,0l0,0c-6.465-11.197-22.626-11.197-29.091,0l0,0c-6.465,11.197-22.626,11.197-29.091,0l0,0
	c-6.465-11.197-22.627-11.197-29.091,0l0,0c-5.077,8.793-16.133,10.681-23.778,5.664c-3.354-2.202-5.313-6.003-5.313-10.015v-29.067
	c0-5.548,4.497-10.045,10.045-10.045h241.731c5.548,0,10.045,4.497,10.045,10.045v29.067H386.91z"/>
<path style="opacity:0.1;enable-background:new    ;" d="M376.865,309.991h-13.888c5.548,0,10.045,4.497,10.045,10.045v29.067
	c0,4.012-1.959,7.814-5.313,10.015c-0.733,0.481-1.498,0.897-2.286,1.252c5.179,2.327,11.354,1.912,16.174-1.252
	c3.355-2.202,5.313-6.003,5.313-10.015v-29.067C386.91,314.488,382.412,309.991,376.865,309.991z"/>
<path style="fill:#FFE584;" d="M212.44,263.975h-10.144c-3.808,0-6.895,3.087-6.895,6.895v39.122h23.933V270.87
	C219.335,267.061,216.248,263.975,212.44,263.975z"/>
<path style="fill:#E8618C;" d="M225.789,244.917c0-8.305-4.831-24.758-15.015-34.818c-3.385-3.344-9.093-2.196-10.96,2.181
	c-5.882,13.794-10.034,22.203-10.755,30.191c-0.972,10.778,7.023,20.593,17.842,20.861
	C217.288,263.589,225.789,255.245,225.789,244.917z"/>
<path style="fill:#FFE584;" d="M309.67,263.975h-10.144c-3.808,0-6.895,3.087-6.895,6.895v39.122h23.933V270.87
	C316.565,267.061,313.478,263.975,309.67,263.975z"/>
<path style="fill:#E8618C;" d="M323.019,244.917c0-8.305-4.831-24.758-15.015-34.818c-3.385-3.344-9.093-2.196-10.96,2.181
	c-5.882,13.794-10.034,22.203-10.755,30.191c-0.972,10.778,7.023,20.593,17.842,20.861
	C314.518,263.589,323.019,255.245,323.019,244.917z"/>
<path style="opacity:0.1;enable-background:new    ;" d="M450.922,64.022h-40.426c27.576,0,49.931,22.355,49.931,49.931V463.56
	c0,26.752-21.687,48.44-48.44,48.44h40.426c26.753,0,48.44-21.687,48.44-48.44V113.953
	C500.853,86.377,478.498,64.022,450.922,64.022z"/>
<g>
</g>
<g>
</g>
<g>
</g>
<g>
</g>
<g>
</g>
<g>
</g>
<g>
</g>
<g>
</g>
<g>
</g>
<g>
</g>
<g>
</g>
<g>
</g>
<g>
</g>
<g>
</g>
<g>
</g>
</svg>
