<svg id="Capa_1" enable-background="new 0 0 497 497" height="512" viewBox="0 0 497 497" width="512" xmlns="http://www.w3.org/2000/svg"><g><g><g><g><path d="m470.43 189.314c27.347-48.196-2.428-107.7-59.725-119.47-12.75-74.753-117.855-95.742-162.425-32.133-9.973-14.225-22.91-24.191-37.133-30.291-49.958-21.427-115.835 4.924-125.323 62.793-57.536 11.685-86.488 71.81-59.358 119.541-35.361 32.399-35.256 85.862.121 118.176-27.174 48.043 2.317 107.721 59.93 119.463 10.52 60.761 82.828 86.279 133.097 58.235 11.072-6.177 21.081-14.939 29.119-26.51 44.696 64.27 149.968 42.051 162.209-32.15 57.148-11.885 86.876-71.284 59.528-119.486 35.423-32.392 35.337-85.788-.04-118.168z" fill="#ffdbe0"/><path d="m171.367 415.465c8.617-11.59 7.671-28.049-2.846-38.566-5.307-5.307-11.826-8.657-18.665-10.066-15.553-43.399-22.876-89.324-21.517-136.299 15.815-3.053 30.918-10.702 43.166-22.949 34.062-34.062 20.371-89.488-16.21-105.632 13.93-34.332 32.84-66.15 55.853-94.533-49.959-21.427-115.836 4.924-125.324 62.793-57.536 11.685-86.488 71.81-59.357 119.541-35.362 32.399-35.257 85.862.12 118.176-27.174 48.043 2.317 107.721 59.93 119.463 10.521 60.761 82.828 86.279 133.097 58.235-18.631-21.375-34.842-44.911-48.247-70.163z" fill="#ffb5c0"/></g></g></g><g><g fill="#ff8e9e"><path d="m176.809 212.887c14.041-14.041 21.773-32.709 21.773-52.566s-7.732-38.526-21.773-52.567c-11.517-11.517-26.829-17.859-43.115-17.859s-31.598 6.342-43.113 17.858c-9.497 9.496-14.727 22.122-14.727 35.552s5.229 26.056 14.726 35.552c2.929 2.929 7.678 2.929 10.606 0 2.93-2.929 2.93-7.678.001-10.607-6.663-6.664-10.333-15.523-10.333-24.946 0-9.424 3.669-18.283 10.333-24.945 8.683-8.683 20.228-13.465 32.507-13.465 12.28 0 23.825 4.782 32.508 13.465 11.208 11.208 17.381 26.11 17.381 41.961 0 15.85-6.173 30.752-17.381 41.96-14.364 14.364-33.462 22.275-53.776 22.275-20.313 0-39.411-7.911-53.775-22.275-2.93-2.929-7.678-2.929-10.607 0s-2.929 7.678 0 10.606c17.198 17.197 40.063 26.668 64.383 26.668 24.319.002 47.183-9.47 64.382-26.667z"/><path d="m125.052 308.431c0-9.911-3.859-19.228-10.867-26.235-8.406-8.406-19.582-13.035-31.469-13.035s-23.063 4.629-31.469 13.035c-2.93 2.929-2.93 7.678-.001 10.607 2.93 2.928 7.679 2.929 10.606 0 5.573-5.573 12.982-8.642 20.863-8.642 7.88 0 15.289 3.069 20.862 8.642 4.175 4.174 6.474 9.725 6.474 15.628s-2.3 11.455-6.475 15.63c-3.057 3.057-7.12 4.74-11.442 4.74s-8.386-1.684-11.443-4.741c-2.928-2.929-7.677-2.928-10.606 0-2.929 2.929-2.929 7.678.001 10.607 5.89 5.89 13.721 9.133 22.049 9.133 8.329 0 16.16-3.244 22.05-9.134 7.007-7.008 10.867-16.325 10.867-26.235z"/><path d="m142.355 358.561c-11.888 0-23.063 4.629-31.47 13.035-2.929 2.929-2.929 7.678 0 10.606 2.93 2.929 7.678 2.929 10.607 0 5.572-5.573 12.981-8.642 20.862-8.642 7.882 0 15.291 3.069 20.862 8.642 4.175 4.174 6.474 9.725 6.474 15.629s-2.299 11.455-6.473 15.629c-3.057 3.057-7.121 4.74-11.443 4.74s-8.386-1.683-11.443-4.74c-2.932-2.93-7.681-2.928-10.606.001-2.929 2.929-2.929 7.678.001 10.606 5.891 5.889 13.721 9.132 22.049 9.132 8.329 0 16.159-3.243 22.05-9.133 7.007-7.009 10.866-16.326 10.866-26.236 0-9.911-3.859-19.228-10.866-26.235-8.405-8.405-19.581-13.034-31.47-13.034z"/></g><g fill="#ffb5c0"><path d="m384.587 240.817c24.312 0 47.171-9.411 64.366-26.5 2.938-2.92 2.952-7.668.032-10.606s-7.669-2.953-10.606-.033c-14.365 14.277-33.47 22.14-53.792 22.14-20.323 0-39.428-7.863-53.793-22.14-11.197-11.127-17.363-25.919-17.363-41.651 0-15.731 6.166-30.523 17.363-41.65 8.685-8.631 20.235-13.385 32.524-13.385 12.288 0 23.839 4.753 32.524 13.386.489.486.968.99 1.426 1.501 4.456 4.973 6.812 11.004 6.812 17.442 0 13.638-10.921 28.358-28.563 28.358h-6.221c-4.143 0-7.5 3.358-7.5 7.5s3.357 7.5 7.5 7.5h6.221c24.021 0 43.563-19.45 43.563-43.358 0-10.191-3.68-19.685-10.637-27.449-.65-.726-1.332-1.444-2.027-2.135-11.515-11.443-26.82-17.745-43.098-17.745s-31.584 6.302-43.099 17.745c-14.051 13.964-21.789 32.535-21.789 52.29 0 19.757 7.738 38.328 21.789 52.291 17.196 17.088 40.055 26.499 64.368 26.499z"/><path d="m453.749 281.097c-8.404-8.352-19.574-12.951-31.453-12.951-11.878 0-23.048 4.6-31.451 12.951-7.02 6.975-10.885 16.252-10.885 26.123 0 9.87 3.865 19.147 10.884 26.123 1.463 1.454 3.375 2.18 5.287 2.18 1.927 0 3.854-.738 5.319-2.213 2.92-2.938 2.905-7.687-.032-10.607-4.165-4.139-6.458-9.637-6.458-15.483s2.293-11.345 6.458-15.483c5.574-5.54 12.989-8.591 20.878-8.591 7.89 0 15.305 3.051 20.879 8.591 2.939 2.919 7.688 2.906 10.606-.033 2.92-2.938 2.906-7.687-.032-10.607z"/><path d="m343.405 358.93c-8.32 0-16.146 3.223-22.033 9.074-2.938 2.92-2.952 7.668-.032 10.606 2.921 2.938 7.67 2.952 10.606.032 3.058-3.039 7.128-4.713 11.459-4.713s8.401 1.674 11.459 4.713c4.165 4.138 6.458 9.637 6.458 15.483s-2.293 11.344-6.458 15.483c-2.938 2.92-2.952 7.669-.032 10.606 1.466 1.475 3.393 2.213 5.319 2.213 1.911 0 3.824-.727 5.287-2.18 7.019-6.976 10.884-16.252 10.884-26.123s-3.865-19.147-10.884-26.122c-5.887-5.849-13.712-9.072-22.033-9.072z"/></g></g><g><g><g><ellipse cx="168.943" cy="284.063" fill="#ff8e9e" rx="29.355" ry="23.377"/></g><g><ellipse cx="328.057" cy="284.063" fill="#ff8e9e" rx="29.355" ry="23.377"/></g></g></g><g fill="#313d40"><path d="m186.051 242.06c-4.143 0-7.5 3.358-7.5 7.5v12c0 4.142 3.357 7.5 7.5 7.5s7.5-3.358 7.5-7.5v-12c0-4.142-3.358-7.5-7.5-7.5z"/><path d="m310.948 242.06c-4.143 0-7.5 3.358-7.5 7.5v12c0 4.142 3.357 7.5 7.5 7.5s7.5-3.358 7.5-7.5v-12c0-4.142-3.357-7.5-7.5-7.5z"/><path d="m269.891 255.548c-3.123-2.721-7.86-2.396-10.581.727-2.729 3.132-6.669 4.928-10.81 4.928s-8.08-1.796-10.81-4.928c-2.721-3.123-7.459-3.448-10.581-.727-3.123 2.721-3.449 7.458-.728 10.582 5.578 6.402 13.641 10.074 22.118 10.074s16.54-3.672 22.118-10.074c2.723-3.123 2.397-7.86-.726-10.582z"/></g></g></svg>