<?xml version="1.0" encoding="iso-8859-1"?>
<!-- Generator: Adobe Illustrator 19.0.0, SVG Export Plug-In . SVG Version: 6.00 Build 0)  -->
<svg version="1.1" id="Capa_1" xmlns="http://www.w3.org/2000/svg" xmlns:xlink="http://www.w3.org/1999/xlink" x="0px" y="0px"
	 viewBox="0 0 511.982 511.982" style="enable-background:new 0 0 511.982 511.982;" xml:space="preserve">
<path style="fill:#4A5058;" d="M256.582,511.982c-0.934,0-1.884-0.176-2.804-0.547c-3.841-1.55-5.698-5.92-4.148-9.762
	l95.196-235.905c1.549-3.84,5.915-5.701,9.762-4.148c3.841,1.55,5.698,5.921,4.148,9.762L263.54,507.287
	C262.361,510.208,259.55,511.982,256.582,511.982z"/>
<path style="fill:#80CBDE;" d="M355.878,245.338l-34.741,31.618c-3.82,3.477-1.981,9.826,3.106,10.723l46.881,8.266
	c5.087,0.897,8.986-4.44,6.586-9.014L355.878,245.338z"/>
<path style="opacity:0.1;enable-background:new    ;" d="M355.878,245.338l-20.925,19.044c5.431,1.76,11.045,3.174,16.828,4.193
	c5.783,1.02,11.541,1.611,17.247,1.815L355.878,245.338z"/>
<circle style="fill:#80CBDE;" cx="375.548" cy="133.77" r="123.96"/>
<path style="opacity:0.1;enable-background:new    ;" d="M465.973,48.966c11.705,23.092,16.304,50.031,11.462,77.49
	C465.547,193.88,401.252,238.9,333.828,227.011c-27.459-4.842-51.2-18.377-68.897-37.275c17.036,33.61,49.128,59.07,89.092,66.117
	c67.424,11.889,131.719-33.132,143.607-100.555C504.678,115.334,491.729,76.47,465.973,48.966z"/>
<path style="fill:#4A5058;" d="M256.585,511.98c-4.143,0-7.5-3.358-7.5-7.5V299.167c0-4.142,3.357-7.5,7.5-7.5
	c4.143,0,7.5,3.358,7.5,7.5V504.48C264.085,508.622,260.727,511.98,256.585,511.98z"/>
<path style="fill:#E8618C;" d="M256.585,275.571l-28.723,37.171c-3.158,4.087-0.245,10.02,4.921,10.02h47.605
	c5.165,0,8.079-5.933,4.92-10.02L256.585,275.571z"/>
<path style="opacity:0.1;enable-background:new    ;" d="M256.585,275.571l-17.3,22.388c5.654,0.79,11.428,1.208,17.3,1.208
	c5.872,0,11.646-0.418,17.3-1.208L256.585,275.571z"/>
<circle style="fill:#E8618C;" cx="256.588" cy="162.29" r="123.96"/>
<path style="opacity:0.1;enable-background:new    ;" d="M330.908,63.065c15.537,20.709,24.744,46.44,24.744,74.323
	c0,68.464-55.501,123.964-123.965,123.964c-27.882,0-53.614-9.207-74.323-24.745c22.614,30.141,58.639,49.642,99.22,49.642
	c68.464,0,123.964-55.501,123.964-123.964C380.549,121.704,361.048,85.679,330.908,63.065z"/>
<path style="fill:#4A5058;" d="M256.586,511.982c-2.995,0-5.824-1.806-6.983-4.763l-96.407-245.712
	c-1.514-3.856,0.386-8.208,4.242-9.721c3.856-1.512,8.209,0.387,9.721,4.243l96.407,245.712c1.514,3.856-0.386,8.208-4.242,9.721
	C258.424,511.815,257.498,511.982,256.586,511.982z"/>
<path style="fill:#FFE584;" d="M156.08,235.53l-21.832,41.593c-2.401,4.574,1.499,9.911,6.586,9.014l46.881-8.267
	c5.087-0.897,6.926-7.246,3.106-10.723L156.08,235.53z"/>
<path style="opacity:0.1;enable-background:new    ;" d="M156.08,235.53l-13.15,25.052c5.706-0.204,11.464-0.795,17.247-1.815
	c5.783-1.02,11.396-2.434,16.827-4.193L156.08,235.53z"/>
<circle style="fill:#FFE584;" cx="136.408" cy="123.96" r="123.96"/>
<g>
	<path style="fill:#4A5058;" d="M72.075,134.977c-3.571,0-6.735-2.56-7.377-6.199l-1.844-10.456
		c-0.72-4.079,2.004-7.969,6.083-8.688c4.075-0.717,7.969,2.004,8.688,6.084l1.844,10.456c0.72,4.079-2.004,7.969-6.083,8.688
		C72.946,134.939,72.507,134.977,72.075,134.977z"/>
	<path style="fill:#4A5058;" d="M198.044,112.765c-3.571,0-6.735-2.56-7.377-6.199l-1.844-10.455
		c-0.72-4.08,2.004-7.969,6.083-8.689c4.075-0.717,7.969,2.004,8.689,6.084l1.844,10.455c0.72,4.08-2.004,7.969-6.083,8.689
		C198.916,112.727,198.477,112.765,198.044,112.765z"/>
	<path style="fill:#4A5058;" d="M153.085,121.441c1.756,9.96-5.079,19.448-15.181,20.861c-9.623,1.346-18.501-5.492-20.188-15.061
		l-2.189-12.413c-0.469-2.658,1.306-5.192,3.963-5.66l25.672-4.526c2.658-0.469,5.192,1.306,5.66,3.963L153.085,121.441z"/>
</g>
<path style="opacity:0.1;enable-background:new    ;" d="M192.372,13.347c18.897,17.696,32.433,41.438,37.274,68.897
	c11.889,67.424-33.131,131.719-100.555,143.607c-27.459,4.842-54.398,0.243-77.49-11.463
	c27.504,25.756,66.368,38.705,106.333,31.658c67.424-11.889,112.443-76.184,100.555-143.607
	C251.442,62.474,225.982,30.383,192.372,13.347z"/>
<g>
</g>
<g>
</g>
<g>
</g>
<g>
</g>
<g>
</g>
<g>
</g>
<g>
</g>
<g>
</g>
<g>
</g>
<g>
</g>
<g>
</g>
<g>
</g>
<g>
</g>
<g>
</g>
<g>
</g>
</svg>
