<svg height="512pt" viewBox="0 -4 512.00091 512" width="512pt" xmlns="http://www.w3.org/2000/svg"><path d="m497.996094 236.308594c-10.074219-18.601563-14.867188-39.609375-13.863282-60.738282 2.765626-58.210937-38.085937-109.4375-95.453124-119.695312-20.824219-3.722656-40.238282-13.070312-56.132813-27.03125-43.785156-38.457031-109.308594-38.457031-153.09375 0-15.894531 13.960938-35.304687 23.308594-56.132813 27.03125-57.367187 10.257812-98.21875 61.484375-95.449218 119.695312 1.003906 21.132813-3.792969 42.136719-13.867188 60.738282-27.75 51.246094-13.167968 115.125 34.066406 149.253906 17.148438 12.390625 30.582032 29.238281 38.847657 48.710938 22.761719 53.648437 81.796875 82.074218 137.929687 66.425781 20.378906-5.683594 41.925782-5.683594 62.304688 0 56.132812 15.648437 115.167968-12.777344 137.929687-66.425781 8.265625-19.472657 21.695313-36.320313 38.847657-48.710938 47.234374-34.128906 61.816406-98.007812 34.066406-149.253906zm0 0" fill="#eaeaea"/><path d="m386.753906 252.488281c0 72.214844-58.539062 130.753907-130.753906 130.753907-72.210938 0-130.75-58.539063-130.75-130.753907 0-72.210937 58.539062-130.75 130.75-130.75 72.214844 0 130.753906 58.539063 130.753906 130.75zm0 0" fill="#fec37c"/><path d="m286.90625 362.636719c-72.210938 0-130.75-58.539063-130.75-130.75 0-38.726563 16.839844-73.515625 43.59375-97.457031-44.058594 21.027343-74.5 65.988281-74.5 118.058593 0 72.214844 58.539062 130.753907 130.75 130.753907 33.484375 0 64.023438-12.59375 87.15625-33.292969-17.039062 8.132812-36.109375 12.6875-56.25 12.6875zm0 0" fill="#fda956"/><g fill="#57565b"><path d="m187.039062 263.125c-4.265624 0-7.726562-3.457031-7.726562-7.726562v-12.480469c0-4.265625 3.460938-7.726563 7.726562-7.726563 4.269532 0 7.726563 3.460938 7.726563 7.726563v12.480469c0 4.269531-3.457031 7.726562-7.726563 7.726562zm0 0"/><path d="m324.964844 263.125c-4.269532 0-7.726563-3.457031-7.726563-7.726562v-12.480469c0-4.265625 3.457031-7.726563 7.726563-7.726563 4.265625 0 7.726562 3.460938 7.726562 7.726563v12.480469c0 4.269531-3.460937 7.726562-7.726562 7.726562zm0 0"/><path d="m256 269.789062c-8.863281 0-17.1875-3.707031-22.835938-10.171874-2.808593-3.214844-2.480468-8.09375.730469-10.902344 3.214844-2.808594 8.09375-2.484375 10.902344.730468 2.714844 3.105469 6.800781 4.890626 11.203125 4.890626 4.40625 0 8.488281-1.78125 11.203125-4.890626 2.808594-3.214843 7.6875-3.542968 10.902344-.734374 3.214843 2.808593 3.542969 7.691406.734375 10.902343-5.648438 6.46875-13.972656 10.175781-22.839844 10.175781zm0 0"/></g></svg>