<?xml version="1.0" encoding="iso-8859-1"?>
<!-- Generator: Adobe Illustrator 19.0.0, SVG Export Plug-In . SVG Version: 6.00 Build 0)  -->
<svg version="1.1" id="Capa_1" xmlns="http://www.w3.org/2000/svg" xmlns:xlink="http://www.w3.org/1999/xlink" x="0px" y="0px"
	 viewBox="0 0 512.001 512.001" style="enable-background:new 0 0 512.001 512.001;" xml:space="preserve">
<g>
	<polygon style="fill:#A3A3A3;" points="350.755,231.664 339.355,196.614 172.645,196.614 161.245,231.664 256,251.509 	"/>
	<polygon style="fill:#A3A3A3;" points="256,296.264 161.25,322.928 161.245,322.924 125.071,406.405 161.249,511.3 199.703,511.3 
		256,478.782 312.298,511.3 350.752,511.3 350.752,322.929 	"/>
</g>
<g>
	<polygon style="fill:#BDBDBD;" points="161.245,231.664 133.365,286.299 161.245,322.924 350.755,322.924 350.755,231.664 	"/>
	<path style="fill:#BDBDBD;" d="M312.298,425.212v86.087H199.703v-86.087c0-15.671,7.793-30.315,20.8-39.074l27.524-18.535
		c4.815-3.241,11.129-3.241,15.944,0l27.524,18.535C304.504,394.898,312.298,409.541,312.298,425.212z"/>
</g>
<path style="fill:#DEDEDE;" d="M125.071,511.3h36.178V19.845c0-10.574-8.57-19.144-19.144-19.144H35.983
	c-10.574,0-19.144,8.57-19.144,19.144V511.3h36.178l36.024-28.486L125.071,511.3z"/>
<path style="fill:#BDBDBD;" d="M125.071,442.572V511.3H53.018v-68.727c0-10.028,4.983-19.395,13.311-24.996l17.612-11.864
	c3.084-2.077,7.123-2.077,10.206,0l17.612,11.864C120.077,423.177,125.071,432.545,125.071,442.572z"/>
<g>
	<path style="fill:#A3A3A3;" d="M58.186,76.247L58.186,76.247c-7.437,0-13.467,6.029-13.467,13.467v106.901l13.467,13.112
		l13.467-13.112V89.714C71.653,82.277,65.624,76.247,58.186,76.247z"/>
	<path style="fill:#A3A3A3;" d="M119.898,76.247L119.898,76.247c-7.437,0-13.467,6.029-13.467,13.467v106.901l13.467,13.112
		l13.467-13.112V89.714C133.365,82.277,127.335,76.247,119.898,76.247z"/>
	<path style="fill:#A3A3A3;" d="M58.186,248.275L58.186,248.275c-7.437,0-13.467,6.029-13.467,13.467v61.182l13.467,13.112
		l13.467-13.112v-61.182C71.653,254.305,65.624,248.275,58.186,248.275z"/>
	<path style="fill:#A3A3A3;" d="M119.898,248.275L119.898,248.275c-7.437,0-13.467,6.029-13.467,13.467v61.182l13.467,13.112
		l13.467-13.112v-61.182C133.365,254.305,127.335,248.275,119.898,248.275z"/>
</g>
<path style="fill:#BDBDBD;" d="M172.645,196.614H5.439c-4.219,0-6.826,4.6-4.66,8.219l16.059,26.832h144.406l16.059-26.832
	C179.471,201.213,176.864,196.614,172.645,196.614z"/>
<path style="fill:#DEDEDE;" d="M386.93,511.3h-36.178V19.845c0-10.574,8.57-19.144,19.144-19.144h106.122
	c10.574,0,19.144,8.57,19.144,19.144V511.3h-36.178l-36.024-28.486L386.93,511.3z"/>
<path style="fill:#BDBDBD;" d="M386.93,442.572V511.3h72.053v-68.727c0-10.028-4.983-19.395-13.311-24.996l-17.612-11.864
	c-3.084-2.077-7.123-2.077-10.206,0l-17.612,11.864C391.924,423.177,386.93,432.545,386.93,442.572z"/>
<g>
	<path style="fill:#A3A3A3;" d="M453.815,76.247L453.815,76.247c7.437,0,13.467,6.029,13.467,13.467v106.901l-13.467,13.112
		l-13.467-13.112V89.714C440.348,82.277,446.377,76.247,453.815,76.247z"/>
	<path style="fill:#A3A3A3;" d="M392.103,76.247L392.103,76.247c7.437,0,13.466,6.029,13.466,13.467v106.901l-13.466,13.112
		l-13.467-13.112V89.714C378.636,82.277,384.666,76.247,392.103,76.247z"/>
	<path style="fill:#A3A3A3;" d="M453.815,248.275L453.815,248.275c7.437,0,13.467,6.029,13.467,13.467v61.182l-13.467,13.112
		l-13.467-13.112v-61.182C440.348,254.305,446.377,248.275,453.815,248.275z"/>
	<path style="fill:#A3A3A3;" d="M392.103,248.275L392.103,248.275c7.437,0,13.466,6.029,13.466,13.467v61.182l-13.466,13.112
		l-13.467-13.112v-61.182C378.636,254.305,384.666,248.275,392.103,248.275z"/>
</g>
<path style="fill:#BDBDBD;" d="M339.355,196.614h167.207c4.219,0,6.826,4.6,4.66,8.219l-16.06,26.832H350.755l-16.059-26.832
	C332.529,201.213,335.137,196.614,339.355,196.614z"/>
<g>
	<path style="fill:#3B484A;" d="M199.36,279.834c-4.267,0-7.726-3.459-7.726-7.726v-10.251c0-4.267,3.459-7.726,7.726-7.726
		c4.267,0,7.726,3.459,7.726,7.726v10.251C207.086,276.374,203.627,279.834,199.36,279.834z"/>
	<path style="fill:#3B484A;" d="M312.641,279.834c-4.267,0-7.726-3.459-7.726-7.726v-10.251c0-4.267,3.459-7.726,7.726-7.726
		c4.267,0,7.726,3.459,7.726,7.726v10.251C320.367,276.374,316.908,279.834,312.641,279.834z"/>
	<path style="fill:#3B484A;" d="M256,285.305c-7.678,0-14.894-3.217-19.797-8.827c-2.808-3.213-2.481-8.094,0.732-10.902
		c3.213-2.807,8.093-2.481,10.902,0.732c1.969,2.252,4.944,3.544,8.162,3.544c3.218,0,6.193-1.292,8.162-3.544
		c2.808-3.213,7.689-3.541,10.902-0.732c3.213,2.808,3.541,7.689,0.732,10.902C270.894,282.088,263.678,285.305,256,285.305z"/>
</g>
<g>
	<path style="fill:#BDBDBD;" d="M172.645,322.924H5.439c-4.219,0-6.826,4.6-4.66,8.219l16.059,26.832h144.406l16.059-26.832
		C179.471,327.523,176.864,322.924,172.645,322.924z"/>
	<path style="fill:#BDBDBD;" d="M339.355,322.924h167.207c4.219,0,6.826,4.6,4.66,8.219l-16.06,26.832H350.755l-16.059-26.832
		C332.529,327.523,335.137,322.924,339.355,322.924z"/>
</g>
<g>
</g>
<g>
</g>
<g>
</g>
<g>
</g>
<g>
</g>
<g>
</g>
<g>
</g>
<g>
</g>
<g>
</g>
<g>
</g>
<g>
</g>
<g>
</g>
<g>
</g>
<g>
</g>
<g>
</g>
</svg>
