<?xml version="1.0" encoding="iso-8859-1"?>
<!-- Generator: Adobe Illustrator 19.0.0, SVG Export Plug-In . SVG Version: 6.00 Build 0)  -->
<svg version="1.1" id="Capa_1" xmlns="http://www.w3.org/2000/svg" xmlns:xlink="http://www.w3.org/1999/xlink" x="0px" y="0px"
	 viewBox="0 0 512 512" style="enable-background:new 0 0 512 512;" xml:space="preserve">
<path style="fill:#E5E5E5;" d="M496.117,370.374H15.883C7.111,370.374,0,377.485,0,386.257v19.113
	c0,8.772,7.111,15.883,15.883,15.883h480.234c8.772,0,15.883-7.111,15.883-15.883v-19.113
	C512,377.485,504.889,370.374,496.117,370.374z"/>
<path style="opacity:0.1;enable-background:new    ;" d="M496.117,370.374h-4.648c0.909,1.862,1.433,3.945,1.433,6.156v16.932
	c0,7.771-6.3,14.07-14.07,14.07H5.003c-1.741,0-3.401-0.331-4.94-0.909c0.641,8.184,7.471,14.63,15.82,14.63h480.234
	c8.772,0,15.883-7.111,15.883-15.883v-19.113C512,377.485,504.889,370.374,496.117,370.374z"/>
<path style="fill:#445258;" d="M473.677,370.374H38.323V120.119c0-16.222,13.151-29.373,29.373-29.373h376.609
	c16.222,0,29.373,13.151,29.373,29.373L473.677,370.374L473.677,370.374z"/>
<path style="fill:#69BFE2;" d="M76.753,317.07V144.05c0-8.214,6.659-14.873,14.873-14.873h328.748
	c8.214,0,14.873,6.659,14.873,14.873v173.02c0,8.214-6.659,14.873-14.873,14.873H91.626
	C83.412,331.943,76.753,325.284,76.753,317.07z"/>
<path style="opacity:0.1;enable-background:new    ;" d="M298.483,370.374h-84.966l4.262,12.218
	c2.762,7.917,10.229,13.221,18.614,13.221h39.213c8.385,0,15.853-5.304,18.614-13.221L298.483,370.374z"/>
<path style="fill:#FFFFFF;" d="M370.125,190.147h-228.25v102.002c0,6.987,5.664,12.652,12.652,12.652h202.946
	c6.987,0,12.652-5.664,12.652-12.652L370.125,190.147L370.125,190.147z"/>
<path style="fill:#E5E5E5;" d="M357.473,156.32H154.527c-6.987,0-12.652,5.664-12.652,12.652v21.176h228.25v-21.176
	C370.125,161.984,364.461,156.32,357.473,156.32z"/>
<g>
	<path style="fill:#445258;" d="M196.039,238.923c-4.143,0-7.5-3.357-7.5-7.5V221.19c0-4.143,3.357-7.5,7.5-7.5s7.5,3.357,7.5,7.5
		v10.232C203.539,235.565,200.182,238.923,196.039,238.923z"/>
	<path style="fill:#445258;" d="M256.032,256.512L256.032,256.512c-9.539,0-17.271-7.733-17.271-17.271v-12.652
		c0-2.545,2.063-4.608,4.608-4.608h25.326c2.545,0,4.608,2.063,4.608,4.608v12.652C273.303,248.78,265.57,256.512,256.032,256.512z"
		/>
	<path style="fill:#445258;" d="M316.024,238.923c-4.143,0-7.5-3.357-7.5-7.5V221.19c0-4.143,3.357-7.5,7.5-7.5s7.5,3.357,7.5,7.5
		v10.232C323.524,235.565,320.167,238.923,316.024,238.923z"/>
</g>
<rect x="38.32" y="352.33" style="opacity:0.1;enable-background:new    ;" width="435.35" height="18.04"/>
<circle style="fill:#D77458;" cx="164.89" cy="172.82" r="7.476"/>
<circle style="fill:#A67875;" cx="189.77" cy="172.82" r="7.476"/>
<circle style="fill:#FFFFFF;" cx="214.65" cy="172.82" r="7.476"/>
<path style="fill:#445258;" d="M407.573,292.857c3.528-2.037,4.737-6.549,2.7-10.077l-15.331-26.555l12.624-2.324
	c5.599-1.031,7.089-8.357,2.339-11.493l-49.207-32.489c-6.016-3.972-13.986,0.629-13.554,7.825l3.533,58.859
	c0.341,5.682,7.431,8.054,11.123,3.721l8.325-9.771l15.331,26.555c2.037,3.528,6.549,4.737,10.077,2.7L407.573,292.857z"/>
<g>
</g>
<g>
</g>
<g>
</g>
<g>
</g>
<g>
</g>
<g>
</g>
<g>
</g>
<g>
</g>
<g>
</g>
<g>
</g>
<g>
</g>
<g>
</g>
<g>
</g>
<g>
</g>
<g>
</g>
</svg>
