<svg id="Capa_1" enable-background="new 0 0 512 512" height="512" viewBox="0 0 512 512" width="512" xmlns="http://www.w3.org/2000/svg"><circle cx="256" cy="256" fill="#ff6c52" r="256"/><path d="m338.414 429.586c-141.385 0-256-114.615-256-256 0-49.582 14.111-95.862 38.514-135.071-72.596 45.181-120.928 125.683-120.928 217.485 0 141.385 114.615 256 256 256 91.802 0 172.303-48.332 217.486-120.929-39.209 24.403-85.489 38.515-135.072 38.515z" fill="#ff583e"/><path d="m426.54 366.524c-17.267 13.07-38.78 20.824-62.106 20.824s-44.84-7.754-62.106-20.824c-26.876-20.344-59.479-31.691-93.186-31.691h-196.754c33.245 102.806 129.736 177.167 243.612 177.167 113.35 0 209.479-73.675 243.15-175.745-26.273 3.623-51.251 14.101-72.61 30.269z" fill="#ff8870"/><path d="m256 512c91.802 0 172.304-48.332 217.486-120.929-39.209 24.403-85.489 38.514-135.071 38.514-80.264 0-151.887-36.948-198.824-94.753h-127.203c33.245 102.807 129.736 177.168 243.612 177.168z" fill="#ff6c52"/><path d="m209.154 233.827c33.707 0 66.31-11.347 93.186-31.691 17.267-13.07 38.78-20.824 62.106-20.824s44.84 7.754 62.106 20.824c24.552 18.584 53.884 29.655 84.47 31.432-11.364-130.877-121.186-233.568-255.01-233.568-133.913 0-243.792 102.826-255.034 233.827z" fill="#ff8870"/><path d="m89.562 233.827c-4.661-19.321-7.148-39.489-7.148-60.242 0-49.582 14.111-95.862 38.514-135.071-66.688 41.506-112.895 112.817-119.975 195.313z" fill="#ff6c52"/><ellipse cx="173.951" cy="123.56" fill="#f2f6fc" rx="30.274" ry="24.109"/><ellipse cx="338.049" cy="123.56" fill="#f2f6fc" rx="30.274" ry="24.109"/><path d="m280.409 105.036c0-15.085-10.928-16.502-24.409-16.502s-24.409 1.417-24.409 16.502 10.928 27.313 24.409 27.313 24.409-12.228 24.409-27.313z" fill="#555a66"/><path d="m179.013 102.277c-4.143 0-7.5-3.358-7.5-7.5v-12.362c0-4.142 3.357-7.5 7.5-7.5s7.5 3.358 7.5 7.5v12.362c0 4.142-3.358 7.5-7.5 7.5z" fill="#555a66"/><path d="m332.987 102.277c-4.143 0-7.5-3.358-7.5-7.5v-12.362c0-4.142 3.357-7.5 7.5-7.5s7.5 3.358 7.5 7.5v12.362c0 4.142-3.357 7.5-7.5 7.5z" fill="#555a66"/><g fill="#ff8870"><circle cx="364.434" cy="284.33" r="51.509"/><circle cx="262.638" cy="428.04" r="41.207"/><circle cx="120.929" cy="402.813" r="20.604"/></g></svg>