<svg id="Capa_1" enable-background="new 0 0 497.005 497.005" height="512" viewBox="0 0 497.005 497.005" width="512" xmlns="http://www.w3.org/2000/svg"><g><path d="m43.348 204.513c-16.971-41.957-31.194-104.742.613-136.549v-17.678h-17.677c-34.015 34.014-33.875 95.029-6.099 163.561 2.67 6.589 10.248 9.675 16.73 6.755 6.123-2.759 8.952-9.863 6.433-16.089z" fill="#b9f0ff"/><g><path d="m295.977 4.552c-15.37-2.974-31.239-4.55-47.477-4.55-137.243.001-248.5 111.258-248.5 248.501s111.257 248.5 248.5 248.5c16.239 0 32.107-1.576 47.477-4.55 114.53-22.161 201.023-122.946 201.023-243.95s-86.493-221.79-201.023-243.951z" fill="#7ce3ff"/><path d="m148 248.503c0-106.052 60.041-198.069 147.977-243.95-15.37-2.974-31.239-4.55-47.477-4.55-137.243 0-248.5 111.257-248.5 248.5s111.257 248.5 248.5 248.5c16.239 0 32.107-1.576 47.477-4.55-87.936-45.882-147.977-137.898-147.977-243.95z" fill="#55dafe"/></g><g fill="#00ce8e"><path d="m296.957 4.744.001 15.817c-.002 39.998 27.105 83.812 66.784 83.812 11.837 0 21.433 9.595 21.433 21.433 0 11.782-9.592 21.433-21.433 21.433-41.199 0-38.335-2.358-54.183 13.49-16.29 16.29-2.589 42.422 15.101 42.422 24.343.001 23.484-.245 37.926-14.686 8.362-8.362 19.657-13.107 31.467-13.255v-.001.001c1.471-.022-9.654-.014 91.953-.014-26.636-86.399-99.124-152.676-189.049-170.452z"/><path d="m333.18 231.641c-35.591 0-64.49 28.876-64.489 64.489v25.285c0 21.8 8.659 42.705 24.073 58.118 14.973 14.974 23.814 34.863 24.092 58.838.197 16.855 7.252 32.082 18.538 42.995 101.021-37.712 168.547-137.722 161.043-249.725-8.008.001-155.155 0-163.257 0z"/></g><g><path d="m228.632 98.586-21.038-21.038-37.045-37.046h-58.068c-58.096 38.068-99.277 99.818-109.825 171.532l60.297 60.283c9.836 9.836 9.836 25.782 0 35.618l-41.569 41.569c19.281 43.293 50.573 80.05 89.648 106.046l17.734-17.734c39.51-39.512 39.531-103.641 0-143.174-12.288-12.287-23.154-20.428-23.154-38.685 0-9.945 3.951-19.482 10.982-26.514l37.17-37.169 13.636-13.636c16.255-16.256 43.824-4.227 43.824 19.184 0 10.837 8.785 19.621 19.621 19.621 10.837 0 19.622-8.785 19.621-19.621v-46.521c.002-19.772-7.853-38.735-21.834-52.715z" fill="#5fd9b3"/><path d="m153.752 192.287c8.876-42.71 27.663-81.803 53.843-114.739l-37.045-37.046h-58.068c-58.097 38.068-99.278 99.818-109.826 171.532l60.297 60.283c9.836 9.836 9.836 25.782 0 35.618l-41.569 41.569c19.281 43.293 50.573 80.05 89.648 106.046l17.734-17.734c39.51-39.512 39.531-103.641 0-143.174-12.288-12.287-23.154-20.428-23.154-38.685 0-9.945 3.951-19.482 10.982-26.514z" fill="#00b27a"/></g><g><path d="m359.608 161.394c-122.727-122.726-271.961-172.471-333.324-111.108l17.678 17.678c47.692-47.693 182.968-3.893 297.969 111.108 19.438 19.438 37.155 39.726 52.849 60.389l20.902-13.737c-16.457-21.835-35.209-43.465-56.074-64.33z" fill="#b9f0ff"/><path d="m451.088 264.954 16.652-25.22c2.183-3.307 2.311-7.563.33-10.995-3.475-6.019-11.745-7.038-16.578-2.044l-17.905 18.505-8.721-9.844c.876-1.327 1.709-2.589 2.735-4.142 6.619-10.026-6.63-22.979-17.14-12.117-4.643-5.241-11.26-5.745-16.166-2.912-4.968 2.868-7.758 8.876-5.561 15.456l-1.244.311c-6.742 1.688-9.994 9.36-6.519 15.379 1.981 3.431 5.731 5.449 9.686 5.212.794-.048-.065.004 4.955-.297l4.164 12.474-24.978 6.253c-6.742 1.688-9.994 9.36-6.519 15.379 1.981 3.432 5.731 5.449 9.686 5.212l30.168-1.811c5.435 16.279 26.712 28.245 40.385 20.351 13.746-7.935 13.888-32.375 2.57-45.15z" fill="#efedff"/></g><g><g><g><ellipse cx="174.589" cy="306.622" fill="#ff8e9e" rx="25" ry="19.909"/></g><g><ellipse cx="322.411" cy="306.622" fill="#ff8e9e" rx="25" ry="19.909"/></g></g></g><g fill="#313d40"><path d="m186.051 274.618c-4.143 0-7.5 3.357-7.5 7.5v12c0 4.143 3.357 7.5 7.5 7.5s7.5-3.357 7.5-7.5v-12c0-4.143-3.358-7.5-7.5-7.5z"/><path d="m310.948 274.618c-4.143 0-7.5 3.357-7.5 7.5v12c0 4.143 3.357 7.5 7.5 7.5s7.5-3.357 7.5-7.5v-12c0-4.143-3.357-7.5-7.5-7.5z"/><path d="m269.891 288.106c-3.122-2.722-7.861-2.397-10.581.728-2.729 3.132-6.669 4.928-10.81 4.928s-8.08-1.796-10.81-4.928c-2.721-3.124-7.459-3.448-10.581-.728-3.123 2.721-3.449 7.459-.728 10.581 5.578 6.402 13.641 10.074 22.118 10.074s16.54-3.672 22.118-10.074c2.723-3.122 2.397-7.86-.726-10.581z"/></g></g></svg>