<svg height="512pt" viewBox="-61 0 512 512" width="512pt" xmlns="http://www.w3.org/2000/svg"><path d="m364.785156 91.816406c0-26.710937-21.652344-48.363281-48.367187-48.363281-4.777344 0-9.390625.703125-13.75 1.992187-3.214844-17.519531-18.554688-30.800781-37.003907-30.800781-17.203124 0-31.699218 11.542969-36.191406 27.304688-10.695312-9.628907-24.84375-15.492188-40.371094-15.492188-7.210937 0-14.121093 1.269531-20.535156 3.589844-7.21875-17.625-24.535156-30.046875-44.761718-30.046875-25.898438 0-47.042969 20.359375-48.304688 45.945312-4.183594-1.605468-8.726562-2.492187-13.476562-2.492187-20.785157 0-37.636719 16.851563-37.636719 37.636719v124.035156h340.398437v-108.394531l-.246094-.011719c.160157-1.609375.246094-3.246094.246094-4.902344zm0 0" fill="#ffde55"/><path d="m24.386719 120.015625h340.398437v85.109375h-340.398437zm0 0" fill="#ffcd00"/><path d="m112.800781 68.164062c-21.636719 0-39.949219 14.207032-46.128906 33.800782-3.636719-1.132813-7.5-1.746094-11.503906-1.746094-21.3125 0-38.585938 17.277344-38.585938 38.585938v38.585937h144.582031v-60.863281c0-26.710938-21.652343-48.363282-48.363281-48.363282zm0 0" fill="#ffeb99"/><path d="m21.464844 120.015625c-3.105469 5.5625-4.886719 11.96875-4.886719 18.789063v38.585937h144.585937v-57.375zm0 0" fill="#ffde55"/><path d="m343.550781 107.320312c-4.300781-22.304687-23.917969-39.15625-47.480469-39.15625-17.390624 0-32.628906 9.183594-41.152343 22.960938-2.339844-.441406-4.746094-.683594-7.210938-.683594-21.3125 0-38.585937 17.277344-38.585937 38.585938v55.175781h168.367187v-38.585937c-.003906-19.734376-14.824219-36-33.9375-38.296876zm0 0" fill="#ffeb99"/><path d="m209.117188 129.027344v55.175781h168.367187v-38.585937c0-9.828126-3.675781-18.792969-9.726563-25.601563h-157.570312c-.691406 2.890625-1.070312 5.90625-1.070312 9.011719zm0 0" fill="#ffde55"/><path d="m320.0625 512h-250.714844c-6.957031 0-12.777344-5.277344-13.453125-12.199219l-30.65625-313.335937h338.929688l-30.65625 313.335937c-.675781 6.921875-6.496094 12.199219-13.449219 12.199219zm0 0" fill="#d65b5b"/><path d="m25.238281 186.464844 30.65625 313.335937c.675781 6.921875 6.496094 12.199219 13.453125 12.199219h28.949219l-31.851563-325.535156zm0 0" fill="#bf4c4c"/><path d="m29.824219 233.335938h329.757812l4.585938-46.871094h-338.929688zm0 0" fill="#bf4c4c"/><path d="m93.023438 186.464844h67.789062l6.28125 325.535156h-55.214844zm0 0" fill="#bdebff"/><path d="m161.714844 233.335938-.902344-46.871094h-67.789062l2.714843 46.871094zm0 0" fill="#92d8ff"/><path d="m228.597656 186.464844h67.785156l-18.851562 325.535156h-55.21875zm0 0" fill="#bdebff"/><path d="m293.667969 233.335938 2.714843-46.871094h-67.785156l-.90625 46.871094zm0 0" fill="#92d8ff"/><path d="m378.226562 217.882812h-367.042968c-6.175782 0-11.183594-5.003906-11.183594-11.183593v-60.050781c0-6.175782 5.007812-11.179688 11.183594-11.179688h367.042968c6.175782 0 11.183594 5.003906 11.183594 11.179688v60.050781c-.003906 6.179687-5.007812 11.183593-11.183594 11.183593zm0 0" fill="#f46262"/><path d="m213.121094 180.21875c0 10.171875-8.246094 18.417969-18.417969 18.417969s-18.414063-8.246094-18.414063-18.417969c0-10.167969 8.242188-18.414062 18.414063-18.414062s18.417969 8.246093 18.417969 18.414062zm0 0" fill="#222223"/><path d="m51.507812 206.699219v-60.050781c0-6.175782 5.007813-11.179688 11.183594-11.179688h-51.507812c-6.175782 0-11.183594 5.003906-11.183594 11.179688v60.050781c0 6.179687 5.007812 11.183593 11.183594 11.183593h51.507812c-6.175781 0-11.183594-5.003906-11.183594-11.183593zm0 0" fill="#d65b5b"/><path d="m260.316406 173.914062c-4.144531 0-7.5-3.355468-7.5-7.5v-11.695312c0-4.144531 3.355469-7.5 7.5-7.5 4.140625 0 7.5 3.355469 7.5 7.5v11.695312c0 4.144532-3.359375 7.5-7.5 7.5zm0 0" fill="#222223"/><path d="m129.09375 173.914062c-4.144531 0-7.5-3.355468-7.5-7.5v-11.695312c0-4.144531 3.355469-7.5 7.5-7.5 4.140625 0 7.5 3.355469 7.5 7.5v11.695312c0 4.144532-3.359375 7.5-7.5 7.5zm0 0" fill="#222223"/><g fill="#eaeaea"><path d="m266.164062 196.027344h-11.695312c-4.144531 0-7.5-3.355469-7.5-7.5 0-4.140625 3.355469-7.5 7.5-7.5h11.695312c4.144532 0 7.5 3.359375 7.5 7.5 0 4.144531-3.355468 7.5-7.5 7.5zm0 0"/><path d="m134.941406 196.027344h-11.699218c-4.140626 0-7.5-3.355469-7.5-7.5 0-4.140625 3.359374-7.5 7.5-7.5h11.699218c4.144532 0 7.5 3.359375 7.5 7.5 0 4.144531-3.355468 7.5-7.5 7.5zm0 0"/></g></svg>