<?xml version="1.0" encoding="iso-8859-1"?>
<!-- Generator: Adobe Illustrator 19.0.0, SVG Export Plug-In . SVG Version: 6.00 Build 0)  -->
<svg version="1.1" id="Capa_1" xmlns="http://www.w3.org/2000/svg" xmlns:xlink="http://www.w3.org/1999/xlink" x="0px" y="0px"
	 viewBox="0 0 512 512" style="enable-background:new 0 0 512 512;" xml:space="preserve">
<path style="fill:#FFEB99;" d="M306.408,210.321l-15.069,54.067l-28.73-29.876c-4.289-4.46-2.219-11.885,3.758-13.483
	L306.408,210.321z"/>
<path style="fill:#BDEBFF;" d="M289.6,360.447c-23.846-42.273-24.78-91.52-6.894-134.418c20.665-49.565,89.231-53.763,115.614-6.99
	l73.624,130.524c22.786,40.395-7.791,90.095-54.122,87.95C365.389,435.081,316.314,407.805,289.6,360.447z"/>
<path style="fill:#92D8FF;" d="M373.344,307.464h74.855l23.747,42.098c22.786,40.395-7.791,90.095-54.122,87.95
	c-14.633-0.678-29.003-3.296-42.699-7.74c1.735-9.099,1.294-18.964-2.977-29.092C355.108,360.274,373.344,307.464,373.344,307.464z"
	/>
<path style="fill:#D7F3FF;" d="M270.385,287.706c16.344,19.647,38.988,42.843,68.747,64.908
	c53.034,39.32,108.769,15.657,134.591,0.348c19.288,39.728-10.858,86.637-55.897,84.551
	c-52.434-2.429-101.509-29.706-128.223-77.065C276.684,337.541,270.504,312.588,270.385,287.706z"/>
<path style="fill:#BDEBFF;" d="M372.147,400.679c-4.526-10.731-6.562-22.339-7.113-33.599c44.439,17.382,87.06-1.295,108.69-14.118
	c19.288,39.728-10.858,86.637-55.897,84.551c-14.635-0.678-29.005-3.296-42.703-7.741
	C376.86,420.672,376.418,410.807,372.147,400.679z"/>
<path style="fill:#AFC1E2;" d="M409.632,239.091l98.566,157.529c9.244,14.481,0.776,33.685-16.145,36.663
	c-25.747,4.531-63.396,2.386-92.895-36.931C332.779,307.879,409.632,239.091,409.632,239.091z"/>
<path style="fill:#97AAD3;" d="M492.053,433.283c-25.747,4.531-63.396,2.386-92.895-36.931
	c-38.288-51.033-28.889-95.574-14.105-124.084c0,0,7.397,120.86,123.145,124.353C517.441,411.102,508.972,430.306,492.053,433.283z"
	/>
<circle style="fill:#57565C;" cx="318.892" cy="229.72" r="7.726"/>
<path style="fill:#FFA5B5;" d="M360.322,265.559h-20.516c-6.712,0-12.204-5.492-12.204-12.204l0,0
	c0-6.712,5.492-12.204,12.204-12.204h20.516c6.712,0,12.204,5.492,12.204,12.204l0,0
	C372.526,260.067,367.034,265.559,360.322,265.559z"/>
<path style="fill:#FFEB99;" d="M205.592,210.321l15.069,54.067l28.73-29.876c4.289-4.46,2.219-11.885-3.758-13.483L205.592,210.321z
	"/>
<path style="fill:#BDEBFF;" d="M222.4,360.447c23.846-42.273,24.78-91.52,6.894-134.418c-20.665-49.565-89.231-53.763-115.614-6.99
	L40.055,349.563c-22.786,40.395,7.791,90.095,54.121,87.95C146.611,435.081,195.686,407.805,222.4,360.447z"/>
<path style="fill:#92D8FF;" d="M138.656,307.464H63.802l-23.747,42.098c-22.786,40.395,7.791,90.095,54.122,87.95
	c14.633-0.678,29.003-3.296,42.699-7.74c-1.735-9.099-1.294-18.964,2.977-29.092C156.89,360.274,138.656,307.464,138.656,307.464z"
	/>
<path style="fill:#D7F3FF;" d="M241.614,287.706c-16.344,19.647-38.988,42.843-68.747,64.908
	c-53.034,39.32-108.769,15.657-134.591,0.348c-19.288,39.728,10.858,86.637,55.897,84.551
	c52.434-2.429,101.509-29.706,128.223-77.065C235.316,337.541,241.496,312.588,241.614,287.706z"/>
<path style="fill:#BDEBFF;" d="M139.853,400.679c4.526-10.731,6.562-22.339,7.113-33.599c-44.439,17.382-87.06-1.295-108.69-14.118
	c-19.288,39.728,10.858,86.637,55.897,84.551c14.635-0.678,29.005-3.296,42.703-7.741
	C135.14,420.672,135.582,410.807,139.853,400.679z"/>
<path style="fill:#AFC1E2;" d="M102.368,239.091L3.802,396.621c-9.244,14.481-0.776,33.685,16.145,36.663
	c25.747,4.531,63.396,2.386,92.895-36.931C179.221,307.879,102.368,239.091,102.368,239.091z"/>
<path style="fill:#97AAD3;" d="M19.947,433.283c25.747,4.531,63.396,2.386,92.895-36.931
	c38.288-51.033,28.918-95.519,14.134-124.029c0,0-7.425,120.804-123.174,124.298C-5.441,411.102,3.028,430.306,19.947,433.283z"/>
<circle style="fill:#57565C;" cx="193.107" cy="229.72" r="7.726"/>
<g>
	<path style="fill:#FFA5B5;" d="M172.194,265.559h-20.516c-6.712,0-12.204-5.492-12.204-12.204l0,0
		c0-6.712,5.492-12.204,12.204-12.204h20.516c6.712,0,12.204,5.492,12.204,12.204l0,0
		C184.397,260.067,178.906,265.559,172.194,265.559z"/>
	<path style="fill:#FFA5B5;" d="M151.666,79.142c5.712-6.257,15.546-6.238,21.5-0.283c5.953-5.953,15.789-5.973,21.5,0.283
		c14.522,15.908-6.88,32.755-16.851,39.317c-2.821,1.856-6.478,1.856-9.298,0C158.546,111.896,137.144,95.05,151.666,79.142z"/>
	<path style="fill:#FFA5B5;" d="M317.333,79.142c5.712-6.257,15.546-6.238,21.5-0.283c5.953-5.953,15.789-5.973,21.5,0.283
		c14.522,15.908-6.88,32.755-16.851,39.317c-2.821,1.856-6.478,1.856-9.298,0C324.212,111.896,302.81,95.05,317.333,79.142z"/>
</g>
<path style="fill:#FF737D;" d="M221.031,126.825c9.29-10.176,25.285-10.144,34.968-0.462c9.684-9.684,25.678-9.716,34.968,0.462
	c23.619,25.872-11.189,53.272-27.407,63.945c-4.587,3.019-10.535,3.019-15.123,0C232.22,180.097,197.413,152.698,221.031,126.825z"
	/>
<g>
</g>
<g>
</g>
<g>
</g>
<g>
</g>
<g>
</g>
<g>
</g>
<g>
</g>
<g>
</g>
<g>
</g>
<g>
</g>
<g>
</g>
<g>
</g>
<g>
</g>
<g>
</g>
<g>
</g>
</svg>
