<svg height="511pt" viewBox="-26 0 511 511.99918" width="511pt" xmlns="http://www.w3.org/2000/svg"><path d="m382.929688 399.464844s64.796874 71.609375 28.164062 102.023437c-36.636719 30.414063-49.078125-14.859375-181.449219-14.859375-132.371093 0-144.8125 45.273438-181.449219 14.859375-36.636718-30.414062 28.160157-102.023437 28.160157-102.023437zm0 0" fill="#494a59"/><path d="m458.789062 229.144531c0 126.550781-102.59375 229.144531-229.144531 229.144531-126.554687 0-229.144531-102.59375-229.144531-229.144531 0-126.554687 102.589844-229.144531 229.144531-229.144531 126.550781 0 229.144531 102.589844 229.144531 229.144531zm0 0" fill="#ecebed"/><path d="m41.707031 229.144531c0-119.609375 91.644531-217.792969 208.539063-228.210937-6.789063-.605469-13.65625-.933594-20.601563-.933594-126.554687 0-229.144531 102.589844-229.144531 229.144531 0 126.550781 102.589844 229.144531 229.144531 229.144531 6.945313 0 13.8125-.328124 20.601563-.933593-116.894532-10.417969-208.539063-108.605469-208.539063-228.210938zm0 0" fill="#dfdfe0"/><path d="m353.03125 229.144531c0 68.144531-55.242188 123.386719-123.386719 123.386719s-123.386719-55.242188-123.386719-123.386719 55.242188-123.386719 123.386719-123.386719 123.386719 55.242188 123.386719 123.386719zm0 0" fill="#64c6fb"/><g fill="#494a59"><path d="m290.816406 229.144531c0 33.785157-27.386718 61.175781-61.171875 61.175781-33.785156 0-61.175781-27.390624-61.175781-61.175781 0-33.785156 27.390625-61.175781 61.175781-61.175781 33.785157 0 61.171875 27.390625 61.171875 61.175781zm0 0"/><path d="m166.441406 68.515625c-4.265625 0-7.726562-3.457031-7.726562-7.726563v-11.4375c0-4.265624 3.460937-7.726562 7.726562-7.726562s7.726563 3.460938 7.726563 7.726562v11.4375c0 4.269532-3.460938 7.726563-7.726563 7.726563zm0 0"/><path d="m292.847656 68.515625c-4.269531 0-7.726562-3.457031-7.726562-7.726563v-11.4375c0-4.265624 3.457031-7.726562 7.726562-7.726562 4.265625 0 7.726563 3.460938 7.726563 7.726562v11.4375c0 4.269532-3.460938 7.726563-7.726563 7.726563zm0 0"/><path d="m229.644531 74.625c-8.308593 0-16.117187-3.480469-21.417969-9.546875-2.808593-3.210937-2.480468-8.09375.734376-10.902344 3.210937-2.804687 8.09375-2.480469 10.902343.734375 2.367188 2.707032 5.929688 4.257813 9.78125 4.257813 3.847657 0 7.414063-1.550781 9.78125-4.257813 2.808594-3.214844 7.691407-3.539062 10.902344-.734375 3.214844 2.808594 3.542969 7.691407.730469 10.902344-5.300782 6.066406-13.105469 9.546875-21.414063 9.546875zm0 0"/></g></svg>