<?xml version="1.0" encoding="iso-8859-1"?>
<!-- Generator: Adobe Illustrator 19.0.0, SVG Export Plug-In . SVG Version: 6.00 Build 0)  -->
<svg version="1.1" id="Capa_1" xmlns="http://www.w3.org/2000/svg" xmlns:xlink="http://www.w3.org/1999/xlink" x="0px" y="0px"
	 viewBox="0 0 512 512" style="enable-background:new 0 0 512 512;" xml:space="preserve">
<rect x="181.693" y="358.307" style="fill:#94CBED;" width="148.614" height="107.747"/>
<path style="fill:#73B7DD;" d="M181.693,358.308v107.745h41.088c16.036-75.928,107.526-66.024,107.526-66.024v-41.72
	L181.693,358.308L181.693,358.308z"/>
<path style="fill:#A7ADF0;" d="M448.49,385.216H63.51c-35.076,0-63.51-28.434-63.51-63.51V85.772c0-35.076,28.434-63.51,63.51-63.51
	H448.49c35.076,0,63.51,28.434,63.51,63.51v235.934C512,356.782,483.566,385.216,448.49,385.216z"/>
<g>
	<path style="fill:#7C84E8;" d="M110.067,321.706V85.772c0-35.076,28.434-63.51,63.51-63.51H63.51C28.434,22.262,0,50.696,0,85.772
		v235.934c0,35.076,28.434,63.51,63.51,63.51h110.067C138.501,385.216,110.067,356.782,110.067,321.706z"/>
	<path style="fill:#7C84E8;" d="M392.954,240.558c-3.017-3.018-3.017-7.91,0-10.927l45.187-45.186c3.017-3.016,7.91-3.016,10.926,0
		c3.017,3.018,3.017,7.91,0,10.927l-45.187,45.186C399.438,244.724,394.463,242.066,392.954,240.558z"/>
	<path style="fill:#7C84E8;" d="M426.085,254.003c-3.017-3.017-3.017-7.91,0-10.926l17.185-17.184
		c3.017-3.016,7.91-3.017,10.926,0.001c3.017,3.017,3.017,7.91,0,10.926l-17.185,17.184
		C432.272,258.42,427.593,255.513,426.085,254.003z"/>
</g>
<g>
	<path style="fill:#57565C;" d="M339.091,193.589c-4.268,0-7.726-3.459-7.726-7.726v-12.827c0-4.267,3.458-7.726,7.726-7.726
		c4.268,0,7.726,3.459,7.726,7.726v12.827C346.818,190.129,343.358,193.589,339.091,193.589z"/>
	<path style="fill:#57565C;" d="M172.909,193.589c-4.268,0-7.726-3.459-7.726-7.726v-12.827c0-4.267,3.458-7.726,7.726-7.726
		c4.268,0,7.726,3.459,7.726,7.726v12.827C180.635,190.129,177.177,193.589,172.909,193.589z"/>
	<path style="fill:#57565C;" d="M256,201.679c-10,0-20-3.236-28.344-9.708c-3.372-2.616-3.985-7.469-1.369-10.841
		c2.614-3.373,7.469-3.986,10.84-1.37c11.113,8.62,26.634,8.62,37.747,0c3.37-2.616,8.225-2.003,10.84,1.37
		c2.616,3.372,2.003,8.225-1.369,10.841C276,198.443,266,201.679,256,201.679z"/>
</g>
<path style="fill:#CAE7FC;" d="M0,281.216v40.49c0,35.076,28.434,63.51,63.51,63.51H448.49c35.076,0,63.51-28.434,63.51-63.51
	v-40.49H0z"/>
<path style="fill:#94CBED;" d="M0,321.706c0,35.076,28.434,63.51,63.51,63.51h110.067c-35.076,0-63.51-28.434-63.51-63.51v-40.49H0
	V321.706z"/>
<path style="fill:#CAE7FC;" d="M342.382,489.738H169.618c-13.027,0-23.685-10.658-23.685-23.685l0,0
	c0-13.027,10.658-23.685,23.685-23.685h172.762c13.027,0,23.685,10.658,23.685,23.685l0,0
	C366.067,479.08,355.408,489.738,342.382,489.738z"/>
<path style="fill:#94CBED;" d="M208.006,466.053L208.006,466.053c0-13.027,10.658-23.685,23.685-23.685h-62.073
	c-13.027,0-23.685,10.658-23.685,23.685l0,0c0,13.027,10.658,23.685,23.685,23.685h62.073
	C218.664,489.738,208.006,479.08,208.006,466.053z"/>
<g>
</g>
<g>
</g>
<g>
</g>
<g>
</g>
<g>
</g>
<g>
</g>
<g>
</g>
<g>
</g>
<g>
</g>
<g>
</g>
<g>
</g>
<g>
</g>
<g>
</g>
<g>
</g>
<g>
</g>
</svg>
