<?xml version="1.0" encoding="iso-8859-1"?>
<!-- Generator: Adobe Illustrator 19.0.0, SVG Export Plug-In . SVG Version: 6.00 Build 0)  -->
<svg version="1.1" id="Capa_1" xmlns="http://www.w3.org/2000/svg" xmlns:xlink="http://www.w3.org/1999/xlink" x="0px" y="0px"
	 viewBox="0 0 512 512" style="enable-background:new 0 0 512 512;" xml:space="preserve">
<path style="fill:#EAEAEA;" d="M408.207,499.284c11.108,0,19.375-10.476,16.554-21.22c-14.469-55.108-84.278-96.899-168.216-96.899
	c-83.937,0-153.747,41.791-168.216,96.899c-2.821,10.744,5.446,21.22,16.554,21.22L408.207,499.284L408.207,499.284z"/>
<path style="fill:#6A95E6;" d="M373.808,499.284c0-19.454-15.771-35.225-35.225-35.225s-35.225,15.771-35.225,35.225H373.808z"/>
<path style="opacity:0.15;enable-background:new    ;" d="M256.546,381.165c-60.038,0-112.842,21.383-143.342,53.725
	c36.849,25.014,86.364,38.235,143.342,38.235c56.979,0,106.493-13.221,143.342-38.236
	C369.387,402.548,316.583,381.165,256.546,381.165z"/>
<path style="fill:#7ED3E9;" d="M465.892,384.796l-21.436,7.622c-2.882,1.025-5.894-1.164-5.81-4.221l0.625-22.742
	c0.034-1.234-0.359-2.442-1.111-3.421l-13.873-18.031c-1.865-2.424-0.715-5.965,2.219-6.83l21.822-6.433
	c1.184-0.349,2.212-1.096,2.91-2.114l12.861-18.766c1.729-2.523,5.452-2.523,7.181,0l12.861,18.766
	c0.698,1.018,1.726,1.765,2.91,2.114l21.822,6.433c2.934,0.865,4.084,4.406,2.219,6.83l-13.873,18.031
	c-0.753,0.979-1.146,2.187-1.112,3.421l0.626,22.742c0.084,3.057-2.928,5.246-5.81,4.221l-21.436-7.622
	C468.326,384.382,467.055,384.382,465.892,384.796z"/>
<path style="opacity:0.1;enable-background:new    ;" d="M508.874,337.174l-0.566-0.167c-0.135,0.583-0.395,1.153-0.794,1.671
	l-13.873,18.031c-0.753,0.979-1.146,2.187-1.112,3.421l0.626,22.742c0.084,3.057-2.928,5.246-5.81,4.221l-21.435-7.622
	c-1.163-0.414-2.434-0.414-3.597,0l-21.435,7.622c-0.745,0.265-1.499,0.314-2.205,0.189l-0.025,0.915
	c-0.084,3.057,2.928,5.246,5.81,4.221l21.436-7.622c1.163-0.414,2.434-0.414,3.597,0l21.436,7.622
	c2.882,1.025,5.894-1.164,5.81-4.221l-0.625-22.742c-0.034-1.234,0.359-2.442,1.112-3.421l13.873-18.031
	C512.958,341.58,511.808,338.039,508.874,337.174z"/>
<path style="fill:#B692DF;" d="M61.905,270.703l-10.427,20.22c-1.402,2.718-5.096,3.181-7.125,0.893l-15.095-17.021
	c-0.819-0.924-1.932-1.537-3.151-1.736L3.654,269.39c-3.018-0.493-4.6-3.864-3.051-6.501l11.523-19.616
	c0.625-1.065,0.865-2.312,0.677-3.533l-3.449-22.488c-0.464-3.023,2.253-5.569,5.24-4.911l22.217,4.897
	c1.206,0.266,2.466,0.108,3.569-0.447l20.321-10.229c2.732-1.375,5.993,0.422,6.29,3.466l2.208,22.643
	c0.12,1.229,0.66,2.379,1.528,3.256l16.008,16.165c2.152,2.173,1.451,5.83-1.352,7.053l-20.852,9.097
	C63.398,268.737,62.471,269.606,61.905,270.703z"/>
<path style="opacity:0.1;enable-background:new    ;" d="M60.701,206.563l-0.527,0.265c0.3,0.518,0.5,1.111,0.564,1.762
	l2.208,22.643c0.12,1.229,0.66,2.379,1.528,3.256l16.008,16.165c2.152,2.173,1.451,5.83-1.352,7.053l-20.852,9.097
	c-1.132,0.494-2.059,1.362-2.625,2.46l-10.427,20.22c-0.362,0.703-0.879,1.253-1.48,1.646l0.607,0.685
	c2.029,2.288,5.724,1.825,7.125-0.893l10.427-20.22c0.566-1.097,1.493-1.966,2.625-2.46l20.852-9.097
	c2.803-1.223,3.505-4.879,1.352-7.053l-16.008-16.165c-0.869-0.877-1.409-2.027-1.528-3.256l-2.208-22.643
	C66.693,206.985,63.432,205.188,60.701,206.563z"/>
<path style="fill:#EAEAEA;" d="M401.569,12.716H111.523c-13.116,0-23.749,10.633-23.749,23.749v119.306h337.545V36.465
	C425.318,23.349,414.685,12.716,401.569,12.716z"/>
<g>
	<path style="fill:#F6CE6E;" d="M395.358,58.915h29.96v-22.45c0-13.116-10.633-23.749-23.749-23.749h-22.45v29.96
		C379.119,51.645,386.389,58.915,395.358,58.915z"/>
	<path style="fill:#F6CE6E;" d="M117.733,58.915h-29.96v-22.45c0-13.116,10.633-23.749,23.749-23.749h22.45v29.96
		C133.972,51.645,126.702,58.915,117.733,58.915z"/>
</g>
<path style="opacity:0.1;enable-background:new    ;" d="M401.569,12.716h-20.027c13.116,0,23.749,10.633,23.749,23.749v51.509
	c-38.861-36.682-91.216-59.211-148.746-59.211c-68.11,0-128.977,31.566-168.772,80.826v46.182h337.545V36.465
	C425.318,23.349,414.685,12.716,401.569,12.716z"/>
<path style="fill:#A9B3C7;" d="M494.114,173.205h-68.796V41.19h68.796c5.559,0,10.065,4.506,10.065,10.065V163.14
	C504.179,168.699,499.673,173.205,494.114,173.205z"/>
<g>
	<circle style="fill:#3F4C58;" cx="464.749" cy="78.32" r="19.404"/>
	<circle style="fill:#3F4C58;" cx="464.749" cy="135.31" r="19.404"/>
</g>
<rect x="425.319" y="41.19" style="opacity:0.1;enable-background:new    ;" width="26.863" height="132.01"/>
<path style="fill:#A9B3C7;" d="M18.977,173.205h68.796V41.19H18.977c-5.559,0-10.065,4.506-10.065,10.065V163.14
	C8.912,168.699,13.418,173.205,18.977,173.205z"/>
<g>
	<circle style="fill:#3F4C58;" cx="48.339" cy="78.32" r="19.404"/>
	<circle style="fill:#3F4C58;" cx="48.339" cy="135.31" r="19.404"/>
</g>
<rect x="60.91" y="41.19" style="opacity:0.1;enable-background:new    ;" width="26.863" height="132.01"/>
<path style="fill:#EAEAEA;" d="M256.546,446.971c-57.658,0-107.682-13.53-144.664-39.127c-23.52-16.279-41.696-37.088-54.023-61.848
	c-12.088-24.278-18.216-51.753-18.216-81.66c0-119.601,97.303-216.903,216.903-216.903s216.903,97.303,216.903,216.903
	c0,29.907-6.129,57.382-18.216,81.66c-12.327,24.76-30.503,45.569-54.024,61.848C364.227,433.441,314.204,446.971,256.546,446.971z"
	/>
<path style="opacity:0.1;enable-background:new    ;" d="M400.056,101.847c33.839,38.27,54.414,88.529,54.414,143.51
	c0,29.907-6.129,57.382-18.216,81.66c-12.327,24.76-30.503,45.568-54.024,61.848c-36.982,25.597-87.005,39.127-144.663,39.127
	s-107.682-13.53-144.664-39.127c-4.819-3.336-9.401-6.872-13.767-10.583c9.376,11.06,20.306,20.951,32.747,29.562
	c36.982,25.597,87.006,39.127,144.664,39.127s107.682-13.53,144.663-39.127c23.521-16.279,41.697-37.088,54.024-61.848
	c12.087-24.278,18.216-51.753,18.216-81.66C473.449,199.717,445.035,141.618,400.056,101.847z"/>
<path style="fill:#7ED3E9;" d="M256.546,384.587c-49.107,0-91.007-1.591-121.171-22.469c-36.124-25.003-55.218-63.355-55.218-110.91
	c0-97.262,79.128-176.39,176.39-176.39s176.39,79.128,176.39,176.39c0,47.554-19.094,85.906-55.218,110.91
	C347.552,382.996,305.652,384.587,256.546,384.587z"/>
<path style="fill:#3F4C58;" d="M410.327,255.767c0-84.931-68.85-153.782-153.782-153.782s-153.782,68.85-153.782,153.782
	c0,84.931,68.85,90.206,153.782,90.206S410.327,340.699,410.327,255.767z"/>
<path style="opacity:0.1;enable-background:new    ;" d="M359.44,141.487c24.552,27.252,39.501,63.326,39.501,102.894
	c0,84.931-68.85,90.206-153.782,90.206c-52.537,0-98.913-2.027-126.653-23.671c25.066,32.363,77.457,35.057,138.039,35.057
	c84.931,0,153.782-5.275,153.782-90.206C410.327,210.405,390.682,169.634,359.44,141.487z"/>
<g>
	<path style="fill:#FFFFFF;" d="M185.002,246.351c-4.142,0-7.5-3.358-7.5-7.5v-8.565c0-4.142,3.358-7.5,7.5-7.5s7.5,3.358,7.5,7.5
		v8.565C192.502,242.993,189.144,246.351,185.002,246.351z"/>
	<path style="fill:#FFFFFF;" d="M328.089,246.351c-4.142,0-7.5-3.358-7.5-7.5v-8.565c0-4.142,3.358-7.5,7.5-7.5s7.5,3.358,7.5,7.5
		v8.565C335.589,242.993,332.231,246.351,328.089,246.351z"/>
	<path style="fill:#FFFFFF;" d="M256.545,259.059c-6.358,0-12.376-3.081-16.099-8.242c-2.423-3.359-1.665-8.047,1.695-10.47
		c3.36-2.424,8.047-1.664,10.47,1.695c0.925,1.282,2.358,2.017,3.934,2.017c1.575,0,3.008-0.735,3.933-2.016
		c2.423-3.358,7.111-4.117,10.471-1.692c3.359,2.424,4.117,7.112,1.692,10.471C268.918,255.98,262.901,259.059,256.545,259.059z"/>
</g>
<path style="fill:#F6CE6E;" d="M90.853,450.036l-21.436,7.622c-2.882,1.025-5.894-1.164-5.81-4.221l0.625-22.742
	c0.034-1.234-0.359-2.442-1.111-3.421l-13.873-18.031c-1.865-2.424-0.715-5.965,2.219-6.83l21.822-6.433
	c1.184-0.349,2.212-1.096,2.91-2.114L89.06,375.1c1.729-2.523,5.452-2.523,7.181,0l12.861,18.766
	c0.698,1.018,1.726,1.765,2.91,2.114l21.822,6.433c2.934,0.865,4.084,4.406,2.219,6.83l-13.873,18.031
	c-0.753,0.979-1.145,2.187-1.112,3.421l0.626,22.742c0.084,3.057-2.928,5.246-5.81,4.221l-21.436-7.622
	C93.286,449.622,92.016,449.622,90.853,450.036z"/>
<path style="opacity:0.1;enable-background:new    ;" d="M133.835,402.414l-0.566-0.167c-0.135,0.583-0.395,1.153-0.794,1.671
	l-13.873,18.031c-0.753,0.979-1.146,2.187-1.112,3.421l0.626,22.742c0.084,3.057-2.928,5.246-5.81,4.221l-21.436-7.622
	c-1.163-0.414-2.434-0.414-3.597,0l-21.435,7.622c-0.745,0.265-1.499,0.314-2.205,0.189l-0.025,0.915
	c-0.084,3.057,2.928,5.246,5.81,4.221l21.436-7.622c1.163-0.414,2.434-0.414,3.597,0l21.436,7.622
	c2.882,1.025,5.894-1.164,5.81-4.221l-0.626-22.742c-0.034-1.234,0.359-2.442,1.112-3.421l13.873-18.031
	C137.919,406.82,136.769,403.279,133.835,402.414z"/>
<g>
</g>
<g>
</g>
<g>
</g>
<g>
</g>
<g>
</g>
<g>
</g>
<g>
</g>
<g>
</g>
<g>
</g>
<g>
</g>
<g>
</g>
<g>
</g>
<g>
</g>
<g>
</g>
<g>
</g>
</svg>
