<?xml version="1.0" encoding="iso-8859-1"?>
<!-- Generator: Adobe Illustrator 19.0.0, SVG Export Plug-In . SVG Version: 6.00 Build 0)  -->
<svg version="1.1" id="Capa_1" xmlns="http://www.w3.org/2000/svg" xmlns:xlink="http://www.w3.org/1999/xlink" x="0px" y="0px"
	 viewBox="0 0 512 512" style="enable-background:new 0 0 512 512;" xml:space="preserve">
<path style="fill:#3F4C58;" d="M437.019,153.013c-24.987-24.987-54.231-44.167-86.096-56.871c-4.591-1.831-2.623-8.703,2.236-7.798
	c44.411,8.266,85.285,29.63,117.977,62.185c5.591,5.567,14.637,6.163,20.497,0.879c6.278-5.661,6.466-15.348,0.564-21.25
	c-48.352-48.352-112.639-74.981-181.019-74.981c-35.336,0-69.576,7.116-101.091,20.664c-4.541,1.952-8.009-4.299-3.933-7.096
	c37.248-25.558,81.257-39.353,127.393-39.45c7.891-0.016,14.708-5.993,15.114-13.874C349.095,6.981,342.379,0,334.033,0
	c-68.38,0-132.668,26.628-181.019,74.98c-24.99,24.991-44.172,54.24-56.876,86.109c-1.824,4.576-8.701,2.634-7.8-2.209
	c8.289-44.583,29.778-85.603,62.537-118.362c5.872-5.871,5.716-15.489-0.466-21.162c-5.818-5.339-14.943-4.876-20.519,0.716
	c-48.181,48.321-74.711,112.497-74.711,180.75c0,35.336,7.116,69.576,20.664,101.091c1.952,4.541-4.299,8.009-7.096,3.933
	c-25.558-37.248-39.353-81.257-39.449-127.393c-0.016-7.89-5.993-14.708-13.872-15.114C6.982,162.903,0,169.619,0,177.967
	c0,68.381,26.629,132.668,74.981,181.02c24.987,24.987,54.231,44.167,86.096,56.871c4.591,1.831,2.623,8.703-2.236,7.798
	c-44.411-8.266-85.285-29.63-117.977-62.185c-5.591-5.567-14.637-6.163-20.497-0.879c-6.278,5.661-6.466,15.348-0.564,21.25
	c48.352,48.352,112.639,74.981,181.019,74.981c35.336,0,69.576-7.116,101.091-20.664c4.541-1.952,8.009,4.299,3.933,7.096
	c-37.248,25.558-81.257,39.353-127.393,39.449c-7.891,0.016-14.708,5.993-15.114,13.874C162.905,505.02,169.621,512,177.967,512
	c68.38,0,132.667-26.628,181.019-74.98c24.99-24.991,44.172-54.24,56.876-86.109c1.824-4.576,8.701-2.634,7.8,2.209
	c-8.289,44.583-29.778,85.603-62.537,118.362c-5.72,5.72-5.72,14.995,0,20.715c2.86,2.86,6.609,4.29,10.358,4.29
	s7.498-1.431,10.358-4.29c48.352-48.352,74.981-112.639,74.981-181.02c0-35.336-7.116-69.576-20.664-101.09
	c-1.952-4.541,4.299-8.009,7.096-3.933c25.558,37.248,39.353,81.257,39.449,127.393c0.016,7.89,5.993,14.708,13.872,15.114
	c8.442,0.435,15.424-6.28,15.424-14.628C512,265.653,485.371,201.365,437.019,153.013z"/>
<g>
	<path style="fill:#FFFFFF;" d="M145.624,248.844c-4.142,0-7.5-3.357-7.5-7.5V228.13c0-4.143,3.358-7.5,7.5-7.5s7.5,3.357,7.5,7.5
		v13.214C153.124,245.486,149.767,248.844,145.624,248.844z"/>
	<path style="fill:#FFFFFF;" d="M366.375,248.844c-4.142,0-7.5-3.357-7.5-7.5V228.13c0-4.143,3.358-7.5,7.5-7.5s7.5,3.357,7.5,7.5
		v13.214C373.875,245.486,370.518,248.844,366.375,248.844z"/>
	<circle style="fill:#FFFFFF;" cx="256" cy="256" r="27.87"/>
</g>
<path style="fill:#F6CE6E;" d="M256,365.231c-4.142,0-7.5-3.357-7.5-7.5v-1.252c0-4.143,3.358-7.5,7.5-7.5
	c4.142,0,7.5,3.357,7.5,7.5v1.252C263.5,361.874,260.142,365.231,256,365.231z"/>
<g>
	<path style="fill:#6A95E6;" d="M329.266,497.259c-4.142,0-7.5-3.357-7.5-7.5v-1.252c0-4.143,3.358-7.5,7.5-7.5s7.5,3.357,7.5,7.5
		v1.252C336.766,493.901,333.408,497.259,329.266,497.259z"/>
	<path style="fill:#6A95E6;" d="M215.243,349.565c-4.142,0-7.5-3.357-7.5-7.5v-1.252c0-4.143,3.358-7.5,7.5-7.5s7.5,3.357,7.5,7.5
		v1.252C222.743,346.208,219.385,349.565,215.243,349.565z"/>
</g>
<path style="fill:#F6CE6E;" d="M93.205,499.874c-4.142,0-7.5-3.357-7.5-7.5v-1.253c0-4.143,3.358-7.5,7.5-7.5s7.5,3.357,7.5,7.5
	v1.253C100.705,496.517,97.347,499.874,93.205,499.874z"/>
<path style="fill:#EB6E8B;" d="M69.789,461.126c-4.142,0-7.5-3.357-7.5-7.5v-1.252c0-4.143,3.358-7.5,7.5-7.5s7.5,3.357,7.5,7.5
	v1.252C77.289,457.769,73.931,461.126,69.789,461.126z"/>
<path style="fill:#F6CE6E;" d="M256,324.389c-4.142,0-7.5-3.357-7.5-7.5v-1.253c0-4.143,3.358-7.5,7.5-7.5
	c4.142,0,7.5,3.357,7.5,7.5v1.253C263.5,321.031,260.142,324.389,256,324.389z"/>
<g>
	<path style="fill:#7ED3E9;" d="M308.736,365.857c-4.142,0-7.5-3.357-7.5-7.5v-1.252c0-4.143,3.358-7.5,7.5-7.5s7.5,3.357,7.5,7.5
		v1.252C316.236,362.5,312.878,365.857,308.736,365.857z"/>
	<path style="fill:#7ED3E9;" d="M132.443,484.602c-4.142,0-7.5-3.357-7.5-7.5v-1.253c0-4.143,3.358-7.5,7.5-7.5s7.5,3.357,7.5,7.5
		v1.253C139.943,481.244,136.585,484.602,132.443,484.602z"/>
</g>
<g>
	<path style="fill:#F6CE6E;" d="M438.752,470.126c-4.142,0-7.5-3.357-7.5-7.5v-1.252c0-4.143,3.358-7.5,7.5-7.5s7.5,3.357,7.5,7.5
		v1.252C446.252,466.769,442.895,470.126,438.752,470.126z"/>
	<path style="fill:#F6CE6E;" d="M191.429,379.464c-4.142,0-7.5-3.357-7.5-7.5v-1.253c0-4.143,3.358-7.5,7.5-7.5s7.5,3.357,7.5,7.5
		v1.253C198.929,376.106,195.571,379.464,191.429,379.464z"/>
</g>
<path style="fill:#EB6E8B;" d="M256,408.283c-4.142,0-7.5-3.357-7.5-7.5v-1.253c0-4.143,3.358-7.5,7.5-7.5
	c4.142,0,7.5,3.357,7.5,7.5v1.253C263.5,404.926,260.142,408.283,256,408.283z"/>
<g>
</g>
<g>
</g>
<g>
</g>
<g>
</g>
<g>
</g>
<g>
</g>
<g>
</g>
<g>
</g>
<g>
</g>
<g>
</g>
<g>
</g>
<g>
</g>
<g>
</g>
<g>
</g>
<g>
</g>
</svg>
