<svg id="Capa_1" enable-background="new 0 0 497 497" height="512" viewBox="0 0 497 497" width="512" xmlns="http://www.w3.org/2000/svg"><path d="m464.913 109.465c-31.178-15.495-65.527-23.352-102.093-23.352-49.956 0-92.435 14.814-114.3 24.181-21.909-9.402-64.306-24.182-114.343-24.182-36.575 0-70.932 7.861-102.116 23.365-19.776 9.833-32.061 29.642-32.061 51.697v199.203c0 31.827 25.858 57.722 57.642 57.722 6.691 0 13.302-1.167 19.65-3.465 17.637-6.389 36.778-9.628 56.891-9.628 53.36 0 96.899 22.684 98.655 23.612 9.667 5.388 21.425 5.431 31.131.112l.253-.139c.431-.236 44.55-23.586 98.599-23.586 20.111 0 39.251 3.238 56.889 9.627 6.346 2.299 12.956 3.465 19.648 3.466h.003c15.098 0 29.401-5.843 40.271-16.449 11.2-10.929 17.368-25.587 17.368-41.273v-199.202c0-22.06-12.295-41.873-32.087-51.709z" fill="#fc9389"/><path d="m484.298 360.376v-235.378c-5.145-6.38-11.696-11.712-19.385-15.533-31.178-15.495-65.527-23.352-102.093-23.352-49.956 0-92.435 14.814-114.3 24.182-21.909-9.403-64.306-24.182-114.344-24.182-36.575 0-70.932 7.861-102.116 23.365-7.678 3.817-14.22 9.143-19.359 15.516v235.383c0 24.824 20.16 45.02 44.939 45.02 5.212 0 10.368-.91 15.325-2.706 19.028-6.892 39.624-10.387 61.216-10.387 57.357 0 103.754 24.636 104.735 25.163l9.587 5.254 9.612-5.268c.459-.251 46.563-25.149 104.703-25.149 21.591 0 42.187 3.495 61.214 10.387 4.956 1.795 10.111 2.706 15.323 2.706h.003c11.764 0 22.916-4.56 31.4-12.838 8.732-8.52 13.54-19.949 13.54-32.183z" fill="#fa695b"/><path d="m450.359 84.246c-98.516-48.962-201.854 7.676-201.854 7.676l-62.225 128.114 62.225 179.877s90.163-49.417 182.34-16.028c16.273 5.894 33.452-6.202 33.452-23.509v-253.706c.001-9.516-5.416-18.188-13.938-22.424z" fill="#bfbdc3"/><path d="m289.273 180.821c-4.142 0-7.5-3.358-7.5-7.5v-12c0-4.142 3.358-7.5 7.5-7.5s7.5 3.358 7.5 7.5v12c0 4.142-3.358 7.5-7.5 7.5z" fill="#423e4f"/><path d="m414.17 180.821c-4.142 0-7.5-3.358-7.5-7.5v-12c0-4.142 3.358-7.5 7.5-7.5s7.5 3.358 7.5 7.5v12c0 4.142-3.358 7.5-7.5 7.5z" fill="#423e4f"/><path d="m351.722 187.965c-8.478 0-16.54-3.671-22.119-10.073-2.721-3.123-2.396-7.86.727-10.582 3.123-2.721 7.861-2.397 10.582.726 2.73 3.132 6.67 4.928 10.811 4.928s8.081-1.796 10.811-4.928c2.721-3.123 7.458-3.448 10.582-.726 3.123 2.721 3.448 7.459.727 10.582-5.582 6.401-13.644 10.073-22.121 10.073z" fill="#423e4f"/><path d="m248.473 91.9c-2.226-1.196-104.405-56.093-201.852-7.644-8.514 4.233-13.918 12.906-13.918 22.414v253.706c0 17.307 17.18 29.404 33.452 23.509 92.179-33.389 182.351 16.028 182.351 16.028v-307.991z" fill="#e0e0e0"/><g fill="#423e4f"><path d="m217.751 172.752c-.813 0-1.639-.133-2.45-.413-34.354-11.872-86.551-22.427-140.128-5.292-3.945 1.262-8.167-.914-9.428-4.859s.914-8.166 4.859-9.428c57.504-18.392 113.09-7.214 149.597 5.401 3.915 1.353 5.992 5.623 4.639 9.538-1.074 3.104-3.98 5.053-7.089 5.053z"/><path d="m217.751 221.178c-.813 0-1.639-.133-2.45-.413-34.354-11.872-86.551-22.427-140.128-5.292-3.945 1.261-8.167-.914-9.428-4.859s.914-8.166 4.859-9.428c57.504-18.392 113.09-7.214 149.597 5.401 3.915 1.353 5.992 5.623 4.639 9.538-1.074 3.104-3.98 5.053-7.089 5.053z"/><path d="m217.751 269.604c-.813 0-1.639-.133-2.45-.413-34.354-11.872-86.551-22.427-140.128-5.292-3.945 1.262-8.167-.914-9.428-4.859-1.262-3.945.914-8.166 4.859-9.428 57.504-18.391 113.09-7.214 149.597 5.401 3.915 1.353 5.992 5.623 4.639 9.538-1.074 3.104-3.98 5.053-7.089 5.053z"/><path d="m217.751 318.03c-.813 0-1.639-.133-2.45-.413-34.354-11.872-86.551-22.427-140.128-5.292-3.945 1.261-8.167-.914-9.428-4.859s.914-8.166 4.859-9.428c57.504-18.392 113.09-7.214 149.597 5.401 3.915 1.353 5.992 5.623 4.639 9.538-1.074 3.104-3.98 5.053-7.089 5.053z"/><path d="m279.29 269.604c-3.109 0-6.016-1.948-7.088-5.052-1.353-3.915.724-8.185 4.639-9.538 36.506-12.615 92.091-23.793 149.597-5.401 3.945 1.262 6.121 5.483 4.859 9.428-1.262 3.946-5.484 6.12-9.428 4.859-53.576-17.136-105.774-6.58-140.128 5.292-.812.279-1.639.412-2.451.412z"/><path d="m279.29 318.03c-3.109 0-6.016-1.948-7.088-5.052-1.353-3.915.724-8.185 4.639-9.538 36.506-12.615 92.091-23.793 149.597-5.401 3.945 1.262 6.121 5.483 4.859 9.428-1.262 3.946-5.484 6.12-9.428 4.859-53.576-17.136-105.774-6.58-140.128 5.292-.812.279-1.639.412-2.451.412z"/></g></svg>