<svg id="Capa_1" enable-background="new 0 0 512 512" height="512" viewBox="0 0 512 512" width="512" xmlns="http://www.w3.org/2000/svg"><path d="m324.457 383.109h-136.914l-5.545 60.202h148.004z" fill="#4e5660"/><path d="m354.192 483.969h-196.384c-8.553 0-14.703-8.222-12.288-16.426l1.786-6.067c3.17-10.77 13.056-18.165 24.283-18.165h168.823c11.227 0 21.113 7.395 24.283 18.165l1.786 6.067c2.414 8.205-3.736 16.426-12.289 16.426z" fill="#c6c6c6"/><path d="m236.383 443.311h-64.794c-11.227 0-21.113 7.395-24.283 18.165l-1.786 6.066c-2.415 8.205 3.735 16.426 12.288 16.426h87.462c-8.379-11.257-10.92-21.422-8.887-40.657z" fill="#9aa3b1"/><path d="m450.933 383.109h-389.866c-33.726 0-61.067-27.341-61.067-61.067v-232.944c0-33.726 27.341-61.067 61.067-61.067h389.866c33.726 0 61.067 27.341 61.067 61.067v232.944c0 33.726-27.341 61.067-61.067 61.067z" fill="#4e5660"/><path d="m61.067 28.031c-33.726 0-61.067 27.34-61.067 61.067v232.944c0 33.726 27.341 61.067 61.067 61.067h126.476c-64.068-47.461-78.24-203.403-57.124-355.078z" fill="#383c43"/><path d="m41.768 314.341v-217.542c0-14.912 12.088-27 27-27h374.464c14.912 0 27 12.088 27 27v217.542c0 14.912-12.088 27-27 27h-374.464c-14.912 0-27-12.088-27-27z" fill="#f7ef87"/><path d="m125.512 69.799h-56.744c-14.912 0-27 12.088-27 27v217.542c0 14.912 12.088 27 27 27h85.607c-31.156-61.307-39.08-164.918-28.863-271.542z" fill="#efd176"/><path d="m443.232 69.799h-187.232v271.542h187.232c14.912 0 27-12.088 27-27v-217.542c0-14.912-12.089-27-27-27z" fill="#383c43"/><path d="m0 304.954v17.088c0 33.726 27.341 61.067 61.067 61.067h389.866c33.726 0 61.067-27.341 61.067-61.067v-17.088z" fill="#c6c6c6"/><circle cx="256" cy="344.032" fill="#4e5660" r="14.822"/><g fill="#fff"><path d="m333.402 180.122c-1.919 0-3.839-.732-5.303-2.196l-27.878-27.879c-1.407-1.407-2.197-3.314-2.197-5.304 0-1.989.79-3.896 2.197-5.304l27.878-27.878c2.929-2.929 7.678-2.927 10.607 0 2.929 2.93 2.929 7.678 0 10.607l-22.575 22.574 22.575 22.575c2.929 2.93 2.929 7.678 0 10.607-1.465 1.466-3.385 2.198-5.304 2.198z"/><path d="m392.83 180.122c-1.919 0-3.839-.732-5.303-2.196-2.929-2.93-2.929-7.678 0-10.607l22.575-22.575-22.575-22.574c-2.929-2.93-2.929-7.678 0-10.607 2.929-2.928 7.678-2.928 10.606 0l27.878 27.878c1.407 1.407 2.197 3.314 2.197 5.304 0 1.989-.79 3.896-2.197 5.304l-27.878 27.879c-1.465 1.462-3.384 2.194-5.303 2.194z"/><path d="m347.458 195.264c-.852 0-1.718-.146-2.564-.454-3.893-1.417-5.899-5.721-4.483-9.613l31.315-86.037c1.417-3.893 5.721-5.899 9.613-4.482 3.893 1.417 5.899 5.721 4.483 9.613l-31.315 86.037c-1.109 3.044-3.986 4.936-7.049 4.936z"/></g><path d="m404.206 277.162h-46.706c-4.142 0-7.5-3.357-7.5-7.5s3.358-7.5 7.5-7.5h46.707c4.142 0 7.5 3.357 7.5 7.5-.001 4.143-3.359 7.5-7.501 7.5z" fill="#8ee2cf"/><path d="m334.667 277.162h-21.424c-4.142 0-7.5-3.357-7.5-7.5s3.358-7.5 7.5-7.5h21.424c4.142 0 7.5 3.357 7.5 7.5s-3.358 7.5-7.5 7.5z" fill="#e8899e"/><path d="m412.989 254.013h-26.72c-4.142 0-7.5-3.357-7.5-7.5s3.358-7.5 7.5-7.5h26.72c4.142 0 7.5 3.357 7.5 7.5 0 4.142-3.358 7.5-7.5 7.5z" fill="#e8899e"/><path d="m363.437 254.013h-50.194c-4.142 0-7.5-3.357-7.5-7.5s3.358-7.5 7.5-7.5h50.194c4.142 0 7.5 3.357 7.5 7.5-.001 4.142-3.358 7.5-7.5 7.5z" fill="#fff"/><path d="m387.555 230.862h-28.452c-4.142 0-7.5-3.357-7.5-7.5s3.358-7.5 7.5-7.5h28.452c4.142 0 7.5 3.357 7.5 7.5s-3.358 7.5-7.5 7.5z" fill="#8ee2cf"/><path d="m336.271 230.862h-23.028c-4.142 0-7.5-3.357-7.5-7.5s3.358-7.5 7.5-7.5h23.028c4.142 0 7.5 3.357 7.5 7.5s-3.358 7.5-7.5 7.5z" fill="#a3defe"/><path d="m214.118 220.781c0 1.809-.895 3.618-2.686 4.652l-52.573 30.353c-6.173 3.564-13.777 3.564-19.95 0l-52.573-30.353c-1.79-1.034-2.686-2.843-2.686-4.652v-72.239h130.468z" fill="#8eafe2"/><path d="m83.65 148.543v72.239c0 1.809.896 3.618 2.686 4.652l41.382 23.892c-4.618-30.943-6.677-65.085-6.387-100.782h-37.681z" fill="#6a96d7"/><path d="m148.884 258.459c3.444 0 6.889-.891 9.975-2.673l52.573-30.353c1.791-1.034 2.686-2.843 2.686-4.652v-72.238h-65.234z" fill="#7acefa"/><path d="m86.336 143.891 52.573-30.353c6.173-3.564 13.777-3.564 19.95 0l52.573 30.353c3.581 2.068 3.581 7.236 0 9.304l-52.573 30.353c-6.173 3.564-13.777 3.564-19.95 0l-52.573-30.353c-3.581-2.068-3.581-7.237 0-9.304z" fill="#a3defe"/><path d="m121.915 123.349-35.579 20.542c-3.581 2.068-3.581 7.237 0 9.304l35.186 20.315c-.388-16.351-.25-33.127.393-50.161z" fill="#7acefa"/><path d="m0 322.042c0 33.726 27.341 61.067 61.067 61.067h126.476c-21.098-15.629-36.782-43.025-47.58-78.155h-139.963z" fill="#9aa3b1"/></svg>