<svg viewBox="1 -9 511.99998 511" xmlns="http://www.w3.org/2000/svg"><path d="m457.300781 329.480469h-402.601562v-292.683594c0-20.046875 16.25-36.296875 36.296875-36.296875h330.007812c20.042969 0 36.296875 16.25 36.296875 36.296875zm0 0" fill="#d8d7da"/><path d="m200.929688.5h-109.933594c-20.046875 0-36.296875 16.25-36.296875 36.296875v292.683594h109.933593v-292.683594c0-20.046875 16.25-36.296875 36.296876-36.296875zm0 0" fill="#c6c5ca"/><path d="m474.871094 492.628906h-437.742188c-20.507812 0-37.128906-16.621094-37.128906-37.128906v-103.09375c0-20.503906 16.621094-37.128906 37.128906-37.128906h437.742188c20.507812 0 37.128906 16.625 37.128906 37.128906v103.09375c0 20.507812-16.621094 37.128906-37.128906 37.128906zm0 0" fill="#eaeaea"/><path d="m125.988281 455.5v-103.09375c0-20.503906 16.625-37.128906 37.128907-37.128906h-125.988282c-20.507812 0-37.128906 16.625-37.128906 37.128906v103.09375c0 20.507812 16.621094 37.128906 37.128906 37.128906h125.988282c-20.503907 0-37.128907-16.621094-37.128907-37.128906zm0 0" fill="#d8d7da"/><path d="m399.460938 278.320312h-288.019532c-8.550781 0-15.484375-6.933593-15.484375-15.484374v-205.617188c0-8.550781 6.933594-15.484375 15.484375-15.484375h288.019532c8.550781 0 15.484374 6.933594 15.484374 15.484375v205.617188c0 8.550781-6.933593 15.484374-15.484374 15.484374zm0 0" fill="#7ec66a"/><path d="m384.527344 445.058594h59.332031c12.054687 0 21.824219-9.769532 21.824219-21.824219v-38.558594c0-12.054687-9.769532-21.824219-21.824219-21.824219h-59.332031c-12.054688 0-21.828125 9.769532-21.828125 21.824219v38.558594c0 12.054687 9.773437 21.824219 21.828125 21.824219zm0 0" fill="#acabb1"/><path d="m440.375 411.679688h-52.363281c-4.269531 0-7.726563-3.457032-7.726563-7.726563 0-4.265625 3.457032-7.726563 7.726563-7.726563h52.363281c4.269531 0 7.726562 3.460938 7.726562 7.726563 0 4.269531-3.457031 7.726563-7.726562 7.726563zm0 0" fill="#898890"/><path d="m238.296875 445.058594h59.332031c12.054688 0 21.828125-9.769532 21.828125-21.824219v-38.558594c0-12.054687-9.773437-21.824219-21.828125-21.824219h-59.332031c-12.050781 0-21.824219 9.769532-21.824219 21.824219v38.558594c0 12.054687 9.769532 21.824219 21.824219 21.824219zm0 0" fill="#acabb1"/><path d="m294.148438 411.679688h-52.367188c-4.269531 0-7.726562-3.457032-7.726562-7.726563 0-4.265625 3.457031-7.726563 7.726562-7.726563h52.367188c4.265624 0 7.722656 3.460938 7.722656 7.726563 0 4.269531-3.457032 7.726563-7.722656 7.726563zm0 0" fill="#898890"/><g fill="#acabb1"><path d="m53.691406 464.570312c-4.269531 0-7.726562-3.457031-7.726562-7.726562v-40.230469c0-4.265625 3.457031-7.726562 7.726562-7.726562 4.265625 0 7.726563 3.460937 7.726563 7.726562v40.230469c0 4.269531-3.460938 7.726562-7.726563 7.726562zm0 0"/><path d="m90.054688 464.570312c-4.269532 0-7.726563-3.457031-7.726563-7.726562v-40.230469c0-4.265625 3.457031-7.726562 7.726563-7.726562 4.265624 0 7.726562 3.460937 7.726562 7.726562v40.230469c0 4.269531-3.460938 7.726562-7.726562 7.726562zm0 0"/><path d="m126.417969 464.570312c-4.265625 0-7.726563-3.457031-7.726563-7.726562v-40.230469c0-4.265625 3.460938-7.726562 7.726563-7.726562s7.726562 3.460937 7.726562 7.726562v40.230469c0 4.269531-3.460937 7.726562-7.726562 7.726562zm0 0"/><path d="m162.78125 464.570312c-4.265625 0-7.726562-3.457031-7.726562-7.726562v-40.230469c0-4.265625 3.460937-7.726562 7.726562-7.726562 4.269531 0 7.726562 3.460937 7.726562 7.726562v40.230469c0 4.269531-3.457031 7.726562-7.726562 7.726562zm0 0"/></g><path d="m78.996094 387.425781h-14.246094c-6.109375 0-11.058594-4.949219-11.058594-11.058593v-14.246094c0-6.109375 4.949219-11.058594 11.058594-11.058594h14.246094c6.105468 0 11.058594 4.949219 11.058594 11.058594v14.246094c0 6.109374-4.953126 11.058593-11.058594 11.058593zm0 0" fill="#898890"/><path d="m111.441406 41.734375c-8.550781 0-15.484375 6.933594-15.484375 15.484375v72.730469l88.214844-88.214844zm0 0" fill="#92dd7a"/><path d="m414.945312 57.21875c0-8.550781-6.929687-15.484375-15.480468-15.484375h-4.96875l-236.585938 236.585937h83.839844l173.195312-173.199218zm0 0" fill="#92dd7a"/><path d="m255.449219 195.390625c-15.988281 0-28.945313-12.960937-28.945313-28.949219v-21.046875c0-4.363281 3.535156-7.902343 7.902344-7.902343h42.089844c4.367187 0 7.902344 3.539062 7.902344 7.902343v21.046875c0 15.988282-12.960938 28.949219-28.949219 28.949219zm0 0" fill="#57565c"/><path d="m189.496094 166.441406c0-13.582031-13.824219-24.589844-30.878906-24.589844-17.050782 0-30.875 11.007813-30.875 24.589844 0 13.582032 13.824218 24.589844 30.875 24.589844 17.054687 0 30.878906-11.007812 30.878906-24.589844zm0 0" fill="#fff"/><path d="m383.164062 166.441406c0-13.582031-13.824218-24.589844-30.878906-24.589844-17.054687 0-30.878906 11.007813-30.878906 24.589844 0 13.582032 13.824219 24.589844 30.878906 24.589844 17.054688 0 30.878906-11.007812 30.878906-24.589844zm0 0" fill="#fff"/><path d="m338.542969 152.941406c-4.269531 0-7.726563-3.457031-7.726563-7.726562v-12.824219c0-4.269531 3.457032-7.726563 7.726563-7.726563s7.726562 3.457032 7.726562 7.726563v12.824219c0 4.269531-3.460937 7.726562-7.726562 7.726562zm0 0" fill="#57565c"/><path d="m172.359375 152.941406c-4.265625 0-7.726563-3.457031-7.726563-7.726562v-12.824219c0-4.269531 3.460938-7.726563 7.726563-7.726563 4.269531 0 7.726563 3.457032 7.726563 7.726563v12.824219c0 4.269531-3.457032 7.726562-7.726563 7.726562zm0 0" fill="#57565c"/></svg>