<?xml version="1.0" encoding="iso-8859-1"?>
<!-- Generator: Adobe Illustrator 19.0.0, SVG Export Plug-In . SVG Version: 6.00 Build 0)  -->
<svg version="1.1" id="Capa_1" xmlns="http://www.w3.org/2000/svg" xmlns:xlink="http://www.w3.org/1999/xlink" x="0px" y="0px"
	 viewBox="0 0 512.001 512.001" style="enable-background:new 0 0 512.001 512.001;" xml:space="preserve">
<path style="fill:#B692DF;" d="M435.666,76.336c-34.771-34.771-143.397,17.481-242.623,116.708
	c-17.933,17.933-34.327,36.172-48.955,54.228c-1.464,1.806-3.744,2.794-6.049,2.487c-20.791-2.774-8.104-40.933,7.244-76.226
	c3.4-7.818-6.617-14.499-12.535-8.362C8.332,294.207,44.156,403.487,76.335,435.666c34.771,34.771,143.397-17.481,242.623-116.708
	c17.933-17.933,34.328-36.172,48.955-54.228c1.464-1.806,3.744-2.794,6.049-2.487c20.79,2.774,8.103,40.934-7.244,76.226
	c-3.4,7.818,6.617,14.499,12.535,8.362C503.669,217.795,467.845,108.515,435.666,76.336z"/>
<path style="opacity:0.1;enable-background:new    ;" d="M138.039,249.758c-20.791-2.774-8.104-40.933,7.244-76.226
	c3.394-7.804-6.58-14.473-12.502-8.392C117.487,202.192,112.509,251.249,138.039,249.758z M435.666,76.336
	c-1.538-1.538-3.228-2.897-5.048-4.098c29.902,39.189,53.737,142.6-62.636,263.302c-0.419,0.978-0.84,1.956-1.264,2.93
	c-3.4,7.818,6.617,14.499,12.535,8.362C503.669,217.795,467.845,108.515,435.666,76.336z M373.962,262.244
	c8.263,1.103,11.226,7.807,10.847,17.688c0.799-10.627-0.346-19.364-3.383-25.478c-4.297-8.653-16.142-9.94-22.345-2.533
	c-14.894,17.787-34.908,39.26-51.404,55.756C212.84,402.515,109.424,454.432,70.102,428.483c2.063,2.704,4.156,5.106,6.233,7.183
	c34.771,34.771,143.397-17.481,242.623-116.707c17.933-17.933,34.327-36.172,48.955-54.228
	C369.377,262.924,371.658,261.937,373.962,262.244z"/>
<ellipse transform="matrix(-0.7071 -0.7071 0.7071 -0.7071 255.9919 618.0359)" style="opacity:0.2;fill:#FFFFFF;enable-background:new    ;" cx="255.995" cy="256" rx="61.399" ry="162.338"/>
<path style="fill:#6A95E6;" d="M75.37,182.348c-1.531,0-3.076-0.467-4.409-1.438c-3.349-2.439-4.086-7.129-1.647-10.478
	c13.867-19.044,29.565-37.366,46.658-54.46c2.93-2.929,7.678-2.929,10.607,0s2.929,7.677,0,10.606
	c-16.543,16.544-31.73,34.269-45.141,52.683C79.97,181.278,77.686,182.348,75.37,182.348z"/>
<path style="fill:#F6CE6E;" d="M143.089,108.324c-2.083,0-4.155-0.862-5.638-2.55c-2.733-3.112-2.427-7.851,0.685-10.584
	c8.916-7.832,18.183-15.357,27.545-22.367c3.314-2.483,8.016-1.807,10.499,1.508c2.482,3.316,1.807,8.016-1.509,10.499
	c-9.051,6.777-18.012,14.054-26.635,21.63C146.612,107.71,144.847,108.324,143.089,108.324z"/>
<g>
	<path style="fill:#F49365;" d="M237.165,45.402c-2.791,0-5.471-1.565-6.763-4.249c-1.797-3.732-0.228-8.214,3.504-10.011
		C272.665,12.48,312.335,1.715,348.625,0.009c4.159-0.205,7.649,3.002,7.845,7.14c0.194,4.138-3.003,7.649-7.14,7.844
		c-34.295,1.612-71.958,11.87-108.916,29.664C239.365,45.163,238.256,45.402,237.165,45.402z"/>
	<path style="fill:#F49365;" d="M61.792,485.253c-1.531,0-3.075-0.467-4.407-1.437c-5.578-4.059-10.875-8.587-15.744-13.456
		C20.8,449.52,7.555,422.698,2.274,390.64c-0.673-4.087,2.094-7.946,6.182-8.62c4.087-0.675,7.945,2.095,8.619,6.181
		c4.761,28.9,16.596,52.974,35.174,71.552c4.318,4.319,9.016,8.335,13.963,11.935c3.35,2.438,4.088,7.128,1.65,10.478
		C66.394,484.183,64.109,485.253,61.792,485.253z"/>
</g>
<g>
	<path style="fill:#7ED3E9;" d="M8.606,342.47c-0.27,0-0.545-0.015-0.82-0.044c-4.118-0.448-7.093-4.149-6.645-8.268
		c3.707-34.066,15.119-70.839,33.002-106.344c1.863-3.7,6.375-5.189,10.072-3.325c3.699,1.863,5.188,6.372,3.324,10.072
		c-17.084,33.919-27.972,68.92-31.486,101.22C15.635,339.623,12.384,342.47,8.606,342.47z"/>
	<path style="fill:#7ED3E9;" d="M390.726,398.226c-1.919,0-3.839-0.732-5.304-2.197c-2.929-2.929-2.929-7.677,0-10.606
		c16.543-16.543,31.73-34.269,45.141-52.683c2.438-3.348,7.128-4.086,10.477-1.648c3.349,2.439,4.086,7.129,1.648,10.478
		c-13.867,19.043-29.565,37.366-46.658,54.46C394.565,397.494,392.645,398.226,390.726,398.226z"/>
</g>
<path style="fill:#6A95E6;" d="M341.831,440.677c-2.282,0-4.536-1.038-6.01-3.005c-2.482-3.316-1.807-8.016,1.509-10.499
	c9.051-6.777,18.012-14.054,26.635-21.63c3.113-2.733,7.852-2.427,10.585,0.685s2.427,7.85-0.685,10.584
	c-8.916,7.832-18.183,15.357-27.545,22.367C344.972,440.189,343.394,440.677,341.831,440.677z"/>
<path style="fill:#EB6E8B;" d="M163.018,512.001c-3.98,0-7.297-3.13-7.486-7.148c-0.194-4.138,3.003-7.649,7.14-7.844
	c34.295-1.612,71.958-11.87,108.916-29.665c3.73-1.797,8.215-0.229,10.012,3.504c1.797,3.732,0.228,8.214-3.504,10.011
	c-38.759,18.662-78.429,29.427-114.719,31.133C163.256,511.999,163.136,512.001,163.018,512.001z"/>
<path style="fill:#F6CE6E;" d="M502.318,130.082c-3.607,0-6.786-2.607-7.392-6.282c-4.761-28.9-16.596-52.974-35.174-71.552
	c-4.318-4.319-9.016-8.334-13.963-11.935c-3.35-2.438-4.088-7.128-1.65-10.478c2.438-3.35,7.13-4.087,10.477-1.65
	c5.578,4.059,10.875,8.587,15.744,13.456c20.841,20.84,34.086,47.662,39.367,79.72c0.673,4.087-2.094,7.946-6.182,8.62
	C503.133,130.049,502.722,130.082,502.318,130.082z"/>
<path style="fill:#6A95E6;" d="M471.154,288.315c-1.135,0-2.286-0.258-3.368-0.803c-3.699-1.863-5.188-6.372-3.324-10.072
	c17.084-33.919,27.972-68.92,31.486-101.22c0.447-4.117,4.139-7.089,8.267-6.645c4.118,0.448,7.093,4.149,6.645,8.268
	c-3.707,34.066-15.119,70.839-33.002,106.344C476.54,286.805,473.897,288.315,471.154,288.315z"/>
<path style="fill:#F6CE6E;" d="M297.412,66.579c-3.169,0-6.113-2.024-7.137-5.203c-1.27-3.943,0.898-8.168,4.84-9.438
	c19.036-6.129,37.497-9.74,54.869-10.733c4.124-0.223,7.68,2.924,7.915,7.06c0.237,4.136-2.924,7.68-7.059,7.916
	c-16.102,0.92-33.303,4.297-51.127,10.036C298.949,66.461,298.173,66.579,297.412,66.579z"/>
<path style="fill:#EB6E8B;" d="M201.171,117.315c-2.302,0-4.573-1.056-6.044-3.052c-2.457-3.335-1.745-8.03,1.59-10.487
	c17.923-13.206,36.47-24.643,55.123-33.994c3.705-1.855,8.209-0.359,10.066,3.343c1.855,3.703,0.359,8.209-3.344,10.066
	c-17.895,8.971-35.709,19.96-52.949,32.661C204.275,116.839,202.716,117.315,201.171,117.315z"/>
<path style="fill:#F6CE6E;" d="M161.582,470.81c-3.946,0-7.253-3.082-7.48-7.072c-0.237-4.136,2.924-7.68,7.059-7.916
	c16.102-0.92,33.303-4.297,51.127-10.036c3.941-1.268,8.168,0.897,9.438,4.84s-0.897,8.168-4.84,9.438
	c-19.036,6.129-37.497,9.74-54.869,10.733C161.872,470.806,161.727,470.81,161.582,470.81z"/>
<path style="fill:#F49365;" d="M256.805,443.017c-2.749,0-5.395-1.516-6.711-4.14c-1.855-3.703-0.359-8.21,3.344-10.066
	c17.895-8.971,35.709-19.96,52.949-32.661c3.335-2.457,8.028-1.745,10.486,1.589c2.457,3.335,1.745,8.03-1.59,10.487
	c-17.923,13.206-36.47,24.643-55.123,33.994C259.082,442.76,257.935,443.017,256.805,443.017z"/>
<g style="opacity:0.1;">
	<path d="M92.925,370.794c-1.919,0-3.839-0.732-5.303-2.197c-16.477-16.476-16.608-60.077-0.281-93.307
		c1.826-3.717,6.319-5.249,10.039-3.424c3.718,1.827,5.25,6.321,3.424,10.039c-15.58,31.709-11.868,66.794-2.576,76.086
		c2.93,2.929,2.93,7.677,0.001,10.607C96.764,370.061,94.844,370.794,92.925,370.794z"/>
	<path d="M417.922,240.906c-1.11,0-2.237-0.248-3.302-0.77c-3.718-1.827-5.25-6.321-3.424-10.039
		c15.58-31.709,11.868-66.794,2.576-76.086c-2.93-2.929-2.93-7.677-0.001-10.606c2.93-2.929,7.679-2.93,10.606,0
		c16.477,16.476,16.608,60.077,0.281,93.307C423.356,239.365,420.692,240.906,417.922,240.906z"/>
</g>
<g>
	<path style="fill:#3F4C58;" d="M189.666,314.283c-1.92,0-3.839-0.732-5.304-2.197l-7.01-7.011
		c-2.929-2.929-2.929-7.678,0.001-10.606c2.929-2.93,7.678-2.928,10.607,0.001l7.01,7.011c2.929,2.929,2.929,7.678-0.001,10.606
		C193.505,313.551,191.585,314.283,189.666,314.283z"/>
	<path style="fill:#3F4C58;" d="M306.783,197.167c-1.919,0-3.839-0.732-5.303-2.196l-7.011-7.01
		c-2.93-2.929-2.93-7.678-0.001-10.607c2.93-2.929,7.679-2.929,10.606,0l7.011,7.01c2.93,2.929,2.93,7.678,0.001,10.607
		C310.622,196.435,308.702,197.167,306.783,197.167z"/>
	<circle style="fill:#3F4C58;" cx="256" cy="256" r="20.911"/>
</g>
<g>
</g>
<g>
</g>
<g>
</g>
<g>
</g>
<g>
</g>
<g>
</g>
<g>
</g>
<g>
</g>
<g>
</g>
<g>
</g>
<g>
</g>
<g>
</g>
<g>
</g>
<g>
</g>
<g>
</g>
</svg>
