<?xml version="1.0" encoding="iso-8859-1"?>
<!-- Generator: Adobe Illustrator 19.0.0, SVG Export Plug-In . SVG Version: 6.00 Build 0)  -->
<svg version="1.1" id="Capa_1" xmlns="http://www.w3.org/2000/svg" xmlns:xlink="http://www.w3.org/1999/xlink" x="0px" y="0px"
	 viewBox="0 0 512 512" style="enable-background:new 0 0 512 512;" xml:space="preserve">
<path style="fill:#3F4C58;" d="M256,86.941c-4.143,0-7.5-3.357-7.5-7.5V27.229c0-4.143,3.357-7.5,7.5-7.5s7.5,3.357,7.5,7.5v52.213
	C263.5,83.584,260.143,86.941,256,86.941z"/>
<circle style="fill:#EB6E8B;" cx="256.12" cy="20.13" r="20.13"/>
<path style="opacity:0.1;enable-background:new    ;" d="M267.942,3.865c1.427,2.763,2.247,5.891,2.247,9.216
	c0,11.118-9.013,20.13-20.13,20.13c-4.425,0-8.503-1.445-11.826-3.865c3.345,6.478,10.09,10.914,17.883,10.914
	c11.118,0,20.13-9.013,20.13-20.13C276.247,13.438,272.967,7.525,267.942,3.865z"/>
<path style="fill:#7ED3E9;" d="M367.051,74.435H144.949c-39.67,0-71.829,32.159-71.829,71.829l0,0
	c0,39.67,32.159,71.829,71.829,71.829H367.05c39.67,0,71.829-32.159,71.829-71.829l0,0
	C438.879,106.594,406.72,74.435,367.051,74.435z"/>
<path style="opacity:0.1;enable-background:new    ;" d="M393.39,79.441c10.223,12.409,16.364,28.308,16.364,45.642
	c0,39.67-32.159,71.829-71.828,71.829H115.825c-9.302,0-18.181-1.788-26.34-5.006c13.174,15.991,33.128,26.187,55.464,26.187H367.05
	c39.67,0,71.829-32.159,71.829-71.829l0,0C438.879,115.896,420.024,89.949,393.39,79.441z"/>
<path style="fill:#6A95E6;" d="M350.22,276.886H161.78c-9.549,0-17.289-7.741-17.289-17.289v-24.214
	c0-9.549,7.741-17.289,17.289-17.289h188.44c9.548,0,17.289,7.741,17.289,17.289v24.214
	C367.509,269.145,359.768,276.886,350.22,276.886z"/>
<path style="opacity:0.1;enable-background:new    ;" d="M350.22,218.093h-0.256c0.14,0.885,0.233,1.785,0.233,2.709v24.214
	c0,9.549-7.741,17.289-17.289,17.289H144.724c1.303,8.258,8.432,14.58,17.056,14.58h188.44c9.548,0,17.289-7.741,17.289-17.289
	v-24.214C367.509,225.834,359.768,218.093,350.22,218.093z"/>
<path style="fill:#EAEAEA;" d="M339.981,276.886H172.019V451.4c0,7.625,6.181,13.806,13.806,13.806h140.35
	c7.625,0,13.806-6.181,13.806-13.806V276.886z"/>
<path style="fill:#EB6E8B;" d="M339.981,418.325H172.019V451.4c0,7.625,6.181,13.806,13.806,13.806h140.35
	c7.625,0,13.806-6.181,13.806-13.806V418.325z"/>
<path style="fill:#3F4C58;" d="M352.275,512h36.264c6.79,0,12.294-5.504,12.294-12.294v-93.658c0-6.79-5.504-12.294-12.294-12.294
	h-36.264c-6.79,0-12.294,5.504-12.294,12.294v93.658C339.981,506.496,345.485,512,352.275,512z"/>
<path style="opacity:0.3;enable-background:new    ;" d="M360.413,436.042c1.919,0,3.839-0.732,5.303-2.196
	c2.93-2.93,2.93-7.678,0.001-10.606l-23.798-23.799c-1.221,1.91-1.938,4.173-1.938,6.608v12.668l15.129,15.129
	C356.574,435.31,358.493,436.042,360.413,436.042z M380.4,416.581c1.919,0,3.839-0.732,5.304-2.196l13.824-13.824
	c-2.017-4.032-6.174-6.807-10.99-6.807h-3.419l-10.023,10.023c-2.929,2.93-2.929,7.678,0,10.607
	C376.561,415.849,378.481,416.581,380.4,416.581z M375.097,497.844c1.465,1.464,3.385,2.196,5.304,2.196
	c1.919,0,3.839-0.732,5.304-2.196l15.129-15.129V461.5l-25.736,25.736C372.168,490.166,372.168,494.914,375.097,497.844z
	 M375.097,445.507c-2.929,2.93-2.929,7.678,0,10.607c1.465,1.464,3.385,2.196,5.304,2.196c1.919,0,3.839-0.732,5.304-2.196
	l15.129-15.129V419.77L375.097,445.507z M339.981,439.231v21.215l15.129,15.129c1.465,1.464,3.385,2.196,5.304,2.196
	c1.919,0,3.839-0.732,5.304-2.196c2.929-2.93,2.929-7.678,0-10.607L339.981,439.231z"/>
<path style="fill:#3F4C58;" d="M159.725,512h-36.264c-6.79,0-12.294-5.504-12.294-12.294v-93.658c0-6.79,5.504-12.294,12.294-12.294
	h36.264c6.79,0,12.294,5.504,12.294,12.294v93.658C172.019,506.496,166.515,512,159.725,512z"/>
<path style="opacity:0.3;enable-background:new    ;" d="M156.891,433.845l15.129-15.129v-12.668c0-2.435-0.717-4.698-1.938-6.608
	l-23.798,23.799c-2.929,2.929-2.929,7.677,0.001,10.606c1.464,1.464,3.384,2.196,5.303,2.196
	C153.507,436.042,155.426,435.31,156.891,433.845z M136.903,414.385c2.929-2.93,2.929-7.678,0-10.607l-10.023-10.023h-3.419
	c-4.815,0-8.972,2.775-10.989,6.807l13.824,13.824c1.465,1.464,3.385,2.196,5.304,2.196
	C133.519,416.581,135.439,415.849,136.903,414.385z M136.903,487.236L111.167,461.5v21.215l15.129,15.129
	c1.465,1.464,3.385,2.196,5.304,2.196c1.919,0,3.839-0.732,5.304-2.196C139.832,494.914,139.832,490.166,136.903,487.236z
	 M111.167,419.771v21.215l15.129,15.129c1.465,1.464,3.385,2.196,5.304,2.196c1.919,0,3.839-0.732,5.304-2.196
	c2.929-2.93,2.929-7.678,0-10.607L111.167,419.771z M146.283,464.967c-2.929,2.93-2.929,7.678,0,10.607
	c1.465,1.464,3.385,2.196,5.304,2.196s3.839-0.732,5.304-2.196l15.129-15.129V439.23L146.283,464.967z"/>
<path style="fill:#A9B3C7;" d="M172.019,348.085H93.395c-4.665,0-8.929-2.633-11.02-6.802L52.05,280.79l22.039-11.049l26.916,53.691
	h71.014V348.085z"/>
<g>
	<path style="fill:#6A95E6;" d="M55.452,293.105c-18.353,1.042-36.262-9.313-43.928-27.156l-4.36-10.146
		c-0.918-2.136,0.07-4.612,2.206-5.53l20.579-8.842c2.136-0.918,4.612,0.07,5.53,2.206l4.36,10.147
		c3.083,7.18,11.433,10.514,18.611,7.425c3.593-1.543,6.342-4.438,7.703-8.122c1.3-3.52,1.035-7.431-0.446-10.879l-4.192-9.756
		c-0.918-2.136,0.07-4.612,2.206-5.53L84.3,218.08c2.136-0.918,4.612,0.07,5.53,2.206l4.36,10.147
		c4.743,11.04,4.903,23.267,0.451,34.428c-4.453,11.161-12.986,19.919-24.026,24.663C65.665,291.65,60.541,292.815,55.452,293.105z"
		/>
	<circle style="fill:#6A95E6;" cx="94.29" cy="334.41" r="20.408"/>
</g>
<path style="opacity:0.1;enable-background:new    ;" d="M104.687,316.871c1.81,3.047,2.868,6.593,2.868,10.395
	c0,11.271-9.137,20.408-20.409,20.408c-3.801,0-7.347-1.058-10.395-2.868c3.557,5.988,10.07,10.014,17.54,10.014
	c11.271,0,20.408-9.137,20.408-20.408C114.701,326.941,110.675,320.428,104.687,316.871z"/>
<path style="fill:#A9B3C7;" d="M339.981,348.085h78.624c4.665,0,8.929-2.633,11.02-6.802l30.325-60.493l-22.039-11.049
	l-26.916,53.691h-71.014V348.085z"/>
<g>
	<path style="fill:#6A95E6;" d="M456.548,293.105c18.353,1.042,36.262-9.313,43.928-27.156l4.36-10.146
		c0.918-2.136-0.07-4.612-2.206-5.53l-20.579-8.842c-2.136-0.918-4.612,0.07-5.53,2.206l-4.36,10.147
		c-3.083,7.18-11.434,10.514-18.611,7.425c-3.593-1.543-6.342-4.438-7.703-8.122c-1.3-3.52-1.035-7.431,0.446-10.879l4.192-9.756
		c0.918-2.136-0.07-4.612-2.206-5.53L427.7,218.08c-2.136-0.918-4.612,0.07-5.53,2.206l-4.36,10.147
		c-4.742,11.04-4.903,23.267-0.451,34.428c4.453,11.161,12.986,19.919,24.026,24.663
		C446.335,291.65,451.459,292.815,456.548,293.105z"/>
	<circle style="fill:#6A95E6;" cx="417.71" cy="334.41" r="20.408"/>
</g>
<g>
	<path style="fill:#3F4C58;" d="M172.669,143.107c-4.143,0-7.5-3.357-7.5-7.5v-9.977c0-4.143,3.357-7.5,7.5-7.5s7.5,3.357,7.5,7.5
		v9.977C180.169,139.75,176.811,143.107,172.669,143.107z"/>
	<path style="fill:#3F4C58;" d="M339.331,143.107c-4.143,0-7.5-3.357-7.5-7.5v-9.977c0-4.143,3.357-7.5,7.5-7.5s7.5,3.357,7.5,7.5
		v9.977C346.831,139.75,343.474,143.107,339.331,143.107z"/>
	<path style="fill:#3F4C58;" d="M272.488,150.409c0,9.37-7.817,16.915-17.285,16.469c-8.868-0.418-15.691-8.057-15.691-16.935
		V137.69c0-3.887,3.151-7.038,7.038-7.038h18.901c3.887,0,7.038,3.151,7.038,7.038L272.488,150.409L272.488,150.409z"/>
</g>
<path style="fill:#6A95E6;" d="M258.578,317.217h22.607v30.868h-30.868v-22.607C250.317,320.915,254.016,317.217,258.578,317.217z"
	/>
<path style="fill:#EB6E8B;" d="M281.186,317.217h22.607c4.562,0,8.261,3.699,8.261,8.261v22.607h-30.868L281.186,317.217
	L281.186,317.217z"/>
<path style="fill:#F6CE6E;" d="M250.317,348.085h30.868v30.868h-22.607c-4.562,0-8.261-3.699-8.261-8.261V348.085z"/>
<path style="fill:#6A95E6;" d="M281.186,348.085h30.868v22.607c0,4.563-3.699,8.261-8.261,8.261h-22.607L281.186,348.085
	L281.186,348.085z"/>
<circle style="fill:#EB6E8B;" cx="210.16" cy="332.36" r="13.634"/>
<path style="fill:#3F4C58;" d="M223.791,377.225h-27.268c-4.143,0-7.5-3.357-7.5-7.5s3.357-7.5,7.5-7.5h27.268
	c4.143,0,7.5,3.357,7.5,7.5C231.291,373.867,227.934,377.225,223.791,377.225z"/>
<path style="opacity:0.1;enable-background:new    ;" d="M172.019,276.886v25.211h147.529v132.049
	c0,7.625-6.181,13.806-13.806,13.806H172.019v3.448c0,7.625,6.181,13.806,13.806,13.806h140.35c7.625,0,13.806-6.181,13.806-13.806
	V276.886H172.019z"/>
<path style="opacity:0.1;enable-background:new    ;" d="M428.103,316.871c1.81,3.047,2.868,6.593,2.868,10.395
	c0,11.271-9.137,20.408-20.408,20.408c-3.802,0-7.348-1.058-10.395-2.868c3.557,5.988,10.07,10.014,17.54,10.014
	c11.271,0,20.409-9.137,20.409-20.408C438.116,326.941,434.091,320.428,428.103,316.871z"/>
<rect x="158.76" y="323.43" style="opacity:0.1;enable-background:new    ;" width="13.263" height="24.653"/>
<rect x="339.98" y="323.43" style="opacity:0.1;enable-background:new    ;" width="13.263" height="24.653"/>
<path style="opacity:0.15;enable-background:new    ;" d="M388.539,393.754h-1.507v92.151c0,6.79-5.504,12.294-12.294,12.294
	h-34.757v1.507c0,6.79,5.504,12.294,12.294,12.294h36.264c6.79,0,12.294-5.504,12.294-12.294v-93.658
	C400.833,399.258,395.328,393.754,388.539,393.754z"/>
<path style="opacity:0.15;enable-background:new    ;" d="M159.725,393.754h-1.507v92.151c0,6.79-5.504,12.294-12.294,12.294
	h-34.757v1.507c0,6.79,5.504,12.294,12.294,12.294h36.264c6.79,0,12.294-5.504,12.294-12.294v-93.658
	C172.019,399.258,166.515,393.754,159.725,393.754z"/>
<g>
</g>
<g>
</g>
<g>
</g>
<g>
</g>
<g>
</g>
<g>
</g>
<g>
</g>
<g>
</g>
<g>
</g>
<g>
</g>
<g>
</g>
<g>
</g>
<g>
</g>
<g>
</g>
<g>
</g>
</svg>
