<svg height="512pt" viewBox="0 -122 512.00041 512" width="512pt" xmlns="http://www.w3.org/2000/svg"><path d="m315.542969 99.738281-16.488281 41.785157 121.449218 47.925781c16.910156 6.671875 20.417969 23.515625 20.417969 23.515625 2.6875 11.214844 10.675781 20.414062 21.402344 24.648437 18.160156 7.164063 38.6875-1.746093 45.855469-19.90625 0 0 17.808593-34.921875-23.464844-51.210937zm0 0" fill="#8697a6"/><path d="m299.054688 141.523438 119.828124 47.285156c6.90625-17.1875 6.988282-33.113282 4.015626-46.707032l-107.355469-42.363281zm0 0" fill="#6b7d8e"/><path d="m24.949219 21.398438-18.648438 47.253906c-18.226562 46.191406 4.441407 98.414062 50.632813 116.640625 41.976562 16.566406 88.929687-.640625 110.832031-38.582031 3.890625-6.742188 12.207031-9.527344 19.449219-6.667969 7.242187 2.855469 11.417968 10.570312 9.65625 18.152343-9.910156 42.671876 12.640625 87.304688 54.617187 103.871094 46.191407 18.226563 98.414063-4.445312 116.640625-50.636718l18.648438-47.25c6.851562-17.363282-1.671875-36.992188-19.035156-43.84375l-298.953126-117.96875c-17.363281-6.851563-36.992187 1.671874-43.839843 19.03125zm0 0" fill="#a5b1bd"/><path d="m85.847656 62.820312c13.9375-45.699218 49.066406-34.273437 54.011719-32.40625l-71.070313-28.046874c-17.363281-6.851563-36.992187 1.671874-43.84375 19.035156l-18.644531 47.25c-18.226562 46.195312 4.441407 98.414062 50.632813 116.644531 26.183594 10.332031 54.300781 7.523437 77.066406-5.257813-13.710938-53.25-60.605469-76.390624-48.152344-117.21875zm0 0" fill="#8697a6"/><path d="m71.550781 150.742188c-27.464843-10.300782-40.792969-41.910157-30.027343-69.191407l9.84375-24.945312c3.921874-9.941407 15.160156-14.820313 25.101562-10.894531l61.515625 24.273437c9.941406 3.921875 14.820313 15.160156 10.894531 25.101563l-10.183594 25.8125c-10.496093 26.601562-40.472656 39.84375-67.144531 29.84375zm0 0" fill="#2eddda"/><path d="m137.984375 69.984375-61.515625-24.273437c-9.941406-3.925782-21.179688.953124-25.101562 10.894531l-9.84375 24.945312c-.378907.960938 8.46875-12.101562 23.273437-6.257812l61.515625 24.273437c14.578125 5.753906 12.054688 22.171875 12.386719 21.332032l10.183593-25.8125c3.921876-9.941407-.957031-21.179688-10.898437-25.101563zm0 0" fill="#00bdba"/><path d="m266.105469 227.511719c-27.464844-10.296875-40.792969-41.90625-30.027344-69.1875l9.84375-24.949219c3.921875-9.9375 15.160156-14.816406 25.101563-10.894531l61.515624 24.273437c9.941407 3.921875 14.820313 15.160156 10.894532 25.101563l-10.183594 25.8125c-10.5 26.601562-40.472656 39.84375-67.144531 29.84375zm0 0" fill="#fd5c6f"/><path d="m332.539062 146.757812-61.515624-24.277343c-9.941407-3.921875-21.179688.957031-25.101563 10.898437l-9.84375 24.945313c-.378906.960937 8.464844-12.101563 23.269531-6.261719l61.519532 24.277344c14.578124 5.753906 12.050781 22.167968 12.382812 21.328125l10.183594-25.808594c3.921875-9.941406-.957032-21.179687-10.894532-25.101563zm0 0" fill="#d22239"/></svg>