<svg id="Capa_1" enable-background="new 0 0 497 497" height="512" viewBox="0 0 497 497" width="512" xmlns="http://www.w3.org/2000/svg"><path d="m155.763 293.375-131.14 88.356c-.174.117-.343.241-.506.373-15.327 12.332-24.117 30.676-24.117 50.329 0 35.602 28.965 64.567 64.567 64.567 19.654 0 38.246-9.128 50.577-24.456l88.479-131.309v-47.86z" fill="#4293dd"/><path d="m155.763 293.375-131.14 88.356c-.174.117-.343.241-.506.373-15.327 12.332-24.117 30.676-24.117 50.329 0 35.602 28.965 64.567 64.567 64.567 19.654 0 38.246-9.128 50.577-24.456-17.258-62.635-1.876-130.031 40.619-179.169z" fill="#3085d1"/><path d="m340.186 2.46c-9.876-1.609-20.006-2.46-30.336-2.46-103.36 0-187.15 83.79-187.15 187.15s83.79 187.15 187.15 187.15c10.33 0 20.46-.851 30.335-2.46 88.932-14.497 156.815-91.66 156.815-184.69s-67.883-170.192-156.814-184.69z" fill="#55dafe"/><path d="m183.37 187.15c0-93.03 67.883-170.192 156.815-184.69-9.875-1.609-20.005-2.46-30.335-2.46-103.36 0-187.15 83.79-187.15 187.15s83.79 187.15 187.15 187.15c10.33 0 20.46-.851 30.335-2.46-88.932-14.497-156.815-91.66-156.815-184.69z" fill="#1cbbea"/><ellipse cx="309.85" cy="187.15" fill="#b9f0ff" rx="127.15" ry="127.15" transform="matrix(1 -.03 .03 1 -5.47 9.37)"/><path d="m247.033 220.059c-18.146-67.722 22.187-137.581 89.908-155.727.95-.254 1.899-.494 2.85-.725-20.046-4.895-41.551-4.982-62.85.725-67.722 18.146-108.054 88.005-89.908 155.727 17.89 66.768 86.046 106.908 152.862 90.637-43.689-10.671-80.424-44.217-92.862-90.637z" fill="#7ce3ff"/><path d="m219.85 276.929c16.503 16.488 37.313 28.206 60 33.756l20-72.349-20-72.349h-45c-8.284 0-15 6.715-15 15z" fill="#ffce71"/><path d="m324.85 105.986h-30c-8.284 0-15 6.715-15 15v189.699c19.15 4.685 39.636 4.974 60 .022l20-72.372-20-32.35v-85c0-8.284-6.716-14.999-15-14.999z" fill="#b28ae4"/><path d="m399.85 220.985c0-8.284-6.716-15-15-15h-45v104.722c.97-.235 1.939-.48 2.908-.74 22.405-6.003 41.808-17.67 57.092-33.044z" fill="#ec6b7e"/><path d="m247.033 220.059c-4.882-18.22-5.525-36.593-2.547-54.073h-9.636c-8.284 0-15 6.715-15 15v95.943l.005.005c16.355 16.329 37.149 28.166 59.995 33.751v-33.788c-15.257-15.244-26.845-34.549-32.817-56.838z" fill="#ffb357"/><path d="m339.856 310.686c-22.694-5.55-43.5-17.285-60.006-33.779v33.771c19.537 4.812 40.158 4.848 60 .029z" fill="#976bcf"/></svg>