<svg id="Capa_1" enable-background="new 0 0 512 512" height="512" viewBox="0 0 512 512" width="512" xmlns="http://www.w3.org/2000/svg"><g><g><path d="m491.396 512h-370.865c-11.379 0-20.604-9.225-20.604-20.604v-370.865c0-11.379 9.225-20.604 20.604-20.604h370.865c11.379 0 20.604 9.225 20.604 20.604v370.865c0 11.379-9.225 20.604-20.604 20.604z" fill="#efe6e6"/></g><g><path d="m120.531 99.928c-11.379 0-20.604 9.225-20.604 20.604v332.748h291.541c34.082 0 61.811-27.728 61.811-61.811v-291.541z" fill="#e2d7d7"/></g><g><path d="m491.396 99.928h-370.865c-11.379 0-20.604 9.225-20.604 20.604v79.324h412.073v-79.324c0-11.38-9.225-20.604-20.604-20.604z" fill="#a4e7ff"/></g><g><path d="m453.28 99.928h-332.749c-11.379 0-20.604 9.225-20.604 20.604v79.324h353.353z" fill="#5ad6ff"/></g><g><circle cx="462.036" cy="149.891" fill="#fd5c6f" r="25.755"/></g><g><path d="m453.28 125.666c-9.913 3.584-16.998 13.076-16.998 24.225s7.085 20.641 16.998 24.225z" fill="#f6334c"/></g><g><path d="m391.469 412.072h-370.865c-11.379 0-20.604-9.224-20.604-20.603v-370.865c0-11.379 9.225-20.604 20.604-20.604h370.865c11.379 0 20.604 9.225 20.604 20.604v370.865c-.001 11.379-9.225 20.603-20.604 20.603z" fill="#fff"/></g><g><path d="m412.072 370.865c-204.823 0-370.865-166.042-370.865-370.865h-20.603c-11.379 0-20.604 9.225-20.604 20.604v370.865c0 11.379 9.225 20.604 20.604 20.604h370.865c11.379 0 20.604-9.225 20.604-20.604z" fill="#efe6e6"/></g><g><path d="m391.469 0h-370.865c-11.379 0-20.604 9.225-20.604 20.604v79.324h412.072v-79.324c0-11.379-9.224-20.604-20.603-20.604z" fill="#a4e7ff"/></g><g><path d="m0 20.604v79.324h54.832c-8.874-31.792-13.625-65.305-13.625-99.928h-20.603c-11.379 0-20.604 9.225-20.604 20.604z" fill="#5ad6ff"/></g><g><circle cx="362.109" cy="49.964" fill="#fd5c6f" r="25.755"/></g><g><circle cx="286.39" cy="49.964" fill="#29ce69" r="25.755"/></g><g><g><g><path d="m56.479 241.438c-4.142 0-7.5-3.358-7.5-7.5v-63.952h-7.772c-4.142 0-7.5-3.358-7.5-7.5s3.358-7.5 7.5-7.5h15.272c4.142 0 7.5 3.358 7.5 7.5v71.452c0 4.143-3.357 7.5-7.5 7.5z" fill="#6b7d8e"/></g></g><g><g><path d="m187.444 241.438c-4.142 0-7.5-3.358-7.5-7.5v-63.952h-7.772c-4.142 0-7.5-3.358-7.5-7.5s3.358-7.5 7.5-7.5h15.272c4.142 0 7.5 3.358 7.5 7.5v71.452c0 4.143-3.358 7.5-7.5 7.5z" fill="#6b7d8e"/></g></g><g><g><path d="m239.9 241.438c-4.142 0-7.5-3.358-7.5-7.5v-63.952h-7.772c-4.142 0-7.5-3.358-7.5-7.5s3.358-7.5 7.5-7.5h15.272c4.142 0 7.5 3.358 7.5 7.5v71.452c0 4.143-3.358 7.5-7.5 7.5z" fill="#6b7d8e"/></g></g><g><g><path d="m370.865 241.438c-4.142 0-7.5-3.358-7.5-7.5v-63.952h-7.772c-4.142 0-7.5-3.358-7.5-7.5s3.358-7.5 7.5-7.5h15.272c4.142 0 7.5 3.358 7.5 7.5v71.452c0 4.143-3.358 7.5-7.5 7.5z" fill="#6b7d8e"/></g></g><g><g><path d="m114.326 242.896c-15.529 0-28.162-12.633-28.162-28.162v-33.044c0-15.529 12.633-28.162 28.162-28.162s28.162 12.633 28.162 28.162v33.044c0 15.529-12.634 28.162-28.162 28.162zm0-74.368c-7.258 0-13.162 5.904-13.162 13.162v33.044c0 7.258 5.904 13.162 13.162 13.162s13.162-5.904 13.162-13.162v-33.044c0-7.257-5.905-13.162-13.162-13.162z" fill="#6b7d8e"/></g></g><g><g><path d="m297.747 242.896c-15.529 0-28.162-12.633-28.162-28.162v-33.044c0-15.529 12.633-28.162 28.162-28.162s28.162 12.633 28.162 28.162v33.044c0 15.529-12.634 28.162-28.162 28.162zm0-74.368c-7.258 0-13.162 5.904-13.162 13.162v33.044c0 7.258 5.904 13.162 13.162 13.162s13.162-5.904 13.162-13.162v-33.044c0-7.257-5.905-13.162-13.162-13.162z" fill="#6b7d8e"/></g></g><g><g><path d="m56.479 357.014c-4.142 0-7.5-3.358-7.5-7.5v-63.952h-7.772c-4.142 0-7.5-3.358-7.5-7.5s3.358-7.5 7.5-7.5h15.272c4.142 0 7.5 3.358 7.5 7.5v71.452c0 4.142-3.357 7.5-7.5 7.5z" fill="#6b7d8e"/></g></g><g><g><path d="m263.56 357.014c-4.142 0-7.5-3.358-7.5-7.5v-63.952h-7.772c-4.142 0-7.5-3.358-7.5-7.5s3.358-7.5 7.5-7.5h15.272c4.142 0 7.5 3.358 7.5 7.5v71.452c0 4.142-3.358 7.5-7.5 7.5z" fill="#6b7d8e"/></g></g><g><g><path d="m318.409 357.014c-4.142 0-7.5-3.358-7.5-7.5v-63.952h-7.772c-4.142 0-7.5-3.358-7.5-7.5s3.358-7.5 7.5-7.5h15.272c4.142 0 7.5 3.358 7.5 7.5v71.452c0 4.142-3.358 7.5-7.5 7.5z" fill="#6b7d8e"/></g></g><g><g><path d="m370.865 357.014c-4.142 0-7.5-3.358-7.5-7.5v-63.952h-7.772c-4.142 0-7.5-3.358-7.5-7.5s3.358-7.5 7.5-7.5h15.272c4.142 0 7.5 3.358 7.5 7.5v71.452c0 4.142-3.358 7.5-7.5 7.5z" fill="#6b7d8e"/></g></g><g><g><path d="m118.349 358.472c-15.529 0-28.162-12.633-28.162-28.162v-33.044c0-15.529 12.633-28.162 28.162-28.162s28.163 12.633 28.163 28.162v33.044c-.001 15.528-12.635 28.162-28.163 28.162zm0-74.368c-7.258 0-13.162 5.904-13.162 13.162v33.044c0 7.258 5.904 13.162 13.162 13.162s13.163-5.904 13.163-13.162v-33.044c-.001-7.258-5.906-13.162-13.163-13.162z" fill="#6b7d8e"/></g></g><g><g><path d="m192.834 358.472c-15.529 0-28.162-12.633-28.162-28.162v-33.044c0-15.529 12.633-28.162 28.162-28.162s28.162 12.633 28.162 28.162v33.044c0 15.528-12.633 28.162-28.162 28.162zm0-74.368c-7.258 0-13.162 5.904-13.162 13.162v33.044c0 7.258 5.904 13.162 13.162 13.162s13.162-5.904 13.162-13.162v-33.044c0-7.258-5.904-13.162-13.162-13.162z" fill="#6b7d8e"/></g></g></g></g></svg>