<?xml version="1.0" encoding="iso-8859-1"?>
<!-- Generator: Adobe Illustrator 19.0.0, SVG Export Plug-In . SVG Version: 6.00 Build 0)  -->
<svg version="1.1" id="Capa_1" xmlns="http://www.w3.org/2000/svg" xmlns:xlink="http://www.w3.org/1999/xlink" x="0px" y="0px"
	 viewBox="0 0 512 512" style="enable-background:new 0 0 512 512;" xml:space="preserve">
<path style="fill:#3F4C58;" d="M361.707,157.793c-1.919,0-3.839-0.732-5.304-2.197c-2.929-2.929-2.929-7.678,0-10.607l38.757-38.757
	c2.93-2.929,7.678-2.929,10.607,0s2.929,7.678,0,10.606l-38.757,38.757C365.546,157.061,363.626,157.793,361.707,157.793z"/>
<path style="fill:#EAEAEA;" d="M205.378,424.46L87.54,306.622c-7.387-7.387-7.387-19.363,0-26.749L279.874,87.539
	c7.387-7.387,19.363-7.387,26.749,0l117.838,117.838c7.387,7.387,7.387,19.363,0,26.749L232.127,424.46
	C224.74,431.846,212.764,431.846,205.378,424.46z"/>
<path style="opacity:0.1;enable-background:new    ;" d="M424.461,205.377l-20.398-20.398c7.387,7.387,7.387,19.363,0,26.749
	L211.729,404.062c-7.387,7.386-19.363,7.387-26.749,0l20.398,20.398c7.387,7.387,19.363,7.387,26.749,0l192.334-192.334
	C431.847,224.74,431.847,212.764,424.461,205.377z"/>
<path style="fill:#7ED3E9;" d="M385.625,508.661l-73.808-73.808c-4.45-4.45-4.45-11.665,0-16.116l106.921-106.921
	c4.45-4.45,11.665-4.45,16.116,0l73.808,73.808c4.45,4.45,4.45,11.665,0,16.116L401.741,508.661
	C397.291,513.112,390.076,513.112,385.625,508.661z"/>
<path style="fill:#EB6E8B;" d="M415.758,374.746l-29.975-29.975l32.955-32.955c4.45-4.45,11.665-4.45,16.116,0l21.917,21.917
	L415.758,374.746z"/>
<path style="fill:#6A95E6;" d="M475.708,434.695l-29.975-29.975l41.012-41.012l21.917,21.917c4.45,4.45,4.45,11.665,0,16.116
	L475.708,434.695z"/>
<rect x="359.069" y="351.257" transform="matrix(-0.7071 -0.7071 0.7071 -0.7071 380.2688 918.0259)" style="fill:#F6CE6E;" width="42.39" height="57.999"/>
<rect x="389.042" y="381.228" transform="matrix(-0.7071 -0.7071 0.7071 -0.7071 410.2433 990.3831)" style="opacity:0.1;enable-background:new    ;" width="42.39" height="57.999"/>
<path style="opacity:0.1;enable-background:new    ;" d="M333.734,456.771l-21.917-21.917c-4.45-4.45-4.45-11.665,0-16.116
	l32.955-32.955l29.975,29.975L333.734,456.771z"/>
<path style="fill:#B692DF;" d="M385.625,508.661l-21.917-21.917l41.012-41.012l29.975,29.975l-32.955,32.954
	C397.291,513.112,390.075,513.112,385.625,508.661z"/>
<rect x="320.637" y="331.334" transform="matrix(-0.7071 -0.7071 0.7071 -0.7071 346.792 837.2045)" style="fill:#3F4C58;" width="52.299" height="30.89"/>
<rect x="326.594" y="316.95" transform="matrix(-0.7071 -0.7071 0.7071 -0.7071 332.3911 802.4709)" style="opacity:0.15;enable-background:new    ;" width="11.597" height="30.89"/>
<rect x="355.384" y="345.73" transform="matrix(-0.7071 -0.7071 0.7071 -0.7071 361.1874 871.9593)" style="opacity:0.15;enable-background:new    ;" width="11.596" height="30.89"/>
<path style="fill:#7ED3E9;" d="M3.338,126.375l73.808,73.808c4.45,4.45,11.665,4.45,16.116,0L200.184,93.262
	c4.45-4.45,4.45-11.665,0-16.116L126.375,3.338c-4.45-4.45-11.665-4.45-16.116,0L3.338,110.259
	C-1.112,114.709-1.112,121.925,3.338,126.375z"/>
<path style="fill:#B692DF;" d="M137.254,96.242l29.975,29.975l32.955-32.955c4.45-4.45,4.45-11.665,0-16.116l-21.917-21.917
	L137.254,96.242z"/>
<path style="opacity:0.2;enable-background:new    ;" d="M77.305,36.292l29.975,29.975l41.012-41.012L126.375,3.338
	c-4.45-4.45-11.665-4.45-16.116,0L77.305,36.292z"/>
<rect x="110.542" y="102.744" transform="matrix(0.7071 0.7071 -0.7071 0.7071 131.7415 -54.5652)" style="fill:#F6CE6E;" width="42.39" height="57.999"/>
<rect x="80.569" y="72.764" transform="matrix(0.7071 0.7071 -0.7071 0.7071 101.764 -42.1519)" style="fill:#EB6E8B;" width="42.39" height="57.999"/>
<path style="opacity:0.1;enable-background:new    ;" d="M55.229,178.267l21.917,21.917c4.45,4.45,11.665,4.45,16.116,0
	l32.955-32.955l-29.975-29.975L55.229,178.267z"/>
<path style="fill:#6A95E6;" d="M3.338,126.375l21.917,21.917l41.012-41.012L36.292,77.305L3.338,110.259
	C-1.113,114.709-1.113,121.925,3.338,126.375z"/>
<rect x="139.064" y="149.771" transform="matrix(0.7071 0.7071 -0.7071 0.7071 165.2153 -68.4332)" style="fill:#3F4C58;" width="52.299" height="30.89"/>
<circle style="fill:#EB6E8B;" cx="414.61" cy="97.39" r="25.429"/>
<path style="opacity:0.1;enable-background:new    ;" d="M434.545,81.606c2.235,8.465,0.04,17.857-6.597,24.495
	c-9.931,9.931-26.032,9.931-35.962,0c-0.702-0.702-1.349-1.439-1.952-2.199c1.109,4.201,3.303,8.174,6.597,11.468
	c9.931,9.931,26.032,9.931,35.963,0C441.821,106.142,442.468,91.588,434.545,81.606z"/>
<rect x="98.734" y="283.303" transform="matrix(-0.7071 -0.7071 0.7071 -0.7071 123.1527 673.068)" style="fill:#A9B3C7;" width="204.478" height="55.449"/>
<rect x="227.956" y="325.087" transform="matrix(-0.7071 -0.7071 0.7071 -0.7071 164.9374 773.9433)" style="fill:#EB6E8B;" width="29.604" height="55.449"/>
<path style="fill:#FFFFFF;" d="M160.17,277.736c-1.919,0-3.839-0.732-5.303-2.197l-7.684-7.683c-2.929-2.929-2.929-7.678,0-10.607
	c2.929-2.929,7.678-2.929,10.607,0l7.683,7.683c2.929,2.929,2.929,7.678,0,10.607C164.009,277.004,162.089,277.736,160.17,277.736z"
	/>
<path style="fill:#3F4C58;" d="M186.015,303.581c-1.919,0-3.839-0.733-5.303-2.197l-7.684-7.684c-2.929-2.929-2.929-7.678,0-10.607
	s7.678-2.929,10.607,0l7.684,7.684c2.929,2.929,2.929,7.678,0,10.607C189.854,302.849,187.934,303.581,186.015,303.581z"/>
<path style="fill:#FFFFFF;" d="M211.859,329.426c-1.919,0-3.839-0.732-5.303-2.197l-7.684-7.684c-2.929-2.929-2.929-7.678,0-10.606
	c2.929-2.929,7.678-2.929,10.606,0l7.684,7.684c2.929,2.929,2.929,7.678,0,10.606C215.698,328.693,213.779,329.426,211.859,329.426z
	"/>
<path style="fill:#7ED3E9;" d="M483.063,136.813c-1.059,0-2.135-0.226-3.158-0.702c-3.756-1.747-5.384-6.207-3.638-9.963
	c12.022-25.847,6.575-56.735-13.553-76.863c-20.127-20.127-51.017-25.572-76.861-13.552c-3.756,1.748-8.217,0.118-9.964-3.637
	c-1.746-3.756-0.118-8.217,3.638-9.963c31.537-14.668,69.23-8.018,93.795,16.546c24.564,24.564,31.215,62.258,16.547,93.795
	C488.597,135.206,485.89,136.813,483.063,136.813z"/>
<path style="fill:#6A95E6;" d="M460.358,126.225c-1.059,0-2.135-0.226-3.158-0.702c-3.756-1.747-5.384-6.208-3.638-9.963
	c7.596-16.33,4.155-35.846-8.561-48.562c-12.717-12.717-32.232-16.156-48.561-8.561c-3.758,1.748-8.216,0.119-9.964-3.638
	c-1.746-3.755-0.118-8.216,3.638-9.963c22.022-10.243,48.343-5.598,65.495,11.556c17.153,17.154,21.797,43.474,11.556,65.495
	C465.893,124.618,463.186,126.225,460.358,126.225z"/>
<g>
	<path style="fill:#3F4C58;" d="M257.393,165.933c-1.919,0-3.839-0.732-5.303-2.197c-2.929-2.929-2.929-7.678,0-10.606l5.756-5.757
		c2.93-2.929,7.678-2.929,10.607,0s2.929,7.678,0,10.606l-5.757,5.757C261.231,165.2,259.312,165.933,257.393,165.933z"/>
	<path style="fill:#3F4C58;" d="M353.567,262.107c-1.919,0-3.839-0.732-5.304-2.197c-2.929-2.929-2.929-7.678,0-10.606l5.757-5.757
		c2.93-2.929,7.678-2.929,10.607,0s2.929,7.678,0,10.606l-5.757,5.757C357.406,261.375,355.486,262.107,353.567,262.107z"/>
	<path style="fill:#3F4C58;" d="M305.257,225.996c-5.064,0.001-9.994-2.003-13.622-5.631c-4.358-4.357-6.37-10.593-5.384-16.682
		c0.661-4.088,4.512-6.865,8.602-6.205c4.089,0.662,6.866,4.514,6.204,8.603c-0.221,1.364,0.211,2.705,1.185,3.678
		c0.974,0.974,2.321,1.404,3.677,1.185c4.103-0.664,7.939,2.12,8.601,6.208c0.66,4.089-2.119,7.94-6.208,8.6
		C307.295,225.915,306.273,225.996,305.257,225.996z"/>
</g>
<path style="fill:#A9B3C7;" d="M250.252,286.415l-24.67-24.669c-2.598-2.598-2.598-6.81,0-9.407l11.194-11.194
	c2.598-2.598,6.81-2.598,9.408,0l24.669,24.67c2.598,2.598,2.598,6.81,0,9.408l-11.194,11.194
	C257.061,289.014,252.85,289.014,250.252,286.415z"/>
<rect x="145.017" y="135.376" transform="matrix(-0.7071 -0.7071 0.7071 -0.7071 150.8111 364.1105)" style="opacity:0.15;enable-background:new    ;" width="11.596" height="30.89"/>
<rect x="173.814" y="164.155" transform="matrix(-0.7071 -0.7071 0.7071 -0.7071 179.6222 433.6007)" style="opacity:0.15;enable-background:new    ;" width="11.597" height="30.89"/>
<g>
</g>
<g>
</g>
<g>
</g>
<g>
</g>
<g>
</g>
<g>
</g>
<g>
</g>
<g>
</g>
<g>
</g>
<g>
</g>
<g>
</g>
<g>
</g>
<g>
</g>
<g>
</g>
<g>
</g>
</svg>
