<?xml version="1.0" encoding="iso-8859-1"?>
<!-- Generator: Adobe Illustrator 19.0.0, SVG Export Plug-In . SVG Version: 6.00 Build 0)  -->
<svg version="1.1" id="Capa_1" xmlns="http://www.w3.org/2000/svg" xmlns:xlink="http://www.w3.org/1999/xlink" x="0px" y="0px"
	 viewBox="0 0 512 512" style="enable-background:new 0 0 512 512;" xml:space="preserve">
<path style="fill:#D7F3FF;" d="M469.887,197.981c-4.064-9.704-13.13-16.229-23.578-17.475
	c-18.566-2.213-35.441-14.077-43.179-32.556c-7.738-18.478-4.353-38.826,7.097-53.609c6.443-8.318,8.154-19.356,4.091-29.06
	l-6.411-15.311C400.75,32.879,381.092,24.826,364,31.983l-343.4,143.8C3.509,182.941-4.545,202.599,2.613,219.69l101.48,242.338
	c7.158,17.092,26.816,25.146,43.907,17.988l343.398-143.8c17.092-7.158,25.146-26.816,17.988-43.907L469.887,197.981z"/>
<path style="fill:#BDEBFF;" d="M123.222,287.914c-27.757-78.179-2.844-132.811,22.027-164.328L20.601,175.783
	C3.509,182.941-4.545,202.599,2.613,219.69l101.48,242.338c7.158,17.092,26.816,25.146,43.907,17.988l96.798-40.535
	C210.702,402.526,157.531,384.545,123.222,287.914z"/>
<path style="fill:#ACABB1;" d="M509.388,292.31l-24.07-57.48L80.023,404.549l24.07,57.48c7.158,17.092,26.816,25.146,43.907,17.988
	l343.398-143.8C508.491,329.06,516.545,309.402,509.388,292.31z"/>
<g>
	<path style="fill:#FFDE55;" d="M39.691,214.807c-1.648-3.936,0.206-8.463,4.142-10.111l241.072-100.951
		c3.935-1.648,8.462,0.206,10.11,4.142c1.648,3.936-0.206,8.463-4.142,10.111L49.802,218.95
		C44.405,220.582,40.931,217.768,39.691,214.807z"/>
	<path style="fill:#FFDE55;" d="M54.68,250.599c-1.648-3.936,0.206-8.463,4.142-10.111L170,193.932
		c3.936-1.646,8.463,0.206,10.111,4.142s-0.206,8.463-4.142,10.111L64.791,254.741C59.622,256.669,55.919,253.561,54.68,250.599z"/>
</g>
<g>
	<path style="fill:#FFCD00;" d="M43.833,204.696c-3.936,1.648-5.791,6.175-4.142,10.111c1.24,2.961,4.714,5.774,10.111,4.142
		l63.914-26.764c1.23-6.567,2.836-12.816,4.743-18.739L43.833,204.696z"/>
	<path style="fill:#FFCD00;" d="M54.68,250.599c1.24,2.961,4.942,6.07,10.111,4.142l46.783-19.591
		c-0.45-5.679-0.619-11.193-0.525-16.533l-52.226,21.87C54.886,242.136,53.031,246.664,54.68,250.599z"/>
</g>
<path style="fill:#898890;" d="M167.299,368.003l-87.275,36.547l24.07,57.48c7.158,17.092,26.816,25.146,43.907,17.988
	l96.798-40.535C223.361,416.247,194.387,400.498,167.299,368.003z"/>
<g>
	<path style="fill:#57565C;" d="M338.105,228.999c-3.936,1.648-8.463-0.206-10.111-4.142l-4.954-11.831
		c-1.648-3.936,0.206-8.463,4.142-10.111c3.936-1.648,8.463,0.206,10.111,4.142l4.954,11.831
		C343.895,222.824,342.041,227.351,338.105,228.999z"/>
	<path style="fill:#57565C;" d="M184.819,293.188c-3.936,1.648-8.463-0.206-10.111-4.142l-4.954-11.831
		c-1.648-3.936,0.206-8.463,4.142-10.111c3.936-1.648,8.463,0.206,10.111,4.142l4.954,11.831
		C190.609,287.013,188.755,291.539,184.819,293.188z"/>
	<path style="fill:#57565C;" d="M264.587,268.556c-9.224,3.862-19.698,4.741-29.894,1.993c-4.121-1.109-6.56-5.35-5.451-9.47
		c1.108-4.121,5.35-6.561,9.469-5.451c13.58,3.658,27.896-2.336,34.817-14.58c2.098-3.714,6.814-5.024,10.527-2.924
		c3.715,2.1,5.025,6.814,2.925,10.528C281.785,257.846,273.81,264.693,264.587,268.556z"/>
</g>
<g>
</g>
<g>
</g>
<g>
</g>
<g>
</g>
<g>
</g>
<g>
</g>
<g>
</g>
<g>
</g>
<g>
</g>
<g>
</g>
<g>
</g>
<g>
</g>
<g>
</g>
<g>
</g>
<g>
</g>
</svg>
