<svg height="511pt" viewBox="-72 0 511 511.99909" width="511pt" xmlns="http://www.w3.org/2000/svg"><path d="m183.503906 351.148438-74.761718-6.230469-80.195313 23.402343s-.921875 27.867188 5.410156 60.308594c9.476563 48.535156 52.328125 83.367188 101.777344 83.367188l74.578125.003906c46.222656 0 86.84375-30.570312 99.730469-74.957031 8.359375-28.792969 11.632812-52.460938 11.632812-52.460938zm0 0" fill="#e6b39d"/><path d="m340.597656 32.789062c-20.453125-7.027343-42.734375 3.855469-49.761718 24.3125l-67.265626 181.160157c-1.566406 4.566406-6.242187 7.300781-10.992187 6.429687-4.585937-.84375-7.9375-4.816406-7.996094-9.476562l-2.671875-196.550782c-.273437-21.625-18.019531-38.9375-39.652344-38.66015575-21.625.27343775-38.9375 18.02734375-38.660156 39.65234375l3.292969 260.378906c.265625 21 17.015625 37.929688 37.785156 38.640625.621094.023438 1.242188.027344 1.867188.019531 14.457031-.183593 26.972656-8.179687 33.609375-19.917968l2.929687.648437c.152344 16.121094 10.320313 31.128907 26.4375 36.664063 4.214844 1.449218 8.503907 2.136718 12.726563 2.136718 16.257812 0 31.453125-10.207031 37.03125-26.445312l85.628906-249.230469c7.027344-20.457031-3.855469-42.734375-24.308594-49.761719zm0 0" fill="#e6b39d"/><path d="m188.9375 321.515625-26.363281-90.34375c-6.460938-22.144531-29.652344-34.859375-51.800781-28.394531-22.144532 6.460937-34.859376 29.652344-28.394532 51.796875l-26.917968 56.875 53.28125 33.472656c5.320312 18.238281 21.992187 30.078125 40.078124 30.078125 3.875 0 7.816407-.542969 11.722657-1.683594 22.144531-6.464844 34.859375-29.652344 28.394531-51.800781zm0 0" fill="#f2bda6"/><g fill="#fbc4ac"><path d="m68.625 398.402344c-18.085938 0-34.757812-11.84375-40.078125-30.082032l-26.363281-90.34375c-6.464844-22.144531 6.25-45.335937 28.394531-51.800781 22.144531-6.460937 45.339844 6.253907 51.800781 28.398438l26.363282 90.34375c6.460937 22.144531-6.25 45.335937-28.394532 51.800781-3.910156 1.140625-7.847656 1.683594-11.722656 1.683594zm0 0"/><path d="m285.714844 405.039062c-7.25 0-14.59375-1.886718-21.28125-5.855468l-80.929688-48.035156c-19.839844-11.777344-26.375-37.402344-14.601562-57.242188 11.777344-19.839844 37.40625-26.375 57.242187-14.601562l80.929688 48.039062c19.839843 11.773438 26.375 37.398438 14.601562 57.238281-7.808593 13.152344-21.703125 20.457031-35.960937 20.457031zm0 0"/></g></svg>