<svg xmlns="http://www.w3.org/2000/svg" xmlns:xlink="http://www.w3.org/1999/xlink" version="1.1" width="1024" height="680">
<rect x="0" y="0" width="1024" height="680" fill="#618cb5" />
<g transform="scale(4.000000) translate(0.5 0.5)">
<polygon fill="#2b160a" fill-opacity="0.501961" points="271.000000,168.569251,-16.000000,173.962530,91.255877,47.953323,112.763638,92.670485" />
<polygon fill="#88e1ff" fill-opacity="0.501961" points="271.000000,-0.360747,271.000000,88.048454,-16.000000,84.769776,-16.000000,0.869791" />
<polygon fill="#000000" fill-opacity="0.501961" points="83.605216,49.347061,106.686478,67.702870,99.273795,131.329443,66.183366,91.343245" />
<polygon fill="#cbf2ff" fill-opacity="0.501961" points="264.352812,32.866300,100.558043,58.165575,109.573545,87.554314,271.000000,80.552475" />
<polygon fill="#485b72" fill-opacity="0.501961" points="271.000000,145.629000,139.865873,90.210191,-5.849173,88.652716,-13.452327,155.870708" />
<polygon fill="#704822" fill-opacity="0.501961" points="210.882261,174.581986,269.614177,179.727742,271.000000,132.102568,168.035068,119.248670" />
<polygon fill="#449fff" fill-opacity="0.501961" points="271.000000,4.099912,65.590604,59.336904,-16.000000,54.969671,2.071842,-16.000000" />
<polygon fill="#a6e0ff" fill-opacity="0.501961" points="62.970150,90.336501,80.962283,50.077937,-11.937964,50.528227,-16.000000,87.518153" />
<polygon fill="#000000" fill-opacity="0.501961" points="101.377893,103.043227,65.684608,93.913478,83.358492,55.324474,104.345247,63.877697" />
<polygon fill="#5b90bf" fill-opacity="0.501961" points="106.964166,87.417354,105.077465,134.982830,257.181627,109.730412,260.154339,86.867092" />
<polygon fill="#73c0ff" fill-opacity="0.501961" points="116.819187,70.788199,267.191734,50.258015,269.736468,-16.000000,69.602469,40.100373" />
<polygon fill="#2f5c8f" fill-opacity="0.501961" points="84.330873,86.340350,-1.385892,89.693423,-14.047890,146.298486,68.775963,138.754976" />
<polygon fill="#e6f1ff" fill-opacity="0.501961" points="266.164917,63.003347,102.357232,79.407429,156.857919,83.876649,271.000000,77.553827" />
<polygon fill="#56463a" fill-opacity="0.501961" points="46.894870,150.149241,171.064940,164.586691,2.690518,185.000000,-10.954452,119.754133" />
<polygon fill="#232933" fill-opacity="0.501961" points="77.299924,149.850502,72.022804,65.827409,105.835140,143.818911,104.867894,160.318405" />
<polygon fill="#837971" fill-opacity="0.501961" points="187.698459,145.274817,101.100274,119.352712,176.532320,118.257858,249.975147,122.727667" />
<polygon fill="#413c3f" fill-opacity="0.501961" points="147.559687,142.768844,243.186128,142.376126,271.000000,166.898184,179.624604,185.000000" />
<polygon fill="#57a7ff" fill-opacity="0.501961" points="225.075135,24.095638,228.733898,-0.459233,-1.541328,-1.560107,-11.220194,71.067435" />
<polygon fill="#b1d9ff" fill-opacity="0.501961" points="69.755895,78.782165,68.149600,89.608933,-11.374451,87.117193,72.610953,66.184294" />
<polygon fill="#020205" fill-opacity="0.501961" points="84.665420,50.913737,107.540071,82.796328,98.223393,91.667899,69.003393,82.469315" />
<polygon fill="#78bfff" fill-opacity="0.501961" points="57.855518,47.771834,271.000000,-2.208273,271.000000,33.035369,132.501977,60.953209" />
<polygon fill="#3d73a7" fill-opacity="0.501961" points="71.669079,114.861449,27.263170,114.813288,19.756100,89.575054,65.665825,87.280136" />
<polygon fill="#4394f8" fill-opacity="0.501961" points="1.525880,27.774524,102.969046,19.540850,203.242330,-16.000000,-16.000000,-16.000000" />
<polygon fill="#437aac" fill-opacity="0.501961" points="123.698001,120.977393,180.108787,110.822418,207.683684,87.142383,106.700311,89.881928" />
<polygon fill="#78c4ff" fill-opacity="0.501961" points="99.920184,41.736146,58.544299,67.836728,-2.742514,75.523183,-2.380862,40.373402" />
<polygon fill="#03090c" fill-opacity="0.501961" points="92.852696,64.718422,68.501718,100.958313,72.514721,65.349205,85.760370,93.751422" />
<polygon fill="#150f05" fill-opacity="0.501961" points="238.740214,154.057307,232.305346,142.913110,251.563120,146.579342,238.340620,151.406048" />
<polygon fill="#303037" fill-opacity="0.501961" points="-3.054083,135.715105,20.253463,182.735659,-16.000000,124.657142,32.086888,129.797870" />
<polygon fill="#a1ddff" fill-opacity="0.501961" points="128.830589,64.773867,105.992195,76.804550,263.827198,67.994728,258.562839,41.179264" />
<polygon fill="#749ec4" fill-opacity="0.501961" points="271.000000,141.184986,219.504120,120.004762,195.925269,101.918538,271.000000,99.705281" />
<polygon fill="#476d9d" fill-opacity="0.501961" points="40.487355,148.763816,20.930088,146.919447,68.653962,147.533658,-16.000000,136.503189" />
<polygon fill="#263f65" fill-opacity="0.501961" points="200.991408,155.153655,115.484812,153.874255,231.495375,185.000000,188.446956,162.769768" />
<polygon fill="#445b79" fill-opacity="0.501961" points="18.955179,109.449235,157.922156,105.968704,227.868075,110.495486,155.722243,111.007702" />
<polygon fill="#6f9fcc" fill-opacity="0.501961" points="129.932051,115.907381,110.914614,119.681493,108.219689,112.557908,161.108645,112.249594" />
<polygon fill="#5d5756" fill-opacity="0.501961" points="271.000000,159.066333,155.225785,131.500476,116.464262,129.267246,154.724154,156.268025" />
<polygon fill="#a7d7ff" fill-opacity="0.501961" points="-8.943284,59.552283,70.315346,78.601993,-16.000000,92.866229,-14.306288,86.761604" />
<polygon fill="#313941" fill-opacity="0.501961" points="103.516178,112.485834,106.047076,127.448942,73.623202,140.255101,91.231566,86.669091" />
<polygon fill="#64b1ff" fill-opacity="0.501961" points="39.817079,30.767359,123.964627,33.555613,76.896478,55.249885,77.313069,73.943055" />
<polygon fill="#0c1218" fill-opacity="0.501961" points="78.749487,55.311011,75.028551,76.959622,100.995594,90.934656,103.421231,62.334611" />
<polygon fill="#685f58" fill-opacity="0.501961" points="103.253175,155.777388,184.705728,171.559699,128.657376,185.000000,83.117781,153.803287" />
<polygon fill="#7a6c5e" fill-opacity="0.501961" points="152.455466,119.524212,217.878030,123.193211,271.000000,137.040097,212.771135,142.330712" />
<polygon fill="#5691c9" fill-opacity="0.501961" points="196.490032,99.519141,111.482024,92.768021,105.444940,100.624613,166.592049,104.224658" />
<polygon fill="#6b90b4" fill-opacity="0.501961" points="267.215451,131.878336,201.981023,101.785049,148.821428,127.928418,138.116329,108.130010" />
<polygon fill="#85c9ff" fill-opacity="0.501961" points="79.183150,59.135313,65.185464,76.794274,-16.000000,63.903749,82.922748,54.382650" />
<polygon fill="#84c9ff" fill-opacity="0.501961" points="142.201678,42.074222,85.410600,59.357813,253.186245,58.263276,262.793315,22.829004" />
<polygon fill="#493722" fill-opacity="0.501961" points="209.159533,137.736883,213.225952,185.000000,197.089213,148.568822,246.030753,145.383422" />
<polygon fill="#405f81" fill-opacity="0.501961" points="79.126785,139.523013,78.547262,85.198794,84.360376,90.302957,54.418295,121.594806" />
<polygon fill="#0f1315" fill-opacity="0.501961" points="68.471986,93.087821,84.504779,103.140921,77.787794,99.856973,73.516728,63.385399" />
<polygon fill="#5a5654" fill-opacity="0.501961" points="104.037489,61.291735,101.055754,90.347537,110.566727,114.237128,109.124964,108.541307" />
<polygon fill="#d4eaff" fill-opacity="0.501961" points="260.970933,79.272312,253.817669,69.548252,149.960712,69.529771,203.693962,81.059837" />
<polygon fill="#48423e" fill-opacity="0.501961" points="25.276887,161.644464,100.999470,166.561971,1.749289,185.000000,-3.323943,133.742824" />
<polygon fill="#a7d7ff" fill-opacity="0.501961" points="107.892999,84.847271,175.566690,73.820914,129.771078,63.700792,104.894993,68.875194" />
<polygon fill="#2e668f" fill-opacity="0.501961" points="92.304017,102.542034,155.114512,88.117395,106.232817,88.430992,122.445778,95.241240" />
<polygon fill="#0c1113" fill-opacity="0.501961" points="82.445535,80.462435,76.365169,64.303643,90.301150,51.423484,104.328956,99.602036" />
<polygon fill="#010709" fill-opacity="0.501961" points="238.635479,149.425933,244.866752,147.114649,242.591413,142.889175,232.849673,145.690133" />
<polygon fill="#376795" fill-opacity="0.501961" points="71.538660,96.191636,66.999964,113.547534,-6.849735,89.336227,59.291194,88.938736" />
<polygon fill="#373a45" fill-opacity="0.501961" points="36.745959,145.767928,46.248754,137.457598,7.352373,137.999994,32.105410,139.203993" />
<polygon fill="#727278" fill-opacity="0.501961" points="224.993230,133.761111,271.000000,130.808625,271.000000,129.493550,248.584325,147.334819" />
<polygon fill="#5b7a9b" fill-opacity="0.501961" points="265.209976,106.582196,208.750550,115.615731,260.960047,114.425143,224.049566,106.721677" />
<polygon fill="#91acdf" fill-opacity="0.501961" points="209.474588,88.323753,271.000000,82.703465,204.419021,80.795729,152.748135,85.125223" />
<polygon fill="#364a66" fill-opacity="0.501961" points="22.722342,120.156853,-16.000000,113.051265,44.622488,116.160633,-3.087700,120.531357" />
<polygon fill="#6ab3ff" fill-opacity="0.501961" points="271.000000,4.360736,212.526712,-16.000000,93.847687,57.684611,226.953737,30.278684" />
<polygon fill="#4972a0" fill-opacity="0.501961" points="23.240449,126.084067,72.595868,120.181830,19.751241,118.879780,14.786812,124.450022" />
<polygon fill="#89b6dc" fill-opacity="0.501961" points="202.342193,112.429909,265.125094,113.190539,213.220343,34.975156,262.212351,108.541097" />
<polygon fill="#6c5b49" fill-opacity="0.501961" points="260.919297,166.421686,207.915191,128.601987,217.418370,121.596980,184.058889,130.265909" />
<polygon fill="#5091c8" fill-opacity="0.501961" points="212.127161,85.916990,271.000000,95.247826,196.693334,106.494845,184.857798,98.597373" />
<polygon fill="#616a7a" fill-opacity="0.501961" points="154.189533,142.728991,203.061914,131.812132,111.671184,135.111350,127.751187,122.167702" />
<polygon fill="#4d5e75" fill-opacity="0.501961" points="239.261808,108.834069,221.272074,109.261050,271.000000,105.579397,271.000000,109.075528" />
<polygon fill="#6ca9de" fill-opacity="0.501961" points="239.085257,92.966941,271.000000,98.681140,200.063824,103.506014,268.545920,107.020742" />
<polygon fill="#344662" fill-opacity="0.501961" points="91.714753,127.979133,97.360263,128.388438,154.306024,165.453740,109.140394,155.215326" />
<polygon fill="#030b10" fill-opacity="0.501961" points="83.862120,98.230156,102.372638,70.129115,77.456000,60.917627,80.625618,83.255932" />
<polygon fill="#7aa6db" fill-opacity="0.501961" points="161.068016,86.962341,107.993750,88.809621,114.351015,84.138550,129.913142,84.566401" />
<polygon fill="#476182" fill-opacity="0.501961" points="72.991263,152.283463,46.969753,150.583484,39.540153,119.144294,73.526668,149.623448" />
<polygon fill="#a5dfff" fill-opacity="0.501961" points="196.029336,78.828044,245.853783,63.875359,271.000000,48.825410,217.346005,54.379745" />
<polygon fill="#3b759f" fill-opacity="0.501961" points="207.910952,88.572162,233.893440,93.403464,114.671399,90.932071,113.783945,88.657465" />
<polygon fill="#4c729e" fill-opacity="0.501961" points="35.617822,145.058721,13.078844,142.934479,3.268031,143.205262,1.676926,138.016472" />
<polygon fill="#4c413c" fill-opacity="0.501961" points="167.077467,154.352446,157.684901,138.687333,144.723709,154.619633,156.203636,157.573791" />
<polygon fill="#483729" fill-opacity="0.501961" points="196.921615,169.652324,244.081175,160.106926,236.578325,181.233968,201.823219,146.996725" />
<polygon fill="#4a3825" fill-opacity="0.501961" points="110.464594,123.868840,93.194237,115.153710,93.470803,128.561835,70.887408,122.001381" />
<polygon fill="#72a2cd" fill-opacity="0.501961" points="271.000000,116.868928,248.213432,114.599982,188.368192,120.492204,244.560061,121.916357" />
<polygon fill="#32507a" fill-opacity="0.501961" points="195.419186,154.025626,183.738503,150.078001,183.055359,161.556128,201.062083,160.166875" />
<polygon fill="#263f5e" fill-opacity="0.501961" points="116.946386,107.858074,78.723939,111.583192,75.193486,103.939588,73.291475,99.165050" />
<polygon fill="#91d1ff" fill-opacity="0.501961" points="103.142003,56.160433,108.945978,89.266580,109.685393,75.982068,217.915013,61.250333" />
<polygon fill="#58a9ff" fill-opacity="0.501961" points="-5.701524,48.087118,102.485581,35.369582,240.486705,-2.214712,-16.000000,24.686153" />
<polygon fill="#b2daf5" fill-opacity="0.501961" points="57.866170,84.491256,67.647276,82.867864,71.776070,73.037250,3.630386,88.853502" />
<polygon fill="#756553" fill-opacity="0.501961" points="181.276968,132.835403,150.636210,118.917317,174.857302,119.789183,166.189768,133.331221" />
<polygon fill="#4775a6" fill-opacity="0.501961" points="52.740641,91.111551,71.659643,95.761005,46.099651,113.766845,63.005355,112.346719" />
<polygon fill="#446f8a" fill-opacity="0.501961" points="82.187949,87.094901,80.745079,87.456785,81.097535,99.193841,75.781570,88.666402" />
<polygon fill="#5085be" fill-opacity="0.501961" points="-16.000000,113.634718,19.239522,114.141812,17.506805,114.986300,26.168138,109.534285" />
<polygon fill="#496f96" fill-opacity="0.501961" points="210.621838,116.388792,266.845172,113.693469,249.549077,114.985958,200.467212,113.794813" />
<polygon fill="#c8d7ee" fill-opacity="0.501961" points="123.516053,82.805818,103.794662,82.238909,174.432903,76.673864,146.496624,86.213822" />
<polygon fill="#1e2229" fill-opacity="0.501961" points="17.703390,140.708531,17.802827,145.378878,14.707110,145.066980,5.445194,147.323810" />
<polygon fill="#345a86" fill-opacity="0.501961" points="34.543607,98.986449,-16.000000,88.052610,42.281600,108.882071,-16.000000,110.125366" />
<polygon fill="#376592" fill-opacity="0.501961" points="221.704704,99.243600,260.808898,100.831573,271.000000,85.092888,266.591969,98.983035" />
<polygon fill="#0d1217" fill-opacity="0.501961" points="107.292769,86.069817,87.067669,87.583481,78.598658,55.199804,99.474965,77.395287" />
<polygon fill="#7abffb" fill-opacity="0.501961" points="65.849330,41.353706,76.054831,74.231096,76.539243,47.511688,50.413282,72.531160" />
<polygon fill="#2b384f" fill-opacity="0.501961" points="-11.083820,153.725329,11.602273,123.245549,29.789540,132.088648,-16.000000,125.838500" />
<polygon fill="#edf2f7" fill-opacity="0.501961" points="271.000000,70.595117,229.039517,76.634916,231.390312,71.733723,237.777649,69.752006" />
<polygon fill="#675954" fill-opacity="0.501961" points="242.285391,172.852771,230.497352,148.592168,257.047646,164.642337,216.867795,149.795766" />
<polygon fill="#4f6782" fill-opacity="0.501961" points="174.872410,106.728384,147.936904,108.580898,175.939920,113.058586,205.906218,105.906327" />
<polygon fill="#58789d" fill-opacity="0.501961" points="30.791861,145.202835,59.570923,147.647527,17.991306,142.405304,24.857613,147.390551" />
<polygon fill="#040c0f" fill-opacity="0.501961" points="89.769302,102.820425,66.323242,91.645230,82.155725,99.558189,82.928164,53.473496" />
<polygon fill="#7ac1ff" fill-opacity="0.501961" points="90.525905,47.442367,149.425718,45.630223,119.305539,63.106919,95.572266,60.491456" />
<polygon fill="#607ea1" fill-opacity="0.501961" points="122.335961,122.956744,103.136971,115.513497,116.851137,129.671237,165.157163,119.002503" />
<polygon fill="#466185" fill-opacity="0.501961" points="49.012560,137.952857,-16.000000,136.679578,25.409017,131.800339,55.786031,132.848442" />
<polygon fill="#081118" fill-opacity="0.501961" points="67.915506,92.401536,76.615813,99.540657,69.125049,80.217286,73.659281,73.093713" />
<polygon fill="#5f91bf" fill-opacity="0.501961" points="104.802226,119.178141,146.141616,106.427456,156.894939,98.495630,131.953750,117.505269" />
<polygon fill="#2b3b54" fill-opacity="0.501961" points="147.470443,158.186445,155.833529,162.498647,250.193959,185.000000,237.833112,171.455919" />
<polygon fill="#96d1ff" fill-opacity="0.501961" points="18.012797,71.353499,78.905294,59.596398,69.757114,72.549980,68.605653,87.301217" />
<polygon fill="#37608c" fill-opacity="0.501961" points="112.818894,101.510847,152.437360,106.687386,102.845877,105.452980,95.846655,100.903150" />
<polygon fill="#2b3036" fill-opacity="0.501961" points="81.789554,54.337017,88.442138,50.588494,94.536026,79.670339,94.842428,71.387402" />
<polygon fill="#7e7f7f" fill-opacity="0.501961" points="238.813889,128.663004,201.490956,127.019228,237.828060,121.939931,234.856487,124.364078" />
<polygon fill="#255070" fill-opacity="0.501961" points="93.532282,91.352030,90.018567,94.272783,95.307635,112.555639,88.151043,87.814364" />
<polygon fill="#77a4cd" fill-opacity="0.501961" points="172.111916,116.664534,183.061825,112.714255,195.501690,116.141141,160.675352,112.543626" />
<polygon fill="#4696f0" fill-opacity="0.501961" points="-16.000000,13.340134,-16.000000,-3.717886,124.684206,-11.682426,93.264189,7.953652" />
<polygon fill="#23231f" fill-opacity="0.501961" points="95.918875,166.665640,97.329188,165.134891,97.399215,163.610350,107.280829,175.167049" />
<polygon fill="#2b3a50" fill-opacity="0.501961" points="63.437217,145.653285,75.193638,131.271249,110.762016,152.368393,95.218408,125.546900" />
<polygon fill="#0a0f10" fill-opacity="0.501961" points="93.693809,100.352786,101.903424,60.085131,92.192670,63.132873,102.982480,82.426484" />
<polygon fill="#32363e" fill-opacity="0.501961" points="79.886090,114.679333,95.314951,147.426763,66.945213,152.977145,91.557212,154.438597" />
<polygon fill="#324b70" fill-opacity="0.501961" points="162.869639,143.503676,117.771352,151.037232,92.720427,134.195265,135.018453,153.528749" />
<polygon fill="#372f29" fill-opacity="0.501961" points="79.101697,116.388657,96.834436,120.613685,108.052488,110.744837,76.566131,117.075729" />
<polygon fill="#cfe2f6" fill-opacity="0.501961" points="180.753968,80.963724,179.788060,66.272508,154.434859,83.170841,171.746713,84.759657" />
<polygon fill="#77beff" fill-opacity="0.501961" points="271.000000,9.780697,85.673428,52.715286,85.874567,48.174988,228.631502,38.190350" />
<polygon fill="#b3d7ef" fill-opacity="0.501961" points="11.263020,87.932166,-15.621945,81.582217,67.265872,78.864294,68.031673,84.081478" />
<polygon fill="#71869f" fill-opacity="0.501961" points="229.561507,118.640291,260.161801,132.627435,235.717969,133.887333,252.912705,126.673268" />
<polygon fill="#6d6056" fill-opacity="0.501961" points="104.172333,68.901364,102.391781,71.457663,104.534529,97.134860,108.224324,84.388174" />
<polygon fill="#423625" fill-opacity="0.501961" points="228.580886,140.945748,232.799412,143.738069,215.114164,145.433275,204.082062,143.723647" />
<polygon fill="#7facd9" fill-opacity="0.501961" points="184.571570,87.633456,132.433844,87.883608,104.501682,88.133587,133.139186,84.178149" />
<polygon fill="#594433" fill-opacity="0.501961" points="227.161559,185.000000,241.265842,147.038037,263.045669,164.159101,241.145398,154.624467" />
<polygon fill="#68686d" fill-opacity="0.501961" points="114.418771,127.647321,94.839568,126.200577,104.737715,125.121830,104.226536,116.496809" />
<polygon fill="#77ace1" fill-opacity="0.501961" points="69.783413,85.773458,65.595959,88.052408,26.958238,88.811405,40.792639,85.318557" />
<polygon fill="#746656" fill-opacity="0.501961" points="170.148059,118.749891,219.701310,130.861832,244.596208,131.925968,207.724511,142.053304" />
<polygon fill="#564d49" fill-opacity="0.501961" points="0.220103,143.326853,97.597143,157.691849,107.702985,161.853518,40.450769,166.862984" />
<polygon fill="#3e4556" fill-opacity="0.501961" points="105.985033,150.458212,81.084705,143.851037,91.872826,116.438179,68.902124,149.275337" />
<polygon fill="#574536" fill-opacity="0.501961" points="271.000000,180.384667,210.818392,159.466507,169.736237,141.626021,229.518195,159.240103" />
<polygon fill="#67584a" fill-opacity="0.501961" points="136.752845,136.350086,145.195411,127.801834,148.653417,146.833692,138.718867,141.501256" />
<polygon fill="#8ca3b9" fill-opacity="0.501961" points="203.927947,107.372860,220.637950,110.411600,235.540168,106.414182,215.345749,107.423882" />
<polygon fill="#548fc4" fill-opacity="0.501961" points="109.067217,93.857389,147.797351,97.405543,124.347199,101.429765,105.348526,95.642959" />
<polygon fill="#081018" fill-opacity="0.501961" points="83.272189,51.893280,86.543633,60.428666,77.067537,61.465929,77.932153,77.328147" />
<polygon fill="#355271" fill-opacity="0.501961" points="144.766267,110.573583,168.830905,108.881503,177.537031,108.169838,171.373142,106.216258" />
<polygon fill="#101215" fill-opacity="0.501961" points="16.923094,143.145223,6.656243,143.169167,18.851023,145.947542,-3.129189,114.002591" />
<polygon fill="#61afff" fill-opacity="0.501961" points="91.947482,30.326488,-16.000000,49.221716,134.389334,37.693878,271.000000,-7.502489" />
<polygon fill="#273547" fill-opacity="0.501961" points="11.585492,115.698269,-16.000000,118.448611,-8.399166,90.562767,-16.000000,111.998621" />
<polygon fill="#b5e3ff" fill-opacity="0.501961" points="258.296174,62.856840,107.929883,76.513434,220.706466,77.192512,173.161424,73.812968" />
<polygon fill="#546178" fill-opacity="0.501961" points="141.443716,133.526377,105.159662,130.114394,117.408366,143.746857,107.127377,140.456402" />
<polygon fill="#9bb6e3" fill-opacity="0.501961" points="241.492991,86.282305,203.098235,81.575176,255.171915,79.875748,270.561791,87.941846" />
<polygon fill="#253240" fill-opacity="0.501961" points="29.555288,115.712419,29.439227,115.289518,40.214155,115.051913,54.751754,116.173856" />
<polygon fill="#333e51" fill-opacity="0.501961" points="39.804577,140.285670,50.908146,137.955927,39.901856,144.989063,19.226624,136.353507" />
<polygon fill="#77899c" fill-opacity="0.501961" points="166.444477,117.430101,206.870442,107.306384,167.750780,112.122309,224.636798,124.588176" />
<polygon fill="#1f4c66" fill-opacity="0.501961" points="99.765325,63.789886,69.510026,88.596499,22.834141,89.696828,67.108374,90.556922" />
<polygon fill="#7bc3ff" fill-opacity="0.501961" points="64.382911,49.253622,-10.189206,72.035365,76.265375,57.931427,76.600366,70.993334" />
<polygon fill="#7ec3fe" fill-opacity="0.501961" points="86.462981,51.636920,98.743651,45.804641,91.919601,57.960468,139.469444,61.019344" />
<polygon fill="#595254" fill-opacity="0.501961" points="116.170265,144.136847,101.567152,136.277362,126.182247,139.956717,166.926287,135.091848" />
<polygon fill="#6cb9ff" fill-opacity="0.501961" points="76.328233,55.738763,82.168795,57.235069,79.253701,43.589188,-16.000000,52.470359" />
<polygon fill="#53a2f9" fill-opacity="0.501961" points="254.659978,-13.505543,90.240169,25.161628,-9.716666,32.397829,181.633859,-8.935960" />
<polygon fill="#6099cc" fill-opacity="0.501961" points="167.191253,100.356953,267.724660,90.510243,244.282826,98.994658,215.760398,99.067465" />
<polygon fill="#4274ac" fill-opacity="0.501961" points="31.499494,101.773817,25.658891,99.700144,-16.000000,101.164069,31.015500,103.764740" />
<polygon fill="#6e5e4e" fill-opacity="0.501961" points="162.713689,127.994263,174.844117,143.158553,172.345148,136.659080,177.365352,127.356426" />
<polygon fill="#62554c" fill-opacity="0.501961" points="217.063077,144.938408,211.290738,159.110616,200.015623,132.707741,226.951588,168.337070" />
<polygon fill="#486b91" fill-opacity="0.501961" points="76.086522,127.364288,46.210312,130.382200,67.903299,118.407983,28.700023,123.594755" />
<polygon fill="#272320" fill-opacity="0.501961" points="216.824927,163.448708,205.405814,163.393947,207.594753,170.845000,204.626606,169.881401" />
<polygon fill="#365881" fill-opacity="0.501961" points="37.054964,98.395807,84.084464,103.784793,31.746699,101.638717,23.743844,99.500837" />
<polygon fill="#586f88" fill-opacity="0.501961" points="218.820846,111.567264,245.937815,108.746395,266.727212,106.599624,235.140569,107.522357" />
<polygon fill="#1c3046" fill-opacity="0.501961" points="85.186598,105.576911,65.091898,92.824724,89.936631,100.161053,107.261819,103.245438" />
<polygon fill="#81b5e2" fill-opacity="0.501961" points="257.595000,103.340851,215.908810,103.615343,232.554586,104.670916,271.000000,106.523734" />
<polygon fill="#5078a5" fill-opacity="0.501961" points="28.447515,111.917488,67.929844,114.724728,2.551074,114.777939,66.085721,110.211628" />
<polygon fill="#5488b7" fill-opacity="0.501961" points="164.110093,104.383323,154.981392,109.110801,147.661731,93.235647,133.050327,91.511546" />
<polygon fill="#9ad7ff" fill-opacity="0.501961" points="259.041343,58.126300,191.570907,67.555094,102.472493,72.490297,271.000000,44.234036" />
<polygon fill="#9cb1d6" fill-opacity="0.501961" points="134.909013,84.046622,106.938626,87.289621,107.230204,81.918006,103.232695,83.478681" />
<polygon fill="#43536b" fill-opacity="0.501961" points="79.281008,112.364140,86.190336,113.264997,141.034562,110.093249,97.337900,109.872836" />
<polygon fill="#524132" fill-opacity="0.501961" points="189.346718,145.445059,136.220978,152.964228,156.258151,154.731032,156.579346,151.259007" />
<polygon fill="#3f3122" fill-opacity="0.501961" points="244.693633,185.000000,256.613998,163.520922,232.580292,176.742739,228.565303,159.095735" />
<polygon fill="#060d10" fill-opacity="0.501961" points="102.670375,72.382520,105.263009,75.499458,81.591971,79.968933,95.913703,92.536284" />
<polygon fill="#5d5a52" fill-opacity="0.501961" points="84.155571,121.863555,91.195943,123.016588,86.604491,126.690754,86.257969,124.562191" />
<polygon fill="#4671a2" fill-opacity="0.501961" points="10.666930,141.202080,-4.589622,131.945770,4.268889,139.979753,9.537061,144.586999" />
<polygon fill="#4e7dab" fill-opacity="0.501961" points="193.511659,104.575748,153.855253,106.288044,216.107796,99.295490,160.206224,101.740398" />
<polygon fill="#555b66" fill-opacity="0.501961" points="206.023024,177.983621,166.831149,173.399299,122.759922,158.748968,156.789530,164.416051" />
<polygon fill="#71716f" fill-opacity="0.501961" points="98.997967,164.004373,105.385586,161.302544,101.489443,176.646176,115.933624,185.000000" />
<polygon fill="#676061" fill-opacity="0.501961" points="246.547946,150.904949,248.286288,136.330554,252.377461,151.816456,271.000000,169.212396" />
<polygon fill="#1e2833" fill-opacity="0.501961" points="-3.270347,126.001897,-16.000000,108.783637,-11.376098,132.299861,11.675123,133.530876" />
<polygon fill="#040b0f" fill-opacity="0.501961" points="80.347362,67.383103,66.693432,93.878330,72.809758,95.021210,76.323726,82.937900" />
<polygon fill="#86afdd" fill-opacity="0.501961" points="174.861174,87.816149,155.518452,82.796430,147.445664,86.837331,214.407378,81.666426" />
<polygon fill="#858077" fill-opacity="0.501961" points="178.333840,122.539801,193.604933,122.457970,192.302165,118.560234,236.576799,125.722163" />
<polygon fill="#6393c1" fill-opacity="0.501961" points="159.367533,111.244204,173.928418,114.250083,198.398249,115.107388,183.422389,120.091999" />
<polygon fill="#2b2924" fill-opacity="0.501961" points="101.330057,167.792326,87.806140,166.700849,97.472741,165.445801,126.110325,185.000000" />
<polygon fill="#bcd7f0" fill-opacity="0.501961" points="105.725258,76.824172,111.405858,85.051192,168.424482,81.629138,102.029190,77.002492" />
<polygon fill="#2c6087" fill-opacity="0.501961" points="54.238565,92.375324,5.417451,92.892598,-12.849579,88.962772,23.418291,90.015065" />
<polygon fill="#1b1a1c" fill-opacity="0.501961" points="35.196582,139.103810,40.840368,144.710588,39.586072,142.376339,41.794126,141.273359" />
<polygon fill="#85c9ff" fill-opacity="0.501961" points="78.889055,60.575944,-16.000000,73.815683,74.338583,66.945653,79.096907,49.218924" />
<polygon fill="#4073a6" fill-opacity="0.501961" points="68.510254,91.910089,29.998682,98.347563,74.991424,100.341465,57.383857,90.857798" />
<polygon fill="#374a68" fill-opacity="0.501961" points="176.568318,148.994207,156.908230,159.475324,208.534637,151.607830,176.622784,162.517975" />
<polygon fill="#2d3b51" fill-opacity="0.501961" points="132.343031,154.526037,106.935096,155.694498,139.250353,158.366427,138.988728,151.531914" />
<polygon fill="#5186ba" fill-opacity="0.501961" points="185.302768,107.312912,167.449259,109.807974,183.084787,109.964745,160.430188,95.942966" />
<polygon fill="#666f80" fill-opacity="0.501961" points="118.103223,115.544102,108.809518,116.862643,100.376668,111.714175,114.134193,113.621458" />
<polygon fill="#34312d" fill-opacity="0.501961" points="89.823519,115.148127,104.382729,110.622696,91.961590,123.819222,106.470186,124.065605" />
<polygon fill="#737172" fill-opacity="0.501961" points="124.152687,117.236524,123.143480,121.353801,155.158387,120.936903,139.773800,120.165400" />
<polygon fill="#4d6a8e" fill-opacity="0.501961" points="15.725633,140.296493,22.266101,146.790966,39.742805,144.314170,26.136960,140.507866" />
<polygon fill="#646873" fill-opacity="0.501961" points="217.424713,142.176673,122.131332,125.762868,117.580760,121.387187,185.729363,136.042888" />
<polygon fill="#4b6d92" fill-opacity="0.501961" points="42.287986,149.657776,78.164664,149.194503,75.419725,149.659578,69.097993,152.179042" />
<polygon fill="#699ece" fill-opacity="0.501961" points="246.022390,122.533489,271.000000,134.412789,271.000000,115.079287,188.140466,117.304855" />
<polygon fill="#3f5777" fill-opacity="0.501961" points="142.611914,149.800249,125.174762,154.368066,109.368865,154.903890,100.159885,153.105329" />
<polygon fill="#497aa9" fill-opacity="0.501961" points="137.982630,108.262849,163.332162,100.021062,162.141144,87.057244,140.612556,120.385206" />
<polygon fill="#3e5672" fill-opacity="0.501961" points="141.712789,105.871460,159.882760,110.806255,147.495927,104.053458,149.213382,108.256791" />
<polygon fill="#5a5c64" fill-opacity="0.501961" points="238.457115,157.544927,154.645678,131.833358,230.955806,157.136940,235.827570,151.231923" />
<polygon fill="#74767f" fill-opacity="0.501961" points="251.311766,137.155187,266.065597,147.336015,266.009340,126.868129,228.348441,141.679682" />
<polygon fill="#476b94" fill-opacity="0.501961" points="62.197580,127.375776,29.755157,126.566620,8.405286,113.713765,26.994244,128.902564" />
<polygon fill="#ade2ff" fill-opacity="0.501961" points="258.827923,57.443901,259.114417,69.049620,149.636714,68.466686,242.632286,62.500573" />
<polygon fill="#5d554f" fill-opacity="0.501961" points="85.343877,169.580634,82.448879,152.230192,101.586329,158.089254,114.410215,151.925602" />
<polygon fill="#35455e" fill-opacity="0.501961" points="209.494647,168.369110,221.893610,167.441882,248.469776,174.739458,186.470690,168.001923" />
<polygon fill="#84b8e0" fill-opacity="0.501961" points="77.886743,85.832591,-9.712461,63.675895,80.619588,86.483497,78.984687,91.979703" />
<polygon fill="#323945" fill-opacity="0.501961" points="84.840330,106.335313,87.318482,150.374191,80.796030,109.450713,124.394419,107.347632" />
<polygon fill="#384b65" fill-opacity="0.501961" points="58.027333,125.598929,86.922400,119.619426,71.414079,115.522298,73.890193,125.284232" />
<polygon fill="#373e4d" fill-opacity="0.501961" points="42.041648,149.559822,93.187448,147.046012,107.036971,152.390465,107.171234,142.792753" />
<polygon fill="#376c93" fill-opacity="0.501961" points="111.044586,95.044403,128.046228,88.962445,114.021884,88.057873,104.041745,89.190798" />
<polygon fill="#0a0f0c" fill-opacity="0.501961" points="100.981565,91.489984,103.878294,96.713746,86.297917,92.727306,84.009931,94.669659" />
<polygon fill="#495567" fill-opacity="0.501961" points="32.340450,137.512082,63.885173,134.447124,25.135475,155.265498,47.519727,144.040200" />
<polygon fill="#e0ecf9" fill-opacity="0.501961" points="228.796508,68.318172,271.000000,76.751215,233.717194,71.736429,210.261417,77.181442" />
<polygon fill="#374c67" fill-opacity="0.501961" points="134.312576,130.887163,30.934871,130.619935,92.617654,134.121086,69.370074,133.133047" />
<polygon fill="#5481b1" fill-opacity="0.501961" points="111.112448,117.373964,116.392835,116.615480,108.444669,128.654355,122.215772,130.194956" />
<polygon fill="#63b4ff" fill-opacity="0.501961" points="-16.000000,51.469882,116.317931,43.029257,23.493088,35.032915,-9.348575,35.790581" />
<polygon fill="#403321" fill-opacity="0.501961" points="221.037321,150.495888,230.583946,152.222713,213.193288,144.847719,216.394802,142.461432" />
<polygon fill="#92a3b4" fill-opacity="0.501961" points="257.920603,141.959830,271.000000,111.789433,235.191561,109.640673,264.399370,107.697840" />
<polygon fill="#3c3e3a" fill-opacity="0.501961" points="103.005766,78.255574,107.411723,98.030364,102.656594,98.699091,100.642810,98.658546" />
<polygon fill="#4f7395" fill-opacity="0.501961" points="210.785704,112.209688,197.990822,106.060176,173.374192,104.814340,187.652384,104.550778" />
<polygon fill="#4c7eaf" fill-opacity="0.501961" points="259.082950,104.398659,231.910103,99.761413,172.303574,100.265858,245.724063,100.428434" />
<polygon fill="#508abb" fill-opacity="0.501961" points="188.808702,95.154843,199.444337,86.967867,255.082730,89.007631,271.000000,92.055161" />
<polygon fill="#88cbff" fill-opacity="0.501961" points="231.579179,48.018214,271.000000,37.551287,236.727990,29.745109,102.017222,71.894644" />
<polygon fill="#1c1f22" fill-opacity="0.501961" points="234.440863,140.892199,242.683145,142.617182,237.535269,151.405417,240.005297,151.463359" />
<polygon fill="#3f301d" fill-opacity="0.501961" points="235.431678,163.828134,264.150814,163.602593,236.491334,161.421210,239.060239,162.630383" />
<polygon fill="#4c75a3" fill-opacity="0.501961" points="68.895962,109.127596,45.222462,111.775084,61.139528,103.370593,40.958243,103.451828" />
<polygon fill="#5b94c6" fill-opacity="0.501961" points="151.702900,98.137204,156.795068,103.503723,146.311161,101.495973,102.796901,99.450279" />
<polygon fill="#626b73" fill-opacity="0.501961" points="75.091772,68.068449,74.655337,70.406639,74.509310,77.117053,73.299564,62.593236" />
<polygon fill="#5f87b4" fill-opacity="0.501961" points="142.555533,124.831373,131.432606,123.501228,152.400391,121.606211,156.297222,125.758789" />
<polygon fill="#836e52" fill-opacity="0.501961" points="217.592522,120.563822,219.816740,123.817936,187.517959,124.254084,205.804261,127.367506" />
<polygon fill="#416088" fill-opacity="0.501961" points="38.005547,137.844120,7.502729,130.160842,22.986412,116.932557,-16.000000,121.491887" />
<polygon fill="#cedef8" fill-opacity="0.501961" points="157.686671,69.573754,175.018998,68.317298,179.100282,68.309566,183.472761,75.356746" />
<polygon fill="#7bc2ff" fill-opacity="0.501961" points="257.178743,31.671105,256.278583,16.949856,134.204972,51.479577,196.806675,47.340798" />
<polygon fill="#6b5c4d" fill-opacity="0.501961" points="234.703681,142.707270,212.507453,147.475475,235.274526,150.514107,232.652045,124.543872" />
<polygon fill="#565d69" fill-opacity="0.501961" points="115.329318,120.975257,104.294592,125.797825,118.017283,128.329249,90.248688,128.460541" />
<polygon fill="#4f4237" fill-opacity="0.501961" points="202.915919,169.773944,187.699635,163.160233,199.519206,161.494002,208.804149,155.222801" />
<polygon fill="#0b1219" fill-opacity="0.501961" points="79.255496,62.713903,94.031305,58.173385,69.074092,83.179857,71.662051,87.615953" />
<polygon fill="#3c7099" fill-opacity="0.501961" points="110.693342,90.103742,144.003547,93.171241,175.386821,92.117215,165.220372,89.251044" />
<polygon fill="#58697f" fill-opacity="0.501961" points="166.411302,134.817537,198.814833,131.734453,147.395946,139.822824,152.331136,142.385309" />
<polygon fill="#4772a3" fill-opacity="0.501961" points="13.579501,117.513247,-16.000000,117.550875,33.251956,120.288296,30.951470,125.283809" />
<polygon fill="#444142" fill-opacity="0.501961" points="-16.000000,138.559958,40.352834,185.000000,-16.000000,171.807221,8.224377,142.909298" />
<polygon fill="#726c68" fill-opacity="0.501961" points="247.771049,124.505367,210.193420,136.433057,271.000000,148.875313,219.690824,130.458230" />
<polygon fill="#21262f" fill-opacity="0.501961" points="88.729940,152.740586,84.544243,150.072996,73.129051,153.116341,74.784998,152.673238" />
<polygon fill="#695a55" fill-opacity="0.501961" points="271.000000,154.851481,244.891805,162.751870,239.006044,152.929006,230.200501,160.561618" />
<polygon fill="#020709" fill-opacity="0.501961" points="80.490422,92.350158,95.898607,82.703932,87.370882,91.431405,84.995968,95.041353" />
<polygon fill="#81766a" fill-opacity="0.501961" points="106.844848,124.532123,114.762618,119.950694,104.865770,121.872947,105.425897,123.828255" />
<polygon fill="#2a3646" fill-opacity="0.501961" points="27.836981,138.256242,29.335864,139.211529,9.718964,139.747505,26.480431,136.983551" />
<polygon fill="#434348" fill-opacity="0.501961" points="176.312791,146.906706,203.237382,155.024205,182.399081,152.413528,205.662280,144.308854" />
<polygon fill="#47719f" fill-opacity="0.501961" points="-16.000000,123.927189,31.687710,124.738856,49.065436,124.668641,28.296838,120.828422" />
<polygon fill="#39506f" fill-opacity="0.501961" points="6.683503,114.833564,39.717114,121.253105,56.264808,116.948524,3.190610,114.364506" />
<polygon fill="#3c4e67" fill-opacity="0.501961" points="37.927080,125.481055,42.238673,133.476801,30.417325,124.125935,64.223277,126.391438" />
<polygon fill="#abd5f3" fill-opacity="0.501961" points="69.619073,82.260168,-3.712516,77.379670,-4.372839,89.035808,30.099427,87.999167" />
<polygon fill="#595b64" fill-opacity="0.501961" points="194.656932,140.371328,158.477406,140.526011,196.379645,146.727792,201.205396,137.521764" />
<polygon fill="#689bcb" fill-opacity="0.501961" points="183.519471,99.137050,177.452389,99.095224,175.687653,92.980615,165.265413,102.213769" />
<polygon fill="#5a5e68" fill-opacity="0.501961" points="166.835336,148.240948,198.622171,115.084418,165.111995,155.103591,194.257282,151.112538" />
<polygon fill="#47668b" fill-opacity="0.501961" points="77.014484,134.611145,15.309632,131.624403,16.974104,137.504200,31.414106,135.004787" />
<polygon fill="#4073a8" fill-opacity="0.501961" points="41.439284,98.129025,68.566019,98.066301,10.284179,95.440575,23.963567,91.054153" />
<polygon fill="#628eb9" fill-opacity="0.501961" points="194.082822,108.178200,152.750659,105.994065,164.373933,106.027937,171.913672,105.315840" />
<polygon fill="#5c6c82" fill-opacity="0.501961" points="152.232257,118.027591,114.007971,142.033783,147.111008,125.518855,143.857337,113.105759" />
<polygon fill="#8796a4" fill-opacity="0.501961" points="198.269537,107.526215,205.418581,109.753463,238.174126,107.743935,189.805638,108.109158" />
<polygon fill="#65a1d6" fill-opacity="0.501961" points="191.154292,103.911485,259.986352,100.969745,186.188972,101.577348,198.808718,97.730259" />
<polygon fill="#090f14" fill-opacity="0.501961" points="83.829042,77.219861,71.662089,96.236826,80.149809,56.869502,105.363103,103.065085" />
<polygon fill="#5e5247" fill-opacity="0.501961" points="258.396412,185.000000,230.869897,161.522309,252.975380,169.729206,271.000000,146.992117" />
<polygon fill="#292c2f" fill-opacity="0.501961" points="104.539688,122.053383,89.363333,121.809150,92.805726,112.061685,88.646005,126.940994" />
<polygon fill="#29384a" fill-opacity="0.501961" points="98.841104,128.930578,85.964938,142.224879,113.938663,148.845365,81.161125,129.928609" />
<polygon fill="#e2f1fb" fill-opacity="0.501961" points="259.849435,77.942798,269.172933,80.190525,243.288509,79.725384,248.134386,78.502835" />
<polygon fill="#5081b4" fill-opacity="0.501961" points="11.409674,143.095177,4.148224,141.612327,4.109266,139.626759,16.454209,141.437091" />
<polygon fill="#4d6585" fill-opacity="0.501961" points="42.967905,148.421464,81.480326,141.169988,77.916597,143.080169,65.280944,146.330362" />
<polygon fill="#717684" fill-opacity="0.501961" points="87.969496,46.825510,91.034708,57.526314,105.080637,66.844548,90.808509,54.988082" />
<polygon fill="#756f6b" fill-opacity="0.501961" points="155.445777,121.869050,159.815408,125.646477,178.857819,130.405620,191.959284,126.372394" />
<polygon fill="#41648c" fill-opacity="0.501961" points="137.921112,100.675504,144.283226,103.525118,147.728416,104.987502,133.797155,107.710938" />
<polygon fill="#334f73" fill-opacity="0.501961" points="11.266564,102.913090,17.731853,104.875991,38.625508,106.629300,6.335455,106.799835" />
<polygon fill="#3e5475" fill-opacity="0.501961" points="144.864038,142.250110,110.938194,150.286726,111.606975,142.987334,136.628268,144.943803" />
<polygon fill="#d0e2f2" fill-opacity="0.501961" points="136.627839,86.254412,150.161671,80.074568,172.483093,76.719465,189.858824,78.332719" />
<polygon fill="#596877" fill-opacity="0.501961" points="271.417912,110.762808,239.159120,111.211981,271.000000,112.966523,245.896262,177.808087" />
<polygon fill="#504b4a" fill-opacity="0.501961" points="3.384842,141.316959,44.799254,176.173400,48.838592,147.632070,-12.439616,159.351220" />
<polygon fill="#625650" fill-opacity="0.501961" points="257.052963,145.952556,249.698887,136.767322,247.842222,148.060632,271.000000,144.124844" />
<polygon fill="#70baff" fill-opacity="0.501961" points="66.652441,49.465787,185.558784,31.688353,87.467306,58.718483,119.146025,55.199832" />
<polygon fill="#4a80b4" fill-opacity="0.501961" points="208.013714,94.180239,115.796217,99.200168,131.339851,108.006791,104.556243,96.952177" />
<polygon fill="#678fb8" fill-opacity="0.501961" points="250.058071,121.272757,256.055270,118.769000,255.411317,128.235480,248.070382,136.860765" />
<polygon fill="#090f13" fill-opacity="0.501961" points="79.845411,69.691931,104.677795,62.856031,77.431810,82.858782,86.710693,87.916660" />
<polygon fill="#443327" fill-opacity="0.501961" points="239.319064,169.178806,222.499528,158.135453,241.058818,185.000000,271.000000,175.038476" />
<polygon fill="#7699bb" fill-opacity="0.501961" points="221.347599,123.743631,230.724561,123.251766,229.929207,120.013154,211.997440,118.166165" />
<polygon fill="#716255" fill-opacity="0.501961" points="216.118251,129.018610,225.544449,123.227527,215.710317,144.237373,246.079586,129.373029" />
<polygon fill="#554d48" fill-opacity="0.501961" points="120.674532,171.915318,113.440208,167.275007,118.586930,157.879148,69.503591,185.000000" />
<polygon fill="#3b2e24" fill-opacity="0.501961" points="213.190872,185.000000,199.257411,155.991327,203.910569,151.205942,206.558635,179.346816" />
<polygon fill="#75869a" fill-opacity="0.501961" points="239.504141,126.608585,271.000000,108.636793,233.320433,129.779427,222.620353,129.537475" />
<polygon fill="#37332d" fill-opacity="0.501961" points="82.438538,110.153710,92.867467,116.250348,75.469673,122.752316,87.093892,131.854136" />
<polygon fill="#404652" fill-opacity="0.501961" points="100.117700,136.129280,99.361040,138.194243,108.853047,139.937307,113.249677,135.750017" />
<polygon fill="#4f7eae" fill-opacity="0.501961" points="46.900530,114.667969,-4.827522,114.085917,3.532633,111.962056,51.179816,114.723169" />
<polygon fill="#80c7ff" fill-opacity="0.501961" points="-16.000000,56.880168,66.554250,60.398279,76.693638,66.248196,-16.000000,66.103827" />
<polygon fill="#2d3f57" fill-opacity="0.501961" points="83.705281,114.271755,72.256525,96.203961,69.425453,99.477474,105.521853,108.624869" />
<polygon fill="#4c4747" fill-opacity="0.501961" points="148.719937,143.845740,129.795960,148.474588,154.433732,140.592844,176.797410,150.670737" />
<polygon fill="#759ec1" fill-opacity="0.501961" points="135.120714,114.292959,132.661018,111.386406,116.363884,114.055276,113.100976,114.805247" />
<polygon fill="#60728a" fill-opacity="0.501961" points="103.475176,131.990763,112.839755,135.199889,132.553992,133.550758,115.126643,132.370726" />
<polygon fill="#375275" fill-opacity="0.501961" points="23.834830,143.420598,36.395095,142.838436,36.203791,139.621279,21.037938,141.045272" />
</g>
</svg>